{"glyphs":{"0":{"ha":494,"x_min":40,"x_max":972,"o":"m 247 -8 l 247 -8 q 79 53 138 -8 q 20 229 20 114 l 20 229 l 20 617 q 76 802 20 738 q 247 867 132 867 l 247 867 q 418 802 362 867 q 475 617 475 738 l 475 617 l 475 229 q 416 53 475 114 q 247 -8 356 -8 z m 247 150 l 247 150 q 278 168 267 150 q 290 209 290 187 l 290 209 l 290 633 q 283 686 290 664 q 247 709 276 709 l 247 709 q 211 686 218 709 q 205 633 205 664 l 205 633 l 205 209 q 216 168 205 187 q 247 150 228 150 z"},"1":{"ha":331,"x_min":25,"x_max":616,"o":"m 301 0 l 119 0 l 119 662 q 70 628 101 641 q 12 615 40 615 l 12 615 l 12 752 q 68 769 38 756 q 123 805 98 782 q 163 860 149 828 l 163 860 l 301 860 l 301 0 z"},"2":{"ha":494,"x_min":58,"x_max":987,"o":"m 476 0 l 30 0 l 30 41 q 50 156 30 105 q 101 251 70 207 q 167 336 132 294 l 167 336 q 231 421 201 377 q 281 514 262 464 q 300 628 300 565 l 300 628 q 291 680 300 658 q 254 702 282 702 l 254 702 q 211 625 211 702 l 211 625 l 211 520 l 30 520 q 29 545 30 531 q 28 573 28 560 l 28 573 q 48 730 28 666 q 117 829 67 795 q 256 863 167 863 l 256 863 q 423 803 363 863 q 482 631 482 743 l 482 631 q 462 499 482 556 q 411 395 443 442 q 340 302 378 349 l 340 302 q 287 235 313 270 q 242 162 261 201 l 242 162 l 476 162 l 476 0 z"},"3":{"ha":494,"x_min":39,"x_max":961,"o":"m 236 -10 l 236 -10 q 71 50 123 -10 q 19 231 19 110 l 19 231 l 19 321 l 195 321 l 195 231 q 204 173 195 197 q 242 149 212 149 l 242 149 q 281 175 272 149 q 289 259 289 201 l 289 259 l 289 280 q 274 358 289 325 q 216 391 259 391 l 216 391 q 206 391 210 391 q 199 390 202 391 l 199 390 l 199 544 q 267 564 244 544 q 291 630 291 584 l 291 630 q 249 703 291 703 l 249 703 q 212 682 221 703 q 202 628 202 661 l 202 628 l 202 602 l 24 602 q 24 616 24 608 q 23 632 23 625 l 23 632 q 79 806 23 750 q 248 861 134 861 l 248 861 q 467 632 467 861 l 467 632 q 450 528 467 569 q 387 470 433 486 l 387 470 q 441 425 423 452 q 464 357 458 397 q 469 259 469 316 l 469 259 q 415 60 469 130 q 236 -10 361 -10 z"},"4":{"ha":494,"x_min":18,"x_max":993,"o":"m 439 0 l 264 0 l 264 136 l 9 136 l 9 270 l 171 860 l 439 860 l 439 279 l 485 279 l 485 136 l 439 136 l 439 0 z m 264 712 l 162 279 l 264 279 l 264 712 z"},"5":{"ha":494,"x_min":46,"x_max":977,"o":"m 247 -12 l 247 -12 q 85 37 148 -12 q 22 188 22 86 l 22 188 l 22 315 l 201 315 l 201 242 q 204 197 201 219 q 216 162 207 176 q 247 148 226 148 l 247 148 q 284 167 275 148 q 292 215 292 186 l 292 215 l 292 384 q 290 426 292 405 q 278 460 287 446 q 248 474 269 474 l 248 474 q 199 403 199 474 l 199 403 l 42 403 l 42 860 l 451 860 l 451 699 l 205 699 l 205 578 q 239 605 217 593 q 290 617 261 617 l 290 617 q 385 595 349 617 q 442 532 422 572 q 469 439 462 492 q 477 326 477 387 l 477 326 q 469 186 477 249 q 437 80 461 124 q 368 11 414 35 q 247 -12 322 -12 z"},"6":{"ha":494,"x_min":54,"x_max":988,"o":"m 258 -8 l 258 -8 q 118 23 169 -8 q 47 115 68 53 q 26 268 26 176 l 26 268 l 26 500 q 34 658 26 590 q 65 773 42 727 q 137 843 89 819 q 263 867 184 867 l 263 867 q 364 848 317 867 q 440 792 411 830 q 469 699 469 755 l 469 699 l 469 606 l 303 606 l 303 624 q 301 667 303 645 q 290 702 299 688 q 260 716 281 716 l 260 716 q 220 700 231 716 q 209 655 209 685 l 209 655 l 209 482 q 246 519 221 505 q 305 533 270 533 l 305 533 q 415 505 376 533 q 468 419 453 476 q 482 278 482 363 l 482 278 q 461 128 482 192 q 391 28 440 63 q 258 -8 342 -8 z m 252 150 l 252 150 q 288 176 282 150 q 294 242 294 202 l 294 242 l 294 311 q 254 381 294 381 l 254 381 q 209 320 209 381 l 209 320 l 209 214 q 252 150 209 150 z"},"7":{"ha":494,"x_min":70,"x_max":958,"o":"m 265 0 l 71 0 q 104 225 79 121 q 164 420 130 330 q 229 585 198 510 l 229 585 l 277 701 l 34 701 l 34 860 l 468 860 l 468 766 q 451 662 468 714 q 406 545 434 609 l 406 545 q 309 271 345 408 q 265 0 273 135 l 265 0 z"},"8":{"ha":494,"x_min":46,"x_max":966,"o":"m 247 -9 l 247 -9 q 74 60 126 -9 q 22 256 22 129 l 22 256 l 22 313 q 38 419 22 379 q 96 481 54 460 l 96 481 q 40 535 56 498 q 23 629 23 573 l 23 629 l 23 652 q 80 818 23 766 q 247 870 138 870 l 247 870 q 415 817 359 870 q 471 645 471 763 l 471 645 q 456 541 471 583 q 398 480 441 499 l 398 480 q 458 418 444 457 q 472 313 472 379 l 472 313 l 472 256 q 420 60 472 129 q 247 -9 368 -9 z m 247 554 l 247 554 q 292 636 292 554 l 292 636 q 283 688 292 663 q 247 712 273 712 l 247 712 q 211 688 221 712 q 202 636 202 663 l 202 636 q 247 554 202 554 z m 247 161 l 247 161 q 294 236 294 161 l 294 236 l 294 315 q 283 376 294 354 q 247 398 273 398 l 247 398 q 210 376 220 398 q 201 315 201 354 l 201 315 l 201 236 q 247 161 201 161 z"},"9":{"ha":494,"x_min":54,"x_max":988,"o":"m 246 -8 l 246 -8 q 145 11 191 -8 q 69 67 98 30 q 40 161 40 105 l 40 161 l 40 253 l 206 253 l 206 236 q 208 193 206 214 q 219 157 210 171 q 249 143 228 143 l 249 143 q 289 159 277 143 q 300 205 300 175 l 300 205 l 300 377 q 263 340 288 354 q 204 326 239 326 l 204 326 q 94 355 133 326 q 41 440 56 383 q 26 582 26 497 l 26 582 q 47 732 26 667 q 117 832 68 796 q 250 867 167 867 l 250 867 q 391 837 340 867 q 462 745 441 806 q 482 591 482 684 l 482 591 l 482 359 q 475 201 482 270 q 443 86 467 133 q 372 16 419 40 q 246 -8 325 -8 z m 254 478 l 254 478 q 300 539 300 478 l 300 539 l 300 646 q 257 709 300 709 l 257 709 q 221 683 227 709 q 215 618 215 658 l 215 618 l 215 548 q 254 478 215 478 z"},"\r":{"ha":234,"x_min":0,"x_max":0,"o":""},"\u0000":{"ha":0,"x_min":0,"x_max":0,"o":""}," ":{"ha":234,"x_min":0,"x_max":0,"o":""},"A":{"ha":485,"x_min":30,"x_max":964,"o":"m 182 0 l 15 0 l 98 859 l 389 859 l 471 0 l 308 0 l 296 139 l 192 139 l 182 0 z m 237 713 l 205 276 l 283 276 l 245 713 l 237 713 z"},"Æ":{"ha":640,"x_min":-44,"x_max":1272,"o":"m 165 0 l -21 0 l 135 859 l 610 859 l 610 708 l 470 708 l 470 512 l 603 512 l 603 366 l 470 366 l 470 152 l 621 152 l 621 0 l 304 0 l 304 234 l 203 234 l 165 0 z m 274 713 l 226 375 l 302 375 l 302 713 l 274 713 z"},"Ǽ":{"ha":640,"x_min":-44,"x_max":1272,"o":"m 165 0 l -21 0 l 135 859 l 610 859 l 610 708 l 470 708 l 470 512 l 603 512 l 603 366 l 470 366 l 470 152 l 621 152 l 621 0 l 304 0 l 304 234 l 203 234 l 165 0 z m 274 713 l 226 375 l 302 375 l 302 713 l 274 713 z m 504 931 l 272 885 l 272 994 l 504 1101 l 504 931 z"},"Ǣ":{"ha":640,"x_min":-44,"x_max":1272,"o":"m 165 0 l -21 0 l 135 859 l 610 859 l 610 708 l 470 708 l 470 512 l 603 512 l 603 366 l 470 366 l 470 152 l 621 152 l 621 0 l 304 0 l 304 234 l 203 234 l 165 0 z m 274 713 l 226 375 l 302 375 l 302 713 l 274 713 z m 547 917 l 230 917 l 230 992 l 547 992 l 547 917 z"},"Á":{"ha":485,"x_min":30,"x_max":964,"o":"m 182 0 l 15 0 l 98 859 l 389 859 l 471 0 l 308 0 l 296 139 l 192 139 l 182 0 z m 237 713 l 205 276 l 283 276 l 245 713 l 237 713 z m 358 931 l 126 885 l 126 994 l 358 1101 l 358 931 z"},"Ă":{"ha":485,"x_min":30,"x_max":964,"o":"m 182 0 l 15 0 l 98 859 l 389 859 l 471 0 l 308 0 l 296 139 l 192 139 l 182 0 z m 237 713 l 205 276 l 283 276 l 245 713 l 237 713 z m 244 904 l 244 904 q 105 940 158 904 q 52 1056 52 977 l 52 1056 q 54 1077 52 1066 l 54 1077 l 179 1077 q 193 1034 179 1049 q 245 1020 207 1020 l 245 1020 q 296 1034 282 1020 q 311 1077 311 1049 l 311 1077 l 436 1077 q 436 1067 436 1072 q 437 1060 437 1062 l 437 1060 q 384 941 437 978 q 244 904 332 904 z"},"Ắ":{"ha":485,"x_min":30,"x_max":964,"o":"m 182 0 l 15 0 l 98 859 l 389 859 l 471 0 l 308 0 l 296 139 l 192 139 l 182 0 z m 237 713 l 205 276 l 283 276 l 245 713 l 237 713 z m 344 1086 l 162 1055 l 162 1106 l 344 1198 l 344 1086 z m 240 894 l 240 894 q 156 911 192 894 q 100 955 120 928 q 80 1010 80 981 l 80 1010 q 82 1031 80 1021 l 82 1031 l 174 1031 q 188 985 174 1000 q 240 969 203 969 l 240 969 q 291 985 277 969 q 305 1031 305 1000 l 305 1031 l 403 1031 q 404 1014 404 1019 l 404 1014 q 385 956 404 983 q 328 911 365 928 q 240 894 291 894 z"},"Ặ":{"ha":485,"x_min":30,"x_max":964,"o":"m 182 0 l 15 0 l 98 859 l 389 859 l 471 0 l 308 0 l 296 139 l 192 139 l 182 0 z m 237 713 l 205 276 l 283 276 l 245 713 l 237 713 z m 242 904 l 242 904 q 103 937 156 904 q 50 1042 50 970 l 50 1042 q 52 1062 50 1052 l 52 1062 l 177 1062 q 191 1016 177 1032 q 243 1000 205 1000 l 243 1000 q 294 1016 280 1000 q 309 1062 309 1032 l 309 1062 l 434 1062 q 435 1045 435 1050 l 435 1045 q 382 938 435 971 q 242 904 330 904 z m 330 -194 l 155 -194 l 155 -48 l 330 -48 l 330 -194 z"},"Ằ":{"ha":485,"x_min":30,"x_max":964,"o":"m 182 0 l 15 0 l 98 859 l 389 859 l 471 0 l 308 0 l 296 139 l 192 139 l 182 0 z m 237 713 l 205 276 l 283 276 l 245 713 l 237 713 z m 344 1106 l 344 1055 l 162 1086 l 162 1198 l 344 1106 z m 240 894 l 240 894 q 156 911 192 894 q 100 955 120 928 q 80 1010 80 981 l 80 1010 q 82 1031 80 1021 l 82 1031 l 174 1031 q 188 985 174 1000 q 240 969 203 969 l 240 969 q 291 985 277 969 q 305 1031 305 1000 l 305 1031 l 403 1031 q 404 1014 404 1020 l 404 1014 q 385 956 404 983 q 328 911 365 928 q 240 894 291 894 z"},"Ẳ":{"ha":485,"x_min":30,"x_max":964,"o":"m 182 0 l 15 0 l 98 859 l 389 859 l 471 0 l 308 0 l 296 139 l 192 139 l 182 0 z m 237 713 l 205 276 l 283 276 l 245 713 l 237 713 z m 245 1040 l 245 1040 l 213 1077 q 240 1093 229 1083 q 250 1117 250 1102 l 250 1117 q 219 1146 250 1146 l 219 1146 q 191 1141 205 1146 l 191 1141 l 191 1195 q 247 1206 219 1206 l 247 1206 q 306 1187 285 1206 q 328 1133 328 1167 l 328 1133 q 304 1073 328 1095 q 245 1040 280 1051 z m 240 894 l 240 894 q 156 911 192 894 q 100 955 120 928 q 80 1010 80 981 l 80 1010 q 82 1031 80 1021 l 82 1031 l 174 1031 q 188 985 174 1000 q 240 969 203 969 l 240 969 q 291 985 277 969 q 305 1031 305 1000 l 305 1031 l 403 1031 q 404 1021 404 1026 q 404 1014 404 1016 l 404 1014 q 385 956 404 983 q 328 911 365 928 q 240 894 291 894 z"},"Ẵ":{"ha":485,"x_min":30,"x_max":964,"o":"m 182 0 l 15 0 l 98 859 l 389 859 l 471 0 l 308 0 l 296 139 l 192 139 l 182 0 z m 237 713 l 205 276 l 283 276 l 245 713 l 237 713 z m 310 1062 l 310 1062 q 268 1070 288 1062 q 230 1086 249 1078 q 193 1095 212 1095 l 193 1095 q 171 1089 181 1095 q 152 1070 161 1084 l 152 1070 l 98 1098 q 128 1153 110 1130 q 182 1175 146 1175 l 182 1175 q 224 1167 205 1175 q 261 1150 243 1159 q 299 1142 279 1142 l 299 1142 q 340 1169 323 1142 l 340 1169 l 401 1150 q 369 1089 387 1116 q 310 1062 351 1062 z m 240 894 l 240 894 q 156 911 192 894 q 100 955 120 928 q 80 1010 80 981 l 80 1010 q 82 1031 80 1021 l 82 1031 l 174 1031 q 188 985 174 1000 q 240 969 203 969 l 240 969 q 291 985 277 969 q 305 1031 305 1000 l 305 1031 l 403 1031 q 404 1021 404 1026 q 404 1014 404 1016 l 404 1014 q 385 956 404 983 q 328 911 365 928 q 240 894 291 894 z"},"Ǎ":{"ha":485,"x_min":30,"x_max":964,"o":"m 182 0 l 15 0 l 98 859 l 389 859 l 471 0 l 308 0 l 296 139 l 192 139 l 182 0 z m 237 713 l 205 276 l 283 276 l 245 713 l 237 713 z m 342 904 l 143 904 l 25 1101 l 200 1101 l 242 961 l 284 1101 l 459 1101 l 342 904 z"},"Â":{"ha":485,"x_min":30,"x_max":964,"o":"m 182 0 l 15 0 l 98 859 l 389 859 l 471 0 l 308 0 l 296 139 l 192 139 l 182 0 z m 237 713 l 205 276 l 283 276 l 245 713 l 237 713 z m 200 904 l 25 904 l 143 1101 l 342 1101 l 459 904 l 284 904 l 242 1043 l 200 904 z"},"Ấ":{"ha":485,"x_min":30,"x_max":1206,"o":"m 182 0 l 15 0 l 98 859 l 389 859 l 471 0 l 308 0 l 296 139 l 192 139 l 182 0 z m 237 713 l 205 276 l 283 276 l 245 713 l 237 713 z m 497 977 l 383 977 l 439 1076 l 589 1076 l 497 977 z m 194 898 l 55 898 l 170 1022 l 314 1022 l 430 898 l 291 898 l 242 964 l 194 898 z"},"Ậ":{"ha":485,"x_min":30,"x_max":964,"o":"m 182 0 l 15 0 l 98 859 l 389 859 l 471 0 l 308 0 l 296 139 l 192 139 l 182 0 z m 237 713 l 205 276 l 283 276 l 245 713 l 237 713 z m 330 -194 l 155 -194 l 155 -48 l 330 -48 l 330 -194 z m 200 909 l 25 909 l 143 1071 l 342 1071 l 459 909 l 284 909 l 242 1014 l 200 909 z"},"Ầ":{"ha":485,"x_min":30,"x_max":1085,"o":"m 182 0 l 15 0 l 98 859 l 389 859 l 471 0 l 308 0 l 296 139 l 192 139 l 182 0 z m 237 713 l 205 276 l 283 276 l 245 713 l 237 713 z m 530 977 l 416 977 l 324 1076 l 474 1076 l 530 977 z m 194 898 l 55 898 l 170 1022 l 314 1022 l 430 898 l 291 898 l 242 964 l 194 898 z"},"Ẩ":{"ha":485,"x_min":30,"x_max":1035,"o":"m 182 0 l 15 0 l 98 859 l 389 859 l 471 0 l 308 0 l 296 139 l 192 139 l 182 0 z m 237 713 l 205 276 l 283 276 l 245 713 l 237 713 z m 423 957 l 423 957 l 391 994 q 417 1010 407 1000 q 427 1034 427 1019 l 427 1034 q 396 1063 427 1063 l 396 1063 q 369 1058 383 1063 l 369 1058 l 369 1112 q 425 1123 397 1123 l 425 1123 q 484 1104 462 1123 q 505 1050 505 1084 l 505 1050 q 482 990 505 1012 q 423 957 458 968 z m 194 898 l 55 898 l 170 1022 l 314 1022 l 430 898 l 291 898 l 242 964 l 194 898 z"},"Ẫ":{"ha":485,"x_min":30,"x_max":964,"o":"m 182 0 l 15 0 l 98 859 l 389 859 l 471 0 l 308 0 l 296 139 l 192 139 l 182 0 z m 237 713 l 205 276 l 283 276 l 245 713 l 237 713 z m 301 1046 l 301 1046 q 260 1054 279 1046 q 222 1071 240 1063 q 184 1079 204 1079 l 184 1079 q 162 1074 172 1079 q 143 1054 152 1068 l 143 1054 l 89 1083 q 119 1137 102 1114 q 173 1160 137 1160 l 173 1160 q 215 1151 196 1160 q 252 1135 234 1143 q 290 1126 271 1126 l 290 1126 q 331 1154 314 1126 l 331 1154 l 392 1134 q 360 1073 378 1100 q 301 1046 342 1046 z m 194 898 l 55 898 l 170 1022 l 314 1022 l 430 898 l 291 898 l 242 964 l 194 898 z"},"Ȁ":{"ha":485,"x_min":10,"x_max":964,"o":"m 182 0 l 15 0 l 98 859 l 389 859 l 471 0 l 308 0 l 296 139 l 192 139 l 182 0 z m 237 713 l 205 276 l 283 276 l 245 713 l 237 713 z m 227 930 l 146 901 l 5 1111 l 119 1164 l 227 930 z m 375 930 l 293 901 l 172 1111 l 285 1164 l 375 930 z"},"Ä":{"ha":485,"x_min":30,"x_max":964,"o":"m 182 0 l 15 0 l 98 859 l 389 859 l 471 0 l 308 0 l 296 139 l 192 139 l 182 0 z m 237 713 l 205 276 l 283 276 l 245 713 l 237 713 z m 444 908 l 270 908 l 270 1053 l 444 1053 l 444 908 z m 208 908 l 33 908 l 33 1053 l 208 1053 l 208 908 z"},"Ǟ":{"ha":485,"x_min":30,"x_max":964,"o":"m 182 0 l 15 0 l 98 859 l 389 859 l 471 0 l 308 0 l 296 139 l 192 139 l 182 0 z m 237 713 l 205 276 l 283 276 l 245 713 l 237 713 z m 448 908 l 273 908 l 273 1029 l 448 1029 l 448 908 z m 211 908 l 37 908 l 37 1029 l 211 1029 l 211 908 z m 401 1082 l 83 1082 l 83 1157 l 401 1157 l 401 1082 z"},"Ȧ":{"ha":485,"x_min":30,"x_max":964,"o":"m 182 0 l 15 0 l 98 859 l 389 859 l 471 0 l 308 0 l 296 139 l 192 139 l 182 0 z m 237 713 l 205 276 l 283 276 l 245 713 l 237 713 z m 330 904 l 155 904 l 155 1050 l 330 1050 l 330 904 z"},"Ạ":{"ha":485,"x_min":30,"x_max":964,"o":"m 182 0 l 15 0 l 98 859 l 389 859 l 471 0 l 308 0 l 296 139 l 192 139 l 182 0 z m 237 713 l 205 276 l 283 276 l 245 713 l 237 713 z m 330 -194 l 155 -194 l 155 -48 l 330 -48 l 330 -194 z"},"Ǡ":{"ha":485,"x_min":30,"x_max":964,"o":"m 182 0 l 15 0 l 98 859 l 389 859 l 471 0 l 308 0 l 296 139 l 192 139 l 182 0 z m 237 713 l 205 276 l 283 276 l 245 713 l 237 713 z m 330 904 l 155 904 l 155 1030 l 330 1030 l 330 904 z m 401 1073 l 83 1073 l 83 1148 l 401 1148 l 401 1073 z"},"À":{"ha":485,"x_min":30,"x_max":964,"o":"m 182 0 l 15 0 l 98 859 l 389 859 l 471 0 l 308 0 l 296 139 l 192 139 l 182 0 z m 237 713 l 205 276 l 283 276 l 245 713 l 237 713 z m 358 994 l 358 885 l 126 931 l 126 1101 l 358 994 z"},"Ả":{"ha":485,"x_min":30,"x_max":964,"o":"m 182 0 l 15 0 l 98 859 l 389 859 l 471 0 l 308 0 l 296 139 l 192 139 l 182 0 z m 237 713 l 205 276 l 283 276 l 245 713 l 237 713 z m 228 897 l 228 897 l 176 958 q 219 982 203 967 q 235 1021 235 997 l 235 1021 q 186 1067 235 1067 l 186 1067 q 142 1060 163 1067 l 142 1060 l 142 1147 q 231 1164 185 1164 l 231 1164 q 326 1133 292 1164 q 361 1047 361 1103 l 361 1047 q 323 950 361 985 q 228 897 285 915 z"},"Ȃ":{"ha":485,"x_min":30,"x_max":964,"o":"m 182 0 l 15 0 l 98 859 l 389 859 l 471 0 l 308 0 l 296 139 l 192 139 l 182 0 z m 237 713 l 205 276 l 283 276 l 245 713 l 237 713 z m 176 912 l 61 912 q 60 932 60 922 l 60 932 q 108 1048 60 1012 q 241 1084 156 1084 l 241 1084 q 377 1047 329 1084 q 424 929 424 1010 l 424 929 q 424 922 424 926 q 423 912 424 917 l 423 912 l 308 912 q 290 961 308 945 q 242 978 271 978 l 242 978 q 195 961 214 978 q 176 912 176 945 l 176 912 z"},"Ɑ":{"ha":522,"x_min":64,"x_max":1059,"o":"m 177 -8 l 177 -8 q 83 22 114 -8 q 42 105 52 52 q 31 228 31 159 l 31 228 l 31 632 q 42 754 31 701 q 83 837 52 807 q 177 867 114 867 l 177 867 q 244 846 219 867 q 284 783 269 825 l 284 783 l 284 859 l 455 859 l 455 214 q 469 165 455 180 q 517 149 484 149 l 517 149 l 517 -5 q 386 14 433 -5 q 313 92 338 34 l 313 92 q 261 14 297 37 q 177 -8 224 -8 z m 244 136 l 244 136 q 275 157 267 136 q 284 210 284 179 l 284 210 l 284 649 q 275 702 284 681 q 244 724 267 724 l 244 724 q 210 704 219 724 q 202 649 202 684 l 202 649 l 202 210 q 210 156 202 176 q 244 136 219 136 z"},"Ā":{"ha":485,"x_min":30,"x_max":964,"o":"m 182 0 l 15 0 l 98 859 l 389 859 l 471 0 l 308 0 l 296 139 l 192 139 l 182 0 z m 237 713 l 205 276 l 283 276 l 245 713 l 237 713 z m 401 917 l 84 917 l 84 992 l 401 992 l 401 917 z"},"Ą":{"ha":485,"x_min":30,"x_max":973,"o":"m 182 0 l 15 0 l 98 859 l 389 859 l 471 0 l 308 0 l 296 139 l 192 139 l 182 0 z m 237 713 l 205 276 l 283 276 l 245 713 l 237 713 z m 378 -308 l 378 -308 q 293 -291 332 -308 q 232 -240 255 -273 q 208 -161 208 -207 l 208 -161 q 337 0 208 -72 l 337 0 l 440 0 q 388 -62 413 -28 q 362 -136 362 -96 l 362 -136 q 418 -191 362 -191 l 418 -191 q 475 -180 442 -191 l 475 -180 l 475 -289 q 378 -308 429 -308 z"},"Å":{"ha":485,"x_min":30,"x_max":964,"o":"m 182 0 l 15 0 l 98 859 l 389 859 l 471 0 l 308 0 l 296 139 l 192 139 l 182 0 z m 237 713 l 205 276 l 283 276 l 245 713 l 237 713 z m 242 898 l 242 898 q 116 942 164 898 q 69 1063 69 986 l 69 1063 q 116 1185 69 1141 q 242 1229 164 1229 l 242 1229 q 367 1185 320 1229 q 415 1063 415 1141 l 415 1063 q 367 942 415 986 q 242 898 320 898 z m 242 987 l 242 987 q 293 1009 275 987 q 312 1063 312 1032 l 312 1063 q 293 1118 312 1095 q 242 1140 275 1140 l 242 1140 q 191 1118 209 1140 q 173 1063 173 1095 l 173 1063 q 191 1009 173 1032 q 242 987 209 987 z"},"Ǻ":{"ha":485,"x_min":30,"x_max":964,"o":"m 182 0 l 15 0 l 98 859 l 389 859 l 471 0 l 308 0 l 296 139 l 192 139 l 182 0 z m 237 713 l 205 276 l 283 276 l 245 713 l 237 713 z m 242 898 l 242 898 q 117 939 164 898 q 70 1054 70 980 l 70 1054 q 117 1168 70 1126 q 242 1209 164 1209 l 242 1209 q 368 1168 321 1209 q 415 1054 415 1126 l 415 1054 q 368 940 415 981 q 242 898 321 898 z m 243 987 l 243 987 q 294 1006 275 987 q 312 1054 312 1026 l 312 1054 q 294 1101 312 1082 q 243 1121 275 1121 l 243 1121 q 192 1101 210 1121 q 173 1054 173 1082 l 173 1054 q 192 1006 173 1026 q 243 987 210 987 z m 358 1263 l 126 1227 l 126 1321 l 358 1403 l 358 1263 z"},"Ḁ":{"ha":485,"x_min":30,"x_max":964,"o":"m 182 0 l 15 0 l 98 859 l 389 859 l 471 0 l 308 0 l 296 139 l 192 139 l 182 0 z m 237 713 l 205 276 l 283 276 l 245 713 l 237 713 z m 242 -299 l 242 -299 q 117 -258 164 -299 q 70 -144 70 -217 l 70 -144 q 117 -30 70 -71 q 242 11 164 11 l 242 11 q 368 -30 321 11 q 415 -144 415 -71 l 415 -144 q 368 -258 415 -216 q 242 -299 321 -299 z m 243 -211 l 243 -211 q 294 -191 275 -211 q 312 -144 312 -172 l 312 -144 q 294 -97 312 -116 q 243 -77 275 -77 l 243 -77 q 192 -97 210 -77 q 173 -144 173 -116 l 173 -144 q 192 -191 173 -172 q 243 -211 210 -211 z"},"Ⱥ":{"ha":485,"x_min":30,"x_max":964,"o":"m 73 0 l 15 0 l 98 859 l 296 859 l 327 977 l 395 977 l 365 859 l 389 859 l 471 0 l 308 0 l 296 139 l 192 139 l 182 0 l 141 0 l 118 -91 l 49 -91 l 73 0 z m 237 713 l 205 276 l 283 276 l 245 713 l 237 713 z"},"Ã":{"ha":485,"x_min":30,"x_max":964,"o":"m 182 0 l 15 0 l 98 859 l 389 859 l 471 0 l 308 0 l 296 139 l 192 139 l 182 0 z m 237 713 l 205 276 l 283 276 l 245 713 l 237 713 z m 323 914 l 323 914 q 257 925 287 914 q 202 947 227 936 q 158 958 178 958 l 158 958 q 134 951 145 958 q 113 925 123 943 l 113 925 l 41 963 q 67 1017 53 993 q 104 1057 82 1042 q 161 1072 126 1072 l 161 1072 q 224 1062 196 1072 q 275 1041 252 1051 q 317 1031 298 1031 l 317 1031 q 342 1039 331 1031 q 363 1067 353 1047 l 363 1067 l 444 1041 q 418 979 432 1008 q 382 932 404 950 q 323 914 359 914 z"},"B":{"ha":479,"x_min":78,"x_max":942,"o":"m 271 0 l 38 0 l 38 859 l 271 859 q 407 814 365 859 q 450 663 450 768 l 450 663 l 450 625 q 428 527 450 565 q 362 478 407 490 l 362 478 q 440 409 420 463 q 460 278 460 355 l 460 278 q 444 132 460 194 q 388 35 429 69 q 271 0 347 0 l 271 0 z m 206 727 l 206 536 l 241 536 q 272 554 265 536 q 279 599 279 573 l 279 599 l 279 685 q 242 727 279 727 l 242 727 l 206 727 z m 223 151 l 223 151 q 290 215 290 151 l 290 215 l 290 322 q 279 380 290 359 q 238 401 268 401 l 238 401 l 206 401 l 206 152 q 223 151 217 151 z"},"Ḃ":{"ha":479,"x_min":78,"x_max":942,"o":"m 271 0 l 38 0 l 38 859 l 271 859 q 407 814 365 859 q 450 663 450 768 l 450 663 l 450 625 q 428 527 450 565 q 362 478 407 490 l 362 478 q 440 409 420 463 q 460 278 460 355 l 460 278 q 444 132 460 194 q 388 35 429 69 q 271 0 347 0 l 271 0 z m 206 727 l 206 536 l 241 536 q 272 554 265 536 q 279 599 279 573 l 279 599 l 279 685 q 242 727 279 727 l 242 727 l 206 727 z m 223 151 l 223 151 q 290 215 290 151 l 290 215 l 290 322 q 279 380 290 359 q 238 401 268 401 l 238 401 l 206 401 l 206 152 q 223 151 217 151 z m 308 904 l 133 904 l 133 1050 l 308 1050 l 308 904 z"},"Ḅ":{"ha":479,"x_min":78,"x_max":942,"o":"m 271 0 l 38 0 l 38 859 l 271 859 q 407 814 365 859 q 450 663 450 768 l 450 663 l 450 625 q 428 527 450 565 q 362 478 407 490 l 362 478 q 440 409 420 463 q 460 278 460 355 l 460 278 q 444 132 460 194 q 388 35 429 69 q 271 0 347 0 l 271 0 z m 206 727 l 206 536 l 241 536 q 272 554 265 536 q 279 599 279 573 l 279 599 l 279 685 q 242 727 279 727 l 242 727 l 206 727 z m 223 151 l 223 151 q 290 215 290 151 l 290 215 l 290 322 q 279 380 290 359 q 238 401 268 401 l 238 401 l 206 401 l 206 152 q 223 151 217 151 z m 308 -204 l 133 -204 l 133 -58 l 308 -58 l 308 -204 z"},"Ꞵ":{"ha":479,"x_min":78,"x_max":942,"o":"m 206 -91 l 38 -91 l 38 859 l 271 859 q 407 814 365 859 q 450 663 450 768 l 450 663 l 450 625 q 428 527 450 565 q 362 478 407 490 l 362 478 q 440 409 420 463 q 460 278 460 355 l 460 278 q 444 132 460 194 q 388 35 429 69 q 271 0 347 0 l 271 0 l 206 0 l 206 -91 z m 206 727 l 206 536 l 241 536 q 272 554 265 536 q 279 599 279 573 l 279 599 l 279 685 q 242 727 279 727 l 242 727 l 206 727 z m 223 151 l 223 151 q 290 215 290 151 l 290 215 l 290 322 q 279 380 290 359 q 238 401 268 401 l 238 401 l 206 401 l 206 152 q 223 151 217 151 z"},"Ɓ":{"ha":648,"x_min":5,"x_max":1290,"o":"m 441 0 l 208 0 l 208 727 q 152 652 152 727 l 152 652 l 152 611 l 2 611 l 2 641 q 25 754 2 705 q 94 831 48 803 q 208 859 139 859 l 208 859 l 441 859 q 577 814 535 859 q 620 663 620 768 l 620 663 l 620 625 q 598 527 620 565 q 532 478 577 490 l 532 478 q 610 409 590 463 q 630 278 630 355 l 630 278 q 614 132 630 194 q 558 35 599 69 q 441 0 517 0 l 441 0 z m 376 727 l 376 536 l 411 536 q 442 554 435 536 q 449 599 449 573 l 449 599 l 449 685 q 412 727 449 727 l 412 727 l 376 727 z m 393 151 l 393 151 q 460 215 460 151 l 460 215 l 460 322 q 449 380 460 359 q 408 401 438 401 l 408 401 l 376 401 l 376 152 q 393 151 387 151 z"},"Ḇ":{"ha":479,"x_min":78,"x_max":942,"o":"m 271 0 l 38 0 l 38 859 l 271 859 q 407 814 365 859 q 450 663 450 768 l 450 663 l 450 625 q 428 527 450 565 q 362 478 407 490 l 362 478 q 440 409 420 463 q 460 278 460 355 l 460 278 q 444 132 460 194 q 388 35 429 69 q 271 0 347 0 l 271 0 z m 206 727 l 206 536 l 241 536 q 272 554 265 536 q 279 599 279 573 l 279 599 l 279 685 q 242 727 279 727 l 242 727 l 206 727 z m 223 151 l 223 151 q 290 215 290 151 l 290 215 l 290 322 q 279 380 290 359 q 238 401 268 401 l 238 401 l 206 401 l 206 152 q 223 151 217 151 z m 379 -133 l 62 -133 l 62 -58 l 379 -58 l 379 -133 z"},"Ƀ":{"ha":479,"x_min":0,"x_max":942,"o":"m 271 0 l 38 0 l 38 221 l 0 221 l 0 334 l 38 334 l 38 859 l 271 859 q 407 814 365 859 q 450 663 450 768 l 450 663 l 450 625 q 428 527 450 565 q 362 478 407 490 l 362 478 q 440 409 420 463 q 460 278 460 355 l 460 278 q 444 132 460 194 q 388 35 429 69 q 271 0 347 0 l 271 0 z m 206 727 l 206 536 l 241 536 q 272 554 265 536 q 279 599 279 573 l 279 599 l 279 685 q 242 727 279 727 l 242 727 l 206 727 z m 223 151 l 223 151 q 290 215 290 151 l 290 215 l 290 322 q 279 380 290 359 q 238 401 268 401 l 238 401 l 206 401 l 206 334 l 252 334 l 252 221 l 206 221 l 206 152 q 223 151 217 151 z"},"C":{"ha":474,"x_min":64,"x_max":932,"o":"m 238 -8 l 238 -8 q 88 50 145 -8 q 31 213 31 108 l 31 213 l 31 609 q 81 801 31 734 q 242 867 130 867 l 242 867 q 351 845 303 867 q 426 778 398 822 q 453 665 453 733 l 453 665 l 453 517 l 282 517 l 282 644 q 272 696 282 682 q 242 709 263 709 l 242 709 q 210 692 218 709 q 202 646 202 674 l 202 646 l 202 215 q 212 165 202 180 q 242 150 223 150 l 242 150 q 273 168 264 150 q 282 215 282 187 l 282 215 l 282 370 l 455 370 l 455 208 q 398 43 455 94 q 238 -8 341 -8 z"},"Ć":{"ha":474,"x_min":64,"x_max":932,"o":"m 238 -8 l 238 -8 q 88 50 145 -8 q 31 213 31 108 l 31 213 l 31 609 q 81 801 31 734 q 242 867 130 867 l 242 867 q 351 845 303 867 q 426 778 398 822 q 453 665 453 733 l 453 665 l 453 517 l 282 517 l 282 644 q 272 696 282 682 q 242 709 263 709 l 242 709 q 210 692 218 709 q 202 646 202 674 l 202 646 l 202 215 q 212 165 202 180 q 242 150 223 150 l 242 150 q 273 168 264 150 q 282 215 282 187 l 282 215 l 282 370 l 455 370 l 455 208 q 398 43 455 94 q 238 -8 341 -8 z m 358 931 l 126 885 l 126 994 l 358 1101 l 358 931 z"},"Č":{"ha":474,"x_min":51,"x_max":941,"o":"m 238 -8 l 238 -8 q 88 50 145 -8 q 31 213 31 108 l 31 213 l 31 609 q 81 801 31 734 q 242 867 130 867 l 242 867 q 351 845 303 867 q 426 778 398 822 q 453 665 453 733 l 453 665 l 453 517 l 282 517 l 282 644 q 272 696 282 682 q 242 709 263 709 l 242 709 q 210 692 218 709 q 202 646 202 674 l 202 646 l 202 215 q 212 165 202 180 q 242 150 223 150 l 242 150 q 273 168 264 150 q 282 215 282 187 l 282 215 l 282 370 l 455 370 l 455 208 q 398 43 455 94 q 238 -8 341 -8 z m 342 904 l 143 904 l 25 1101 l 200 1101 l 242 961 l 284 1101 l 459 1101 l 342 904 z"},"Ç":{"ha":474,"x_min":64,"x_max":932,"o":"m 238 -8 l 238 -8 q 88 50 145 -8 q 31 213 31 108 l 31 213 l 31 609 q 81 801 31 734 q 242 867 130 867 l 242 867 q 351 845 303 867 q 426 778 398 822 q 453 665 453 733 l 453 665 l 453 517 l 282 517 l 282 644 q 272 696 282 682 q 242 709 263 709 l 242 709 q 210 692 218 709 q 202 646 202 674 l 202 646 l 202 215 q 212 165 202 180 q 242 150 223 150 l 242 150 q 273 168 264 150 q 282 215 282 187 l 282 215 l 282 370 l 455 370 l 455 208 q 398 43 455 94 q 238 -8 341 -8 z m 226 -308 l 226 -308 q 129 -289 176 -308 l 129 -289 l 129 -180 q 159 -188 145 -185 q 187 -191 174 -191 l 187 -191 q 228 -178 211 -191 q 244 -133 244 -165 l 244 -133 q 231 -71 244 -106 q 193 0 217 -36 l 193 0 l 272 0 q 345 -93 319 -42 q 372 -189 372 -144 l 372 -189 q 337 -274 372 -239 q 226 -308 302 -308 z"},"Ḉ":{"ha":474,"x_min":64,"x_max":932,"o":"m 238 -8 l 238 -8 q 88 50 145 -8 q 31 213 31 108 l 31 213 l 31 609 q 81 801 31 734 q 242 867 130 867 l 242 867 q 351 845 303 867 q 426 778 398 822 q 453 665 453 733 l 453 665 l 453 517 l 282 517 l 282 644 q 272 696 282 682 q 242 709 263 709 l 242 709 q 210 692 218 709 q 202 646 202 674 l 202 646 l 202 215 q 212 165 202 180 q 242 150 223 150 l 242 150 q 273 168 264 150 q 282 215 282 187 l 282 215 l 282 370 l 455 370 l 455 208 q 398 43 455 94 q 238 -8 341 -8 z m 226 -308 l 226 -308 q 129 -289 176 -308 l 129 -289 l 129 -180 q 159 -188 145 -185 q 187 -191 174 -191 l 187 -191 q 228 -178 211 -191 q 244 -133 244 -165 l 244 -133 q 231 -71 244 -106 q 193 0 217 -36 l 193 0 l 272 0 q 345 -93 319 -42 q 372 -189 372 -144 l 372 -189 q 337 -274 372 -239 q 226 -308 302 -308 z m 358 931 l 126 885 l 126 994 l 358 1101 l 358 931 z"},"Ĉ":{"ha":474,"x_min":51,"x_max":941,"o":"m 238 -8 l 238 -8 q 88 50 145 -8 q 31 213 31 108 l 31 213 l 31 609 q 81 801 31 734 q 242 867 130 867 l 242 867 q 351 845 303 867 q 426 778 398 822 q 453 665 453 733 l 453 665 l 453 517 l 282 517 l 282 644 q 272 696 282 682 q 242 709 263 709 l 242 709 q 210 692 218 709 q 202 646 202 674 l 202 646 l 202 215 q 212 165 202 180 q 242 150 223 150 l 242 150 q 273 168 264 150 q 282 215 282 187 l 282 215 l 282 370 l 455 370 l 455 208 q 398 43 455 94 q 238 -8 341 -8 z m 200 904 l 25 904 l 143 1101 l 342 1101 l 459 904 l 284 904 l 242 1043 l 200 904 z"},"Ċ":{"ha":474,"x_min":64,"x_max":932,"o":"m 238 -8 l 238 -8 q 88 50 145 -8 q 31 213 31 108 l 31 213 l 31 609 q 81 801 31 734 q 242 867 130 867 l 242 867 q 351 845 303 867 q 426 778 398 822 q 453 665 453 733 l 453 665 l 453 517 l 282 517 l 282 644 q 272 696 282 682 q 242 709 263 709 l 242 709 q 210 692 218 709 q 202 646 202 674 l 202 646 l 202 215 q 212 165 202 180 q 242 150 223 150 l 242 150 q 273 168 264 150 q 282 215 282 187 l 282 215 l 282 370 l 455 370 l 455 208 q 398 43 455 94 q 238 -8 341 -8 z m 330 904 l 155 904 l 155 1050 l 330 1050 l 330 904 z"},"Ꭓ":{"ha":495,"x_min":27,"x_max":987,"o":"m 482 41 l 482 -99 q 332 -59 379 -99 q 273 65 285 -20 l 273 65 l 243 279 l 189 -91 l 18 -91 l 108 412 l 70 655 q 55 710 64 693 q 13 727 46 727 l 13 727 l 13 866 q 163 827 116 866 q 222 702 211 788 l 222 702 l 245 533 l 283 859 l 448 859 l 375 412 l 429 113 q 446 58 436 75 q 482 41 457 41 l 482 41 z"},"Ƈ":{"ha":515,"x_min":64,"x_max":1064,"o":"m 238 -8 l 238 -8 q 88 50 145 -8 q 31 213 31 108 l 31 213 l 31 609 q 80 801 31 734 q 237 867 129 867 l 237 867 q 331 841 291 867 l 331 841 q 400 940 351 903 q 520 977 449 977 l 520 977 l 520 822 q 469 806 486 822 q 453 748 453 791 l 453 748 l 453 517 l 282 517 l 282 644 q 272 696 282 682 q 242 709 263 709 l 242 709 q 210 692 218 709 q 202 646 202 674 l 202 646 l 202 215 q 212 165 202 180 q 242 150 223 150 l 242 150 q 273 168 264 150 q 282 215 282 187 l 282 215 l 282 370 l 455 370 l 455 208 q 398 43 455 94 q 238 -8 341 -8 z"},"Ȼ":{"ha":474,"x_min":64,"x_max":932,"o":"m 147 -91 l 79 -91 l 110 31 q 52 105 73 59 q 31 213 31 151 l 31 213 l 31 609 q 81 801 31 734 q 242 867 130 867 l 242 867 q 325 855 287 867 l 325 855 l 356 977 l 424 977 l 385 824 q 435 759 417 799 q 453 665 453 719 l 453 665 l 453 517 l 282 517 l 282 644 q 272 696 282 682 q 242 709 263 709 l 242 709 q 210 692 218 709 q 202 646 202 674 l 202 646 l 202 215 q 212 165 202 180 q 242 150 223 150 l 242 150 q 273 168 264 150 q 282 215 282 187 l 282 215 l 282 370 l 455 370 l 455 208 q 398 43 455 94 q 238 -8 341 -8 l 238 -8 q 171 1 202 -8 l 171 1 l 147 -91 z"},"D":{"ha":493,"x_min":78,"x_max":944,"o":"m 269 0 l 38 0 l 38 859 l 274 859 q 414 808 367 859 q 461 657 461 756 l 461 657 l 461 255 q 418 66 461 133 q 269 0 375 0 l 269 0 z m 211 709 l 211 152 l 241 152 q 288 198 288 152 l 288 198 l 288 641 q 277 697 288 684 q 230 709 265 709 l 230 709 l 211 709 z"},"Ǳ":{"ha":903,"x_min":78,"x_max":1816,"o":"m 269 0 l 38 0 l 38 859 l 274 859 q 414 808 367 859 q 461 657 461 756 l 461 657 l 461 255 q 418 66 461 133 q 269 0 375 0 l 269 0 z m 211 709 l 211 152 l 241 152 q 288 198 288 152 l 288 198 l 288 641 q 277 697 288 684 q 230 709 265 709 l 230 709 l 211 709 z m 878 0 l 509 0 l 509 156 l 706 701 l 528 701 l 528 859 l 887 859 l 887 709 l 687 158 l 878 158 l 878 0 z"},"Ǆ":{"ha":903,"x_min":78,"x_max":1894,"o":"m 269 0 l 38 0 l 38 859 l 274 859 q 414 808 367 859 q 461 657 461 756 l 461 657 l 461 255 q 418 66 461 133 q 269 0 375 0 l 269 0 z m 211 709 l 211 152 l 241 152 q 288 198 288 152 l 288 198 l 288 641 q 277 697 288 684 q 230 709 265 709 l 230 709 l 211 709 z m 878 0 l 509 0 l 509 156 l 706 701 l 528 701 l 528 859 l 887 859 l 887 709 l 687 158 l 878 158 l 878 0 z m 807 904 l 608 904 l 490 1101 l 666 1101 l 708 961 l 750 1101 l 925 1101 l 807 904 z"},"Ɖ":{"ha":493,"x_min":3,"x_max":944,"o":"m 269 0 l 38 0 l 38 393 l 1 393 l 1 506 l 38 506 l 38 859 l 274 859 q 414 808 367 859 q 461 657 461 756 l 461 657 l 461 255 q 418 66 461 133 q 269 0 375 0 l 269 0 z m 211 393 l 211 152 l 241 152 q 288 198 288 152 l 288 198 l 288 641 q 277 697 288 684 q 230 709 265 709 l 230 709 l 211 709 l 211 506 l 253 506 l 253 393 l 211 393 z"},"Ď":{"ha":493,"x_min":59,"x_max":949,"o":"m 269 0 l 38 0 l 38 859 l 274 859 q 414 808 367 859 q 461 657 461 756 l 461 657 l 461 255 q 418 66 461 133 q 269 0 375 0 l 269 0 z m 211 709 l 211 152 l 241 152 q 288 198 288 152 l 288 198 l 288 641 q 277 697 288 684 q 230 709 265 709 l 230 709 l 211 709 z m 346 904 l 146 904 l 29 1101 l 204 1101 l 246 961 l 288 1101 l 463 1101 l 346 904 z"},"Ḑ":{"ha":493,"x_min":78,"x_max":944,"o":"m 269 0 l 38 0 l 38 859 l 274 859 q 414 808 367 859 q 461 657 461 756 l 461 657 l 461 255 q 418 66 461 133 q 269 0 375 0 l 269 0 z m 211 709 l 211 152 l 241 152 q 288 198 288 152 l 288 198 l 288 641 q 277 697 288 684 q 230 709 265 709 l 230 709 l 211 709 z m 282 -314 l 179 -314 l 211 -199 l 149 -199 l 149 -53 l 332 -53 l 332 -194 l 282 -314 z"},"Ḓ":{"ha":493,"x_min":60,"x_max":950,"o":"m 269 0 l 38 0 l 38 859 l 274 859 q 414 808 367 859 q 461 657 461 756 l 461 657 l 461 255 q 418 66 461 133 q 269 0 375 0 l 269 0 z m 211 709 l 211 152 l 241 152 q 288 198 288 152 l 288 198 l 288 641 q 277 697 288 684 q 230 709 265 709 l 230 709 l 211 709 z m 205 -250 l 29 -250 l 147 -53 l 346 -53 l 464 -250 l 289 -250 l 247 -111 l 205 -250 z"},"Đ":{"ha":493,"x_min":3,"x_max":944,"o":"m 269 0 l 38 0 l 38 393 l 1 393 l 1 506 l 38 506 l 38 859 l 274 859 q 414 808 367 859 q 461 657 461 756 l 461 657 l 461 255 q 418 66 461 133 q 269 0 375 0 l 269 0 z m 211 393 l 211 152 l 241 152 q 288 198 288 152 l 288 198 l 288 641 q 277 697 288 684 q 230 709 265 709 l 230 709 l 211 709 l 211 506 l 253 506 l 253 393 l 211 393 z"},"Ḋ":{"ha":493,"x_min":78,"x_max":944,"o":"m 269 0 l 38 0 l 38 859 l 274 859 q 414 808 367 859 q 461 657 461 756 l 461 657 l 461 255 q 418 66 461 133 q 269 0 375 0 l 269 0 z m 211 709 l 211 152 l 241 152 q 288 198 288 152 l 288 198 l 288 641 q 277 697 288 684 q 230 709 265 709 l 230 709 l 211 709 z m 333 904 l 159 904 l 159 1050 l 333 1050 l 333 904 z"},"Ḍ":{"ha":493,"x_min":78,"x_max":944,"o":"m 269 0 l 38 0 l 38 859 l 274 859 q 414 808 367 859 q 461 657 461 756 l 461 657 l 461 255 q 418 66 461 133 q 269 0 375 0 l 269 0 z m 211 709 l 211 152 l 241 152 q 288 198 288 152 l 288 198 l 288 641 q 277 697 288 684 q 230 709 265 709 l 230 709 l 211 709 z m 334 -204 l 159 -204 l 159 -58 l 334 -58 l 334 -204 z"},"Δ":{"ha":539,"x_min":30,"x_max":1073,"o":"m 524 0 l 15 0 l 146 859 l 389 859 l 524 0 z m 251 762 l 175 110 l 326 110 l 259 762 l 251 762 z"},"Ɗ":{"ha":664,"x_min":5,"x_max":1293,"o":"m 439 0 l 208 0 l 208 709 q 152 641 152 709 l 152 641 l 152 611 l 2 611 l 2 641 q 54 798 2 737 q 208 859 105 859 l 208 859 l 445 859 q 584 808 538 859 q 631 657 631 756 l 631 657 l 631 255 q 589 66 631 133 q 439 0 546 0 l 439 0 z m 381 709 l 381 152 l 411 152 q 458 198 458 152 l 458 198 l 458 641 q 447 697 458 684 q 400 709 436 709 l 400 709 l 381 709 z"},"Ḏ":{"ha":493,"x_min":78,"x_max":944,"o":"m 269 0 l 38 0 l 38 859 l 274 859 q 414 808 367 859 q 461 657 461 756 l 461 657 l 461 255 q 418 66 461 133 q 269 0 375 0 l 269 0 z m 211 709 l 211 152 l 241 152 q 288 198 288 152 l 288 198 l 288 641 q 277 697 288 684 q 230 709 265 709 l 230 709 l 211 709 z m 405 -133 l 88 -133 l 88 -58 l 405 -58 l 405 -133 z"},"ǲ":{"ha":879,"x_min":78,"x_max":1786,"o":"m 269 0 l 38 0 l 38 859 l 274 859 q 414 808 367 859 q 461 657 461 756 l 461 657 l 461 255 q 418 66 461 133 q 269 0 375 0 l 269 0 z m 211 709 l 211 152 l 241 152 q 288 198 288 152 l 288 198 l 288 641 q 277 697 288 684 q 230 709 265 709 l 230 709 l 211 709 z m 872 0 l 507 0 l 507 107 l 689 594 l 516 594 l 516 732 l 871 732 l 871 613 l 698 131 l 872 131 l 872 0 z"},"ǅ":{"ha":879,"x_min":78,"x_max":1891,"o":"m 269 0 l 38 0 l 38 859 l 274 859 q 414 808 367 859 q 461 657 461 756 l 461 657 l 461 255 q 418 66 461 133 q 269 0 375 0 l 269 0 z m 211 709 l 211 152 l 241 152 q 288 198 288 152 l 288 198 l 288 641 q 277 697 288 684 q 230 709 265 709 l 230 709 l 211 709 z m 872 0 l 507 0 l 507 107 l 689 594 l 516 594 l 516 732 l 871 732 l 871 613 l 698 131 l 872 131 l 872 0 z m 806 777 l 606 777 l 489 974 l 664 974 l 706 834 l 748 974 l 923 974 l 806 777 z"},"E":{"ha":412,"x_min":78,"x_max":805,"o":"m 393 0 l 38 0 l 38 859 l 382 859 l 382 693 l 213 693 l 213 526 l 375 526 l 375 364 l 213 364 l 213 167 l 393 167 l 393 0 z"},"É":{"ha":412,"x_min":78,"x_max":805,"o":"m 393 0 l 38 0 l 38 859 l 382 859 l 382 693 l 213 693 l 213 526 l 375 526 l 375 364 l 213 364 l 213 167 l 393 167 l 393 0 z m 333 931 l 101 885 l 101 994 l 333 1101 l 333 931 z"},"Ĕ":{"ha":412,"x_min":55,"x_max":842,"o":"m 393 0 l 38 0 l 38 859 l 382 859 l 382 693 l 213 693 l 213 526 l 375 526 l 375 364 l 213 364 l 213 167 l 393 167 l 393 0 z m 218 904 l 218 904 q 80 940 133 904 q 27 1056 27 977 l 27 1056 q 28 1077 27 1066 l 28 1077 l 153 1077 q 167 1034 153 1049 q 219 1020 182 1020 l 219 1020 q 271 1034 257 1020 q 285 1077 285 1049 l 285 1077 l 410 1077 q 411 1067 411 1072 q 411 1060 411 1062 l 411 1060 q 359 941 411 978 q 218 904 306 904 z"},"Ě":{"ha":412,"x_min":-1,"x_max":889,"o":"m 393 0 l 38 0 l 38 859 l 382 859 l 382 693 l 213 693 l 213 526 l 375 526 l 375 364 l 213 364 l 213 167 l 393 167 l 393 0 z m 316 904 l 117 904 l 0 1101 l 175 1101 l 217 961 l 259 1101 l 434 1101 l 316 904 z"},"Ȩ":{"ha":412,"x_min":78,"x_max":805,"o":"m 393 0 l 38 0 l 38 859 l 382 859 l 382 693 l 213 693 l 213 526 l 375 526 l 375 364 l 213 364 l 213 167 l 393 167 l 393 0 z m 198 -308 l 198 -308 q 101 -289 147 -308 l 101 -289 l 101 -180 q 131 -188 116 -185 q 159 -191 146 -191 l 159 -191 q 199 -178 183 -191 q 216 -133 216 -165 l 216 -133 q 202 -71 216 -106 q 165 0 189 -36 l 165 0 l 244 0 q 317 -93 291 -42 q 343 -189 343 -144 l 343 -189 q 309 -274 343 -239 q 198 -308 274 -308 z"},"Ḝ":{"ha":412,"x_min":42,"x_max":829,"o":"m 393 0 l 38 0 l 38 859 l 382 859 l 382 693 l 213 693 l 213 526 l 375 526 l 375 364 l 213 364 l 213 167 l 393 167 l 393 0 z m 198 -308 l 198 -308 q 101 -289 147 -308 l 101 -289 l 101 -180 q 131 -188 116 -185 q 159 -191 146 -191 l 159 -191 q 199 -178 183 -191 q 216 -133 216 -165 l 216 -133 q 202 -71 216 -106 q 165 0 189 -36 l 165 0 l 244 0 q 317 -93 291 -42 q 343 -189 343 -144 l 343 -189 q 309 -274 343 -239 q 198 -308 274 -308 z m 212 904 l 212 904 q 73 940 126 904 q 21 1056 21 977 l 21 1056 q 22 1077 21 1066 l 22 1077 l 147 1077 q 161 1034 147 1049 q 213 1020 175 1020 l 213 1020 q 265 1034 250 1020 q 279 1077 279 1049 l 279 1077 l 404 1077 q 405 1067 404 1072 q 405 1060 405 1062 l 405 1060 q 352 941 405 978 q 212 904 300 904 z"},"Ê":{"ha":412,"x_min":-1,"x_max":889,"o":"m 393 0 l 38 0 l 38 859 l 382 859 l 382 693 l 213 693 l 213 526 l 375 526 l 375 364 l 213 364 l 213 167 l 393 167 l 393 0 z m 175 904 l 0 904 l 117 1101 l 316 1101 l 434 904 l 259 904 l 217 1043 l 175 904 z"},"Ế":{"ha":412,"x_min":51,"x_max":1145,"o":"m 393 0 l 38 0 l 38 859 l 382 859 l 382 693 l 213 693 l 213 526 l 375 526 l 375 364 l 213 364 l 213 167 l 393 167 l 393 0 z m 467 977 l 354 977 l 409 1076 l 559 1076 l 467 977 z m 164 898 l 25 898 l 141 1022 l 284 1022 l 400 898 l 261 898 l 212 964 l 164 898 z"},"Ḙ":{"ha":412,"x_min":-3,"x_max":887,"o":"m 393 0 l 38 0 l 38 859 l 382 859 l 382 693 l 213 693 l 213 526 l 375 526 l 375 364 l 213 364 l 213 167 l 393 167 l 393 0 z m 174 -250 l -1 -250 l 116 -53 l 315 -53 l 433 -250 l 258 -250 l 216 -111 l 174 -250 z"},"Ệ":{"ha":412,"x_min":-10,"x_max":880,"o":"m 393 0 l 38 0 l 38 859 l 382 859 l 382 693 l 213 693 l 213 526 l 375 526 l 375 364 l 213 364 l 213 167 l 393 167 l 393 0 z m 303 -204 l 128 -204 l 128 -58 l 303 -58 l 303 -204 z m 170 909 l -5 909 l 113 1071 l 312 1071 l 430 909 l 254 909 l 212 1014 l 170 909 z"},"Ề":{"ha":412,"x_min":51,"x_max":1024,"o":"m 393 0 l 38 0 l 38 859 l 382 859 l 382 693 l 213 693 l 213 526 l 375 526 l 375 364 l 213 364 l 213 167 l 393 167 l 393 0 z m 500 977 l 386 977 l 294 1076 l 444 1076 l 500 977 z m 164 898 l 25 898 l 141 1022 l 284 1022 l 400 898 l 261 898 l 212 964 l 164 898 z"},"Ể":{"ha":412,"x_min":51,"x_max":974,"o":"m 393 0 l 38 0 l 38 859 l 382 859 l 382 693 l 213 693 l 213 526 l 375 526 l 375 364 l 213 364 l 213 167 l 393 167 l 393 0 z m 393 957 l 393 957 l 361 994 q 387 1010 377 1000 q 397 1034 397 1019 l 397 1034 q 367 1063 397 1063 l 367 1063 q 339 1058 353 1063 l 339 1058 l 339 1112 q 395 1123 367 1123 l 395 1123 q 454 1104 433 1123 q 476 1050 476 1084 l 476 1050 q 452 990 476 1012 q 393 957 428 968 z m 164 898 l 25 898 l 141 1022 l 284 1022 l 400 898 l 261 898 l 212 964 l 164 898 z"},"Ễ":{"ha":412,"x_min":51,"x_max":819,"o":"m 393 0 l 38 0 l 38 859 l 382 859 l 382 693 l 213 693 l 213 526 l 375 526 l 375 364 l 213 364 l 213 167 l 393 167 l 393 0 z m 271 1046 l 271 1046 q 230 1054 249 1046 q 192 1071 210 1063 q 154 1079 174 1079 l 154 1079 q 132 1074 143 1079 q 113 1054 122 1068 l 113 1054 l 59 1083 q 89 1137 72 1114 q 144 1160 107 1160 l 144 1160 q 186 1151 167 1160 q 223 1135 205 1143 q 260 1126 241 1126 l 260 1126 q 301 1154 285 1126 l 301 1154 l 362 1134 q 331 1073 349 1100 q 271 1046 313 1046 z m 164 898 l 25 898 l 141 1022 l 284 1022 l 400 898 l 261 898 l 212 964 l 164 898 z"},"Ȅ":{"ha":412,"x_min":-42,"x_max":805,"o":"m 393 0 l 38 0 l 38 859 l 382 859 l 382 693 l 213 693 l 213 526 l 375 526 l 375 364 l 213 364 l 213 167 l 393 167 l 393 0 z m 202 930 l 121 901 l -21 1111 l 94 1164 l 202 930 z m 349 930 l 268 901 l 147 1111 l 259 1164 l 349 930 z"},"Ë":{"ha":412,"x_min":16,"x_max":858,"o":"m 393 0 l 38 0 l 38 859 l 382 859 l 382 693 l 213 693 l 213 526 l 375 526 l 375 364 l 213 364 l 213 167 l 393 167 l 393 0 z m 419 908 l 244 908 l 244 1053 l 419 1053 l 419 908 z m 183 908 l 8 908 l 8 1053 l 183 1053 l 183 908 z"},"Ė":{"ha":412,"x_min":78,"x_max":805,"o":"m 393 0 l 38 0 l 38 859 l 382 859 l 382 693 l 213 693 l 213 526 l 375 526 l 375 364 l 213 364 l 213 167 l 393 167 l 393 0 z m 304 904 l 129 904 l 129 1050 l 304 1050 l 304 904 z"},"Ẹ":{"ha":412,"x_min":78,"x_max":805,"o":"m 393 0 l 38 0 l 38 859 l 382 859 l 382 693 l 213 693 l 213 526 l 375 526 l 375 364 l 213 364 l 213 167 l 393 167 l 393 0 z m 303 -204 l 128 -204 l 128 -58 l 303 -58 l 303 -204 z"},"È":{"ha":412,"x_min":78,"x_max":805,"o":"m 393 0 l 38 0 l 38 859 l 382 859 l 382 693 l 213 693 l 213 526 l 375 526 l 375 364 l 213 364 l 213 167 l 393 167 l 393 0 z m 333 994 l 333 885 l 101 931 l 101 1101 l 333 994 z"},"Ẻ":{"ha":412,"x_min":78,"x_max":805,"o":"m 393 0 l 38 0 l 38 859 l 382 859 l 382 693 l 213 693 l 213 526 l 375 526 l 375 364 l 213 364 l 213 167 l 393 167 l 393 0 z m 198 897 l 198 897 l 146 958 q 189 982 173 967 q 205 1021 205 997 l 205 1021 q 156 1067 205 1067 l 156 1067 q 112 1060 133 1067 l 112 1060 l 112 1147 q 201 1164 155 1164 l 201 1164 q 297 1133 262 1164 q 331 1047 331 1103 l 331 1047 q 293 950 331 985 q 198 897 255 915 z"},"Ȇ":{"ha":412,"x_min":70,"x_max":817,"o":"m 393 0 l 38 0 l 38 859 l 382 859 l 382 693 l 213 693 l 213 526 l 375 526 l 375 364 l 213 364 l 213 167 l 393 167 l 393 0 z m 151 912 l 36 912 q 34 932 34 922 l 34 932 q 82 1048 34 1012 q 216 1084 130 1084 l 216 1084 q 351 1047 304 1084 q 399 929 399 1010 l 399 929 q 399 922 399 926 q 398 912 398 917 l 398 912 l 283 912 q 264 961 283 945 q 217 978 246 978 l 217 978 q 170 961 188 978 q 151 912 151 945 l 151 912 z"},"Ē":{"ha":412,"x_min":78,"x_max":805,"o":"m 393 0 l 38 0 l 38 859 l 382 859 l 382 693 l 213 693 l 213 526 l 375 526 l 375 364 l 213 364 l 213 167 l 393 167 l 393 0 z m 364 917 l 47 917 l 47 992 l 364 992 l 364 917 z"},"Ḗ":{"ha":412,"x_min":78,"x_max":805,"o":"m 393 0 l 38 0 l 38 859 l 382 859 l 382 693 l 213 693 l 213 526 l 375 526 l 375 364 l 213 364 l 213 167 l 393 167 l 393 0 z m 371 888 l 54 888 l 54 963 l 371 963 l 371 888 z m 332 1022 l 100 986 l 100 1081 l 332 1163 l 332 1022 z"},"Ḕ":{"ha":412,"x_min":78,"x_max":805,"o":"m 393 0 l 38 0 l 38 859 l 382 859 l 382 693 l 213 693 l 213 526 l 375 526 l 375 364 l 213 364 l 213 167 l 393 167 l 393 0 z m 371 888 l 54 888 l 54 963 l 371 963 l 371 888 z m 332 1080 l 332 986 l 100 1022 l 100 1162 l 332 1080 z"},"Ŋ":{"ha":491,"x_min":78,"x_max":942,"o":"m 218 -238 l 218 -238 l 218 -91 q 282 -15 282 -91 l 282 -15 l 282 51 l 206 430 l 206 0 l 38 0 l 38 859 l 215 859 l 294 448 l 294 859 l 460 859 l 460 -4 q 397 -179 460 -120 q 218 -238 333 -238 z"},"Ę":{"ha":412,"x_min":78,"x_max":805,"o":"m 393 0 l 38 0 l 38 859 l 382 859 l 382 693 l 213 693 l 213 526 l 375 526 l 375 364 l 213 364 l 213 167 l 393 167 l 393 0 z m 226 -308 l 226 -308 q 141 -291 179 -308 q 79 -240 102 -273 q 56 -161 56 -207 l 56 -161 q 185 0 56 -72 l 185 0 l 288 0 q 235 -62 260 -28 q 209 -136 209 -96 l 209 -136 q 266 -191 209 -191 l 266 -191 q 322 -180 290 -191 l 322 -180 l 322 -289 q 226 -308 276 -308 z"},"Ɛ":{"ha":494,"x_min":39,"x_max":961,"o":"m 252 -10 l 252 -10 q 73 60 127 -10 q 19 259 19 130 l 19 259 q 24 351 19 313 q 47 417 30 390 q 102 461 65 444 l 102 461 q 38 521 56 478 q 21 632 21 563 l 21 632 q 241 861 21 861 l 241 861 q 409 806 354 861 q 464 632 464 750 l 464 632 l 464 602 l 286 602 l 286 628 q 280 681 286 659 q 246 703 274 703 l 246 703 q 198 630 198 703 l 198 630 q 224 560 198 582 q 292 539 250 539 l 292 539 l 323 539 l 323 384 l 272 384 q 214 352 229 384 q 199 274 199 319 l 199 274 l 199 259 q 201 206 199 231 q 214 165 204 181 q 247 149 224 149 l 247 149 q 286 173 279 149 q 293 231 293 197 l 293 231 l 293 321 l 469 321 l 469 231 q 417 50 469 110 q 252 -10 366 -10 z"},"Ǝ":{"ha":412,"x_min":38,"x_max":765,"o":"m 374 859 l 374 0 l 19 0 l 19 167 l 199 167 l 199 364 l 37 364 l 37 526 l 199 526 l 199 693 l 30 693 l 30 859 l 374 859 z"},"Ʃ":{"ha":408,"x_min":62,"x_max":795,"o":"m 388 0 l 30 0 l 30 131 l 180 431 l 30 710 l 30 859 l 380 859 l 380 693 l 214 693 l 343 452 l 343 415 l 219 167 l 388 167 l 388 0 z"},"Ɇ":{"ha":412,"x_min":78,"x_max":809,"o":"m 73 0 l 38 0 l 38 859 l 296 859 l 327 977 l 395 977 l 365 859 l 382 859 l 382 693 l 213 693 l 213 526 l 375 526 l 375 364 l 213 364 l 213 167 l 393 167 l 393 0 l 141 0 l 118 -91 l 49 -91 l 73 0 z"},"Ð":{"ha":493,"x_min":3,"x_max":944,"o":"m 269 0 l 38 0 l 38 393 l 1 393 l 1 506 l 38 506 l 38 859 l 274 859 q 414 808 367 859 q 461 657 461 756 l 461 657 l 461 255 q 418 66 461 133 q 269 0 375 0 l 269 0 z m 211 393 l 211 152 l 241 152 q 288 198 288 152 l 288 198 l 288 641 q 277 697 288 684 q 230 709 265 709 l 230 709 l 211 709 l 211 506 l 253 506 l 253 393 l 211 393 z"},"Ẽ":{"ha":412,"x_min":31,"x_max":857,"o":"m 393 0 l 38 0 l 38 859 l 382 859 l 382 693 l 213 693 l 213 526 l 375 526 l 375 364 l 213 364 l 213 167 l 393 167 l 393 0 z m 297 914 l 297 914 q 231 925 260 914 q 178 947 202 936 q 132 958 155 958 l 132 958 q 108 951 120 958 q 87 925 97 943 l 87 925 l 15 963 q 42 1017 27 993 q 79 1057 56 1042 q 136 1072 101 1072 l 136 1072 q 200 1062 172 1072 q 250 1041 228 1051 q 292 1031 273 1031 l 292 1031 q 316 1039 305 1031 q 337 1067 328 1047 l 337 1067 l 418 1041 q 393 979 407 1008 q 356 932 378 950 q 297 914 334 914 z"},"Ḛ":{"ha":412,"x_min":29,"x_max":855,"o":"m 393 0 l 38 0 l 38 859 l 382 859 l 382 693 l 213 693 l 213 526 l 375 526 l 375 364 l 213 364 l 213 167 l 393 167 l 393 0 z m 296 -212 l 296 -212 q 230 -201 260 -212 q 176 -179 200 -190 q 131 -168 151 -168 l 131 -168 q 107 -175 119 -168 q 86 -201 96 -183 l 86 -201 l 14 -163 q 41 -109 26 -133 q 78 -69 55 -84 q 135 -54 100 -54 l 135 -54 q 198 -64 169 -54 q 249 -85 226 -75 q 291 -95 272 -95 l 291 -95 q 315 -87 304 -95 q 336 -59 327 -79 l 336 -59 l 417 -85 q 392 -147 406 -118 q 355 -194 377 -176 q 296 -212 333 -212 z"},"Ʒ":{"ha":494,"x_min":43,"x_max":961,"o":"m 237 -7 l 237 -7 q 73 52 125 -7 q 21 234 21 112 l 21 234 l 21 321 l 196 321 l 196 234 q 206 173 196 195 q 246 151 216 151 l 246 151 q 277 167 268 151 q 287 207 286 182 q 289 262 289 232 l 289 262 l 289 283 q 217 392 289 392 l 217 392 l 161 392 l 161 517 l 276 693 l 43 693 l 43 859 l 468 859 l 468 708 l 340 513 q 439 423 408 487 q 469 262 469 359 l 469 262 q 414 61 469 129 q 237 -7 359 -7 z"},"Ǯ":{"ha":494,"x_min":43,"x_max":971,"o":"m 237 -7 l 237 -7 q 73 52 125 -7 q 21 234 21 112 l 21 234 l 21 321 l 196 321 l 196 234 q 206 173 196 195 q 246 151 216 151 l 246 151 q 277 167 268 151 q 287 207 286 182 q 289 262 289 232 l 289 262 l 289 283 q 217 392 289 392 l 217 392 l 161 392 l 161 517 l 276 693 l 43 693 l 43 859 l 468 859 l 468 708 l 340 513 q 439 423 408 487 q 469 262 469 359 l 469 262 q 414 61 469 129 q 237 -7 359 -7 z m 157 909 l 40 1071 l 215 1071 l 257 966 l 299 1071 l 474 1071 l 356 909 l 157 909 z"},"Ƹ":{"ha":494,"x_min":51,"x_max":969,"o":"m 257 -7 l 257 -7 q 80 61 135 -7 q 25 262 25 129 l 25 262 q 55 423 25 359 q 154 513 86 487 l 154 513 l 26 708 l 26 859 l 451 859 l 451 693 l 218 693 l 333 517 l 333 392 l 277 392 q 205 283 205 392 l 205 283 l 205 262 q 207 207 205 232 q 218 167 208 182 q 248 151 227 151 l 248 151 q 288 173 278 151 q 298 234 298 195 l 298 234 l 298 321 l 473 321 l 473 234 q 421 52 473 112 q 257 -7 370 -7 z"},"F":{"ha":399,"x_min":78,"x_max":782,"o":"m 211 0 l 38 0 l 38 859 l 382 859 l 382 692 l 211 692 l 211 555 l 373 555 l 373 390 l 211 390 l 211 0 z"},"Ḟ":{"ha":399,"x_min":78,"x_max":782,"o":"m 211 0 l 38 0 l 38 859 l 382 859 l 382 692 l 211 692 l 211 555 l 373 555 l 373 390 l 211 390 l 211 0 z m 308 904 l 133 904 l 133 1050 l 308 1050 l 308 904 z"},"Ƒ":{"ha":399,"x_min":-22,"x_max":782,"o":"m -11 -96 l -11 -96 l -11 59 q 27 74 15 59 q 38 123 38 89 l 38 123 l 38 859 l 382 859 l 382 692 l 211 692 l 211 555 l 373 555 l 373 390 l 211 390 l 211 123 q 184 10 211 59 q 106 -68 156 -40 q -11 -96 57 -96 z"},"G":{"ha":485,"x_min":64,"x_max":936,"o":"m 215 -8 l 215 -8 q 31 256 31 -8 l 31 256 l 31 626 q 242 867 31 867 l 242 867 q 375 832 329 867 q 439 730 422 797 q 457 567 457 664 l 457 567 l 289 567 l 289 644 q 281 690 289 671 q 250 709 274 709 l 250 709 q 211 689 220 709 q 201 645 201 669 l 201 645 l 201 229 q 210 172 201 194 q 246 150 219 150 l 246 150 q 282 172 273 150 q 291 229 291 194 l 291 229 l 291 352 l 245 352 l 245 500 l 455 500 l 455 0 l 386 0 l 357 72 q 215 -8 312 -8 z"},"Ǵ":{"ha":485,"x_min":64,"x_max":936,"o":"m 215 -8 l 215 -8 q 31 256 31 -8 l 31 256 l 31 626 q 242 867 31 867 l 242 867 q 375 832 329 867 q 439 730 422 797 q 457 567 457 664 l 457 567 l 289 567 l 289 644 q 281 690 289 671 q 250 709 274 709 l 250 709 q 211 689 220 709 q 201 645 201 669 l 201 645 l 201 229 q 210 172 201 194 q 246 150 219 150 l 246 150 q 282 172 273 150 q 291 229 291 194 l 291 229 l 291 352 l 245 352 l 245 500 l 455 500 l 455 0 l 386 0 l 357 72 q 215 -8 312 -8 z m 357 931 l 125 885 l 125 994 l 357 1101 l 357 931 z"},"Ɣ":{"ha":469,"x_min":23,"x_max":937,"o":"m 234 -96 l 234 -96 q 133 -71 175 -96 q 70 -4 92 -47 q 48 92 48 39 l 48 92 q 63 196 48 139 q 98 312 78 252 l 98 312 l 133 413 l 11 860 l 176 860 l 234 577 l 292 860 l 458 860 l 336 417 l 376 312 q 409 196 398 253 q 420 92 420 139 l 420 92 q 399 -4 420 39 q 335 -71 377 -47 q 234 -96 294 -96 z m 234 50 l 234 50 q 261 63 252 50 q 271 94 271 76 l 271 94 q 262 162 271 128 q 234 247 253 195 l 234 247 q 207 162 216 195 q 198 94 198 128 l 198 94 q 207 63 198 76 q 234 50 216 50 z"},"Ğ":{"ha":485,"x_min":64,"x_max":936,"o":"m 215 -8 l 215 -8 q 31 256 31 -8 l 31 256 l 31 626 q 242 867 31 867 l 242 867 q 375 832 329 867 q 439 730 422 797 q 457 567 457 664 l 457 567 l 289 567 l 289 644 q 281 690 289 671 q 250 709 274 709 l 250 709 q 211 689 220 709 q 201 645 201 669 l 201 645 l 201 229 q 210 172 201 194 q 246 150 219 150 l 246 150 q 282 172 273 150 q 291 229 291 194 l 291 229 l 291 352 l 245 352 l 245 500 l 455 500 l 455 0 l 386 0 l 357 72 q 215 -8 312 -8 z m 243 904 l 243 904 q 105 940 158 904 q 52 1056 52 977 l 52 1056 q 53 1077 52 1066 l 53 1077 l 178 1077 q 192 1034 178 1049 q 244 1020 207 1020 l 244 1020 q 296 1034 282 1020 q 310 1077 310 1049 l 310 1077 l 435 1077 q 436 1067 436 1072 q 436 1060 436 1062 l 436 1060 q 384 941 436 978 q 243 904 331 904 z"},"Ǧ":{"ha":485,"x_min":50,"x_max":940,"o":"m 215 -8 l 215 -8 q 31 256 31 -8 l 31 256 l 31 626 q 242 867 31 867 l 242 867 q 375 832 329 867 q 439 730 422 797 q 457 567 457 664 l 457 567 l 289 567 l 289 644 q 281 690 289 671 q 250 709 274 709 l 250 709 q 211 689 220 709 q 201 645 201 669 l 201 645 l 201 229 q 210 172 201 194 q 246 150 219 150 l 246 150 q 282 172 273 150 q 291 229 291 194 l 291 229 l 291 352 l 245 352 l 245 500 l 455 500 l 455 0 l 386 0 l 357 72 q 215 -8 312 -8 z m 341 904 l 142 904 l 24 1101 l 200 1101 l 242 961 l 284 1101 l 459 1101 l 341 904 z"},"Ĝ":{"ha":485,"x_min":50,"x_max":940,"o":"m 215 -8 l 215 -8 q 31 256 31 -8 l 31 256 l 31 626 q 242 867 31 867 l 242 867 q 375 832 329 867 q 439 730 422 797 q 457 567 457 664 l 457 567 l 289 567 l 289 644 q 281 690 289 671 q 250 709 274 709 l 250 709 q 211 689 220 709 q 201 645 201 669 l 201 645 l 201 229 q 210 172 201 194 q 246 150 219 150 l 246 150 q 282 172 273 150 q 291 229 291 194 l 291 229 l 291 352 l 245 352 l 245 500 l 455 500 l 455 0 l 386 0 l 357 72 q 215 -8 312 -8 z m 200 904 l 24 904 l 142 1101 l 341 1101 l 459 904 l 284 904 l 242 1043 l 200 904 z"},"Ģ":{"ha":485,"x_min":64,"x_max":936,"o":"m 215 -8 l 215 -8 q 31 256 31 -8 l 31 256 l 31 626 q 242 867 31 867 l 242 867 q 375 832 329 867 q 439 730 422 797 q 457 567 457 664 l 457 567 l 289 567 l 289 644 q 281 690 289 671 q 250 709 274 709 l 250 709 q 211 689 220 709 q 201 645 201 669 l 201 645 l 201 229 q 210 172 201 194 q 246 150 219 150 l 246 150 q 282 172 273 150 q 291 229 291 194 l 291 229 l 291 352 l 245 352 l 245 500 l 455 500 l 455 0 l 386 0 l 357 72 q 215 -8 312 -8 z m 282 -314 l 179 -314 l 211 -199 l 149 -199 l 149 -53 l 332 -53 l 332 -194 l 282 -314 z"},"Ġ":{"ha":485,"x_min":64,"x_max":936,"o":"m 215 -8 l 215 -8 q 31 256 31 -8 l 31 256 l 31 626 q 242 867 31 867 l 242 867 q 375 832 329 867 q 439 730 422 797 q 457 567 457 664 l 457 567 l 289 567 l 289 644 q 281 690 289 671 q 250 709 274 709 l 250 709 q 211 689 220 709 q 201 645 201 669 l 201 645 l 201 229 q 210 172 201 194 q 246 150 219 150 l 246 150 q 282 172 273 150 q 291 229 291 194 l 291 229 l 291 352 l 245 352 l 245 500 l 455 500 l 455 0 l 386 0 l 357 72 q 215 -8 312 -8 z m 329 904 l 154 904 l 154 1050 l 329 1050 l 329 904 z"},"ẞ":{"ha":498,"x_min":58,"x_max":969,"o":"m 199 0 l 28 0 l 28 685 q 83 822 28 777 q 240 868 138 868 l 240 868 q 366 849 313 868 q 456 804 420 830 l 456 804 l 456 686 l 393 504 q 457 423 441 482 q 473 263 473 364 l 473 263 q 457 115 473 174 q 399 29 440 57 q 284 0 357 0 l 284 0 l 233 0 l 233 137 q 303 195 303 137 l 303 195 l 303 330 q 287 386 303 370 q 231 402 271 402 l 231 402 l 231 509 l 301 708 q 251 718 277 718 l 251 718 q 199 663 199 718 l 199 663 l 199 0 z"},"Ɠ":{"ha":515,"x_min":64,"x_max":1064,"o":"m 215 -8 l 215 -8 q 31 256 31 -8 l 31 256 l 31 626 q 82 806 31 746 q 223 867 132 867 l 223 867 q 330 838 288 867 l 330 838 q 399 939 350 901 q 520 977 448 977 l 520 977 l 520 822 q 469 806 486 822 q 453 748 453 791 l 453 748 l 453 567 l 289 567 l 289 644 q 281 690 289 671 q 250 709 274 709 l 250 709 q 211 689 220 709 q 201 645 201 669 l 201 645 l 201 229 q 210 172 201 194 q 246 150 219 150 l 246 150 q 282 172 273 150 q 291 229 291 194 l 291 229 l 291 352 l 245 352 l 245 500 l 455 500 l 455 0 l 386 0 l 357 72 q 215 -8 312 -8 z"},"Ɂ":{"ha":492,"x_min":48,"x_max":978,"o":"m 303 0 l 140 0 l 140 425 q 210 432 181 425 q 258 458 239 438 q 285 521 276 479 q 293 632 293 562 l 293 632 q 285 688 293 664 q 248 711 277 711 l 248 711 q 217 698 227 711 q 205 664 208 685 q 202 621 202 643 l 202 621 l 202 549 l 23 549 l 23 673 q 86 820 23 772 q 248 867 149 867 l 248 867 q 385 836 335 867 q 456 745 435 805 q 478 599 478 685 l 478 599 q 457 448 478 514 q 398 343 437 381 q 303 305 359 305 l 303 305 l 303 0 z"},"Ḡ":{"ha":485,"x_min":64,"x_max":936,"o":"m 215 -8 l 215 -8 q 31 256 31 -8 l 31 256 l 31 626 q 242 867 31 867 l 242 867 q 375 832 329 867 q 439 730 422 797 q 457 567 457 664 l 457 567 l 289 567 l 289 644 q 281 690 289 671 q 250 709 274 709 l 250 709 q 211 689 220 709 q 201 645 201 669 l 201 645 l 201 229 q 210 172 201 194 q 246 150 219 150 l 246 150 q 282 172 273 150 q 291 229 291 194 l 291 229 l 291 352 l 245 352 l 245 500 l 455 500 l 455 0 l 386 0 l 357 72 q 215 -8 312 -8 z m 400 917 l 83 917 l 83 992 l 400 992 l 400 917 z"},"Ǥ":{"ha":485,"x_min":64,"x_max":1015,"o":"m 215 -8 l 215 -8 q 31 256 31 -8 l 31 256 l 31 626 q 242 867 31 867 l 242 867 q 375 832 329 867 q 439 730 422 797 q 457 567 457 664 l 457 567 l 289 567 l 289 644 q 281 690 289 671 q 250 709 274 709 l 250 709 q 211 689 220 709 q 201 645 201 669 l 201 645 l 201 229 q 210 172 201 194 q 246 150 219 150 l 246 150 q 278 166 268 150 q 290 207 288 181 l 290 207 l 244 207 l 244 320 l 291 320 l 291 352 l 245 352 l 245 500 l 455 500 l 455 320 l 496 320 l 496 207 l 455 207 l 455 0 l 386 0 l 357 72 q 215 -8 312 -8 z"},"H":{"ha":499,"x_min":78,"x_max":944,"o":"m 209 0 l 38 0 l 38 859 l 209 859 l 209 552 l 290 552 l 290 859 l 461 859 l 461 0 l 290 0 l 290 390 l 209 390 l 209 0 z"},"Ħ":{"ha":508,"x_min":-10,"x_max":1051,"o":"m 218 0 l 47 0 l 47 655 l -5 655 l -5 763 l 47 763 l 47 859 l 218 859 l 218 763 l 299 763 l 299 859 l 470 859 l 470 763 l 513 763 l 513 655 l 470 655 l 470 0 l 299 0 l 299 390 l 218 390 l 218 0 z m 218 655 l 218 552 l 299 552 l 299 655 l 218 655 z"},"Ḫ":{"ha":499,"x_min":78,"x_max":944,"o":"m 209 0 l 38 0 l 38 859 l 209 859 l 209 552 l 290 552 l 290 859 l 461 859 l 461 0 l 290 0 l 290 390 l 209 390 l 209 0 z m 249 -203 l 249 -203 q 110 -167 163 -203 q 57 -51 57 -131 l 57 -51 q 59 -31 57 -41 l 59 -31 l 184 -31 q 198 -73 184 -59 q 250 -87 212 -87 l 250 -87 q 301 -73 287 -87 q 315 -31 315 -59 l 315 -31 l 440 -31 q 441 -48 441 -43 l 441 -48 q 389 -166 441 -129 q 249 -203 336 -203 z"},"Ȟ":{"ha":499,"x_min":66,"x_max":956,"o":"m 209 0 l 38 0 l 38 859 l 209 859 l 209 552 l 290 552 l 290 859 l 461 859 l 461 0 l 290 0 l 290 390 l 209 390 l 209 0 z m 349 904 l 150 904 l 32 1101 l 208 1101 l 250 961 l 292 1101 l 467 1101 l 349 904 z"},"Ḩ":{"ha":499,"x_min":38,"x_max":944,"o":"m 209 0 l 38 0 l 38 859 l 209 859 l 209 552 l 290 552 l 290 859 l 461 859 l 461 0 l 290 0 l 290 390 l 209 390 l 209 0 z m 115 -308 l 115 -308 q 19 -289 65 -308 l 19 -289 l 19 -180 q 48 -188 34 -185 q 76 -191 63 -191 l 76 -191 q 117 -178 101 -191 q 133 -133 133 -165 l 133 -133 q 120 -71 133 -106 q 83 0 106 -36 l 83 0 l 161 0 q 235 -93 208 -42 q 261 -189 261 -144 l 261 -189 q 226 -274 261 -239 q 115 -308 191 -308 z"},"Ĥ":{"ha":499,"x_min":66,"x_max":956,"o":"m 209 0 l 38 0 l 38 859 l 209 859 l 209 552 l 290 552 l 290 859 l 461 859 l 461 0 l 290 0 l 290 390 l 209 390 l 209 0 z m 208 904 l 32 904 l 150 1101 l 349 1101 l 467 904 l 292 904 l 250 1043 l 208 904 z"},"Ḧ":{"ha":499,"x_min":78,"x_max":944,"o":"m 209 0 l 38 0 l 38 859 l 209 859 l 209 552 l 290 552 l 290 859 l 461 859 l 461 0 l 290 0 l 290 390 l 209 390 l 209 0 z m 452 908 l 277 908 l 277 1053 l 452 1053 l 452 908 z m 215 908 l 41 908 l 41 1053 l 215 1053 l 215 908 z"},"Ḣ":{"ha":499,"x_min":78,"x_max":944,"o":"m 209 0 l 38 0 l 38 859 l 209 859 l 209 552 l 290 552 l 290 859 l 461 859 l 461 0 l 290 0 l 290 390 l 209 390 l 209 0 z m 337 904 l 162 904 l 162 1050 l 337 1050 l 337 904 z"},"Ḥ":{"ha":499,"x_min":78,"x_max":944,"o":"m 209 0 l 38 0 l 38 859 l 209 859 l 209 552 l 290 552 l 290 859 l 461 859 l 461 0 l 290 0 l 290 390 l 209 390 l 209 0 z m 336 -204 l 162 -204 l 162 -58 l 336 -58 l 336 -204 z"},"Ꜧ":{"ha":499,"x_min":78,"x_max":944,"o":"m 251 -96 l 251 -96 l 251 59 q 280 70 270 59 q 290 123 290 82 l 290 123 l 290 390 l 209 390 l 209 0 l 38 0 l 38 859 l 209 859 l 209 552 l 290 552 l 290 859 l 461 859 l 461 113 q 403 -43 461 10 q 251 -96 344 -96 z"},"Ɦ":{"ha":669,"x_min":5,"x_max":1293,"o":"m 379 0 l 208 0 l 208 715 q 166 697 180 715 q 152 641 152 680 l 152 641 l 152 611 l 2 611 l 2 641 q 54 798 2 737 q 208 859 105 859 l 208 859 l 379 859 l 379 552 l 460 552 l 460 859 l 631 859 l 631 0 l 460 0 l 460 390 l 379 390 l 379 0 z"},"Ɥ":{"ha":499,"x_min":78,"x_max":944,"o":"m 461 0 l 290 0 l 290 390 l 38 390 l 38 859 l 209 859 l 209 552 l 290 552 l 290 859 l 461 859 l 461 0 z"},"I":{"ha":227,"x_min":62,"x_max":402,"o":"m 196 0 l 30 0 l 30 859 l 196 859 l 196 0 z"},"Ĳ":{"ha":693,"x_min":62,"x_max":1362,"o":"m 196 0 l 30 0 l 30 859 l 196 859 l 196 0 z m 455 -8 l 455 -8 q 349 15 397 -8 q 273 81 301 37 q 245 190 245 125 l 245 190 l 245 405 l 415 405 l 415 200 q 424 164 415 178 q 453 150 433 150 l 453 150 q 492 198 492 150 l 492 198 l 492 859 l 665 859 l 665 215 q 638 96 665 146 q 564 19 611 46 q 455 -8 517 -8 z"},"Í":{"ha":227,"x_min":-6,"x_max":469,"o":"m 196 0 l 30 0 l 30 859 l 196 859 l 196 0 z m 229 931 l -3 885 l -3 994 l 229 1101 l 229 931 z"},"Ĭ":{"ha":227,"x_min":-157,"x_max":630,"o":"m 196 0 l 30 0 l 30 859 l 196 859 l 196 0 z m 115 904 l 115 904 q -24 940 29 904 q -77 1056 -77 977 l -77 1056 q -75 1077 -77 1066 l -75 1077 l 50 1077 q 64 1034 50 1049 q 116 1020 78 1020 l 116 1020 q 167 1034 153 1020 q 182 1077 182 1049 l 182 1077 l 307 1077 q 307 1067 307 1072 q 308 1060 308 1062 l 308 1060 q 255 941 308 978 q 115 904 203 904 z"},"Ǐ":{"ha":227,"x_min":-213,"x_max":677,"o":"m 196 0 l 30 0 l 30 859 l 196 859 l 196 0 z m 213 904 l 14 904 l -104 1101 l 71 1101 l 113 961 l 155 1101 l 331 1101 l 213 904 z"},"Î":{"ha":227,"x_min":-213,"x_max":677,"o":"m 196 0 l 30 0 l 30 859 l 196 859 l 196 0 z m 71 904 l -104 904 l 14 1101 l 213 1101 l 331 904 l 155 904 l 113 1043 l 71 904 z"},"Ȉ":{"ha":227,"x_min":-254,"x_max":503,"o":"m 196 0 l 30 0 l 30 859 l 196 859 l 196 0 z m 98 930 l 17 901 l -124 1111 l -10 1164 l 98 930 z m 246 930 l 165 901 l 43 1111 l 156 1164 l 246 930 z"},"Ï":{"ha":227,"x_min":-196,"x_max":646,"o":"m 196 0 l 30 0 l 30 859 l 196 859 l 196 0 z m 315 908 l 141 908 l 141 1053 l 315 1053 l 315 908 z m 79 908 l -96 908 l -96 1053 l 79 1053 l 79 908 z"},"Ḯ":{"ha":227,"x_min":-189,"x_max":653,"o":"m 196 0 l 30 0 l 30 859 l 196 859 l 196 0 z m 319 908 l 144 908 l 144 1029 l 319 1029 l 319 908 z m 83 908 l -92 908 l -92 1029 l 83 1029 l 83 908 z m 229 1107 l -2 1071 l -2 1166 l 229 1248 l 229 1107 z"},"İ":{"ha":227,"x_min":53,"x_max":411,"o":"m 196 0 l 30 0 l 30 859 l 196 859 l 196 0 z m 201 904 l 26 904 l 26 1050 l 201 1050 l 201 904 z"},"Ị":{"ha":227,"x_min":53,"x_max":411,"o":"m 196 0 l 30 0 l 30 859 l 196 859 l 196 0 z m 201 -204 l 26 -204 l 26 -58 l 201 -58 l 201 -204 z"},"Ì":{"ha":227,"x_min":-6,"x_max":469,"o":"m 196 0 l 30 0 l 30 859 l 196 859 l 196 0 z m 229 994 l 229 885 l -3 931 l -3 1101 l 229 994 z"},"Ỉ":{"ha":227,"x_min":26,"x_max":475,"o":"m 196 0 l 30 0 l 30 859 l 196 859 l 196 0 z m 99 897 l 99 897 l 47 958 q 90 982 74 967 q 106 1021 106 997 l 106 1021 q 57 1067 106 1067 l 57 1067 q 13 1060 34 1067 l 13 1060 l 13 1147 q 102 1164 56 1164 l 102 1164 q 198 1133 163 1164 q 232 1047 232 1103 l 232 1047 q 194 950 232 985 q 99 897 156 915 z"},"Ȋ":{"ha":227,"x_min":-142,"x_max":605,"o":"m 196 0 l 30 0 l 30 859 l 196 859 l 196 0 z m 47 912 l -68 912 q -69 932 -69 922 l -69 932 q -21 1048 -69 1012 q 112 1084 27 1084 l 112 1084 q 248 1047 200 1084 q 295 929 295 1010 l 295 929 q 295 922 295 926 q 294 912 295 917 l 294 912 l 179 912 q 161 961 179 945 q 113 978 142 978 l 113 978 q 66 961 85 978 q 47 912 47 945 l 47 912 z"},"Ī":{"ha":227,"x_min":-89,"x_max":561,"o":"m 196 0 l 30 0 l 30 859 l 196 859 l 196 0 z m 274 917 l -43 917 l -43 992 l 274 992 l 274 917 z"},"Į":{"ha":227,"x_min":-73,"x_max":473,"o":"m 196 0 l 30 0 l 30 859 l 196 859 l 196 0 z m 134 -308 l 134 -308 q 49 -291 88 -308 q -12 -240 11 -273 q -36 -161 -36 -207 l -36 -161 q 93 0 -36 -72 l 93 0 l 196 0 q 144 -62 169 -28 q 118 -136 118 -96 l 118 -136 q 174 -191 118 -191 l 174 -191 q 231 -180 198 -191 l 231 -180 l 231 -289 q 134 -308 185 -308 z"},"Ɩ":{"ha":227,"x_min":62,"x_max":482,"o":"m 235 146 l 235 -8 q 88 45 146 -8 q 30 201 30 98 l 30 201 l 30 859 l 196 859 l 196 211 q 207 158 196 169 q 235 146 217 146 l 235 146 z"},"ɪ":{"ha":301,"x_min":33,"x_max":583,"o":"m 285 0 l 16 0 l 16 133 l 65 133 l 65 599 l 16 599 l 16 732 l 285 732 l 285 599 l 235 599 l 235 133 l 285 133 l 285 0 z"},"Ɨ":{"ha":257,"x_min":5,"x_max":521,"o":"m 211 0 l 45 0 l 45 383 l 2 383 l 2 497 l 45 497 l 45 859 l 211 859 l 211 497 l 254 497 l 254 383 l 211 383 l 211 0 z"},"Ĩ":{"ha":227,"x_min":-181,"x_max":645,"o":"m 196 0 l 30 0 l 30 859 l 196 859 l 196 0 z m 194 915 l 194 915 q 128 926 158 915 q 73 948 98 937 q 29 959 49 959 l 29 959 q 5 952 16 959 q -16 926 -6 944 l -16 926 l -88 964 q -62 1018 -76 994 q -25 1058 -47 1043 q 32 1073 -2 1073 l 32 1073 q 95 1063 67 1073 q 146 1042 123 1052 q 188 1032 169 1032 l 188 1032 q 213 1040 202 1032 q 234 1068 224 1048 l 234 1068 l 315 1042 q 289 980 303 1009 q 253 933 275 951 q 194 915 230 915 z"},"Ḭ":{"ha":227,"x_min":-181,"x_max":645,"o":"m 196 0 l 30 0 l 30 859 l 196 859 l 196 0 z m 194 -212 l 194 -212 q 128 -201 158 -212 q 73 -179 98 -190 q 29 -168 49 -168 l 29 -168 q 5 -175 16 -168 q -16 -201 -6 -183 l -16 -201 l -88 -163 q -62 -109 -76 -133 q -25 -69 -47 -84 q 32 -54 -2 -54 l 32 -54 q 95 -64 67 -54 q 146 -85 123 -75 q 188 -95 169 -95 l 188 -95 q 213 -87 202 -95 q 234 -59 224 -79 l 234 -59 l 315 -85 q 289 -147 303 -118 q 253 -194 275 -176 q 194 -212 230 -212 z"},"J":{"ha":466,"x_min":38,"x_max":898,"o":"m 229 -8 l 229 -8 q 123 15 170 -8 q 47 81 75 37 q 19 190 19 125 l 19 190 l 19 405 l 188 405 l 188 200 q 198 164 188 178 q 227 150 207 150 l 227 150 q 265 198 265 150 l 265 198 l 265 859 l 438 859 l 438 215 q 412 96 438 146 q 337 19 385 46 q 229 -8 290 -8 z"},"Ĵ":{"ha":466,"x_min":38,"x_max":1166,"o":"m 229 -8 l 229 -8 q 123 15 170 -8 q 47 81 75 37 q 19 190 19 125 l 19 190 l 19 405 l 188 405 l 188 200 q 198 164 188 178 q 227 150 207 150 l 227 150 q 265 198 265 150 l 265 198 l 265 859 l 438 859 l 438 215 q 412 96 438 146 q 337 19 385 46 q 229 -8 290 -8 z m 310 904 l 135 904 l 252 1101 l 452 1101 l 569 904 l 394 904 l 352 1043 l 310 904 z"},"Ʝ":{"ha":476,"x_min":38,"x_max":985,"o":"m 229 -8 l 229 -8 q 123 15 170 -8 q 47 81 75 37 q 19 190 19 125 l 19 190 l 19 275 q 79 460 19 390 q 265 540 140 531 l 265 540 l 265 859 l 438 859 l 438 516 q 459 509 448 513 q 481 501 470 505 l 481 501 l 481 352 q 459 360 470 356 q 438 367 448 364 l 438 367 l 438 215 q 412 96 438 146 q 337 19 385 46 q 229 -8 290 -8 z m 227 150 l 227 150 q 265 198 265 150 l 265 198 l 265 390 q 206 356 224 383 q 188 275 188 329 l 188 275 l 188 200 q 198 164 188 178 q 227 150 207 150 z"},"Ɉ":{"ha":476,"x_min":38,"x_max":984,"o":"m 229 -8 l 229 -8 q 123 15 170 -8 q 47 81 75 37 q 19 190 19 125 l 19 190 l 19 405 l 188 405 l 188 200 q 198 164 188 178 q 227 150 207 150 l 227 150 q 265 198 265 150 l 265 198 l 265 515 l 190 515 l 190 628 l 265 628 l 265 859 l 438 859 l 438 628 l 480 628 l 480 515 l 438 515 l 438 215 q 412 96 438 146 q 337 19 385 46 q 229 -8 290 -8 z"},"K":{"ha":472,"x_min":78,"x_max":985,"o":"m 209 0 l 38 0 l 38 859 l 208 859 l 208 515 l 288 859 l 461 859 l 365 466 l 481 0 l 303 0 l 209 416 l 209 0 z"},"Ḱ":{"ha":472,"x_min":78,"x_max":985,"o":"m 209 0 l 38 0 l 38 859 l 208 859 l 208 515 l 288 859 l 461 859 l 365 466 l 481 0 l 303 0 l 209 416 l 209 0 z m 366 931 l 134 885 l 134 994 l 366 1101 l 366 931 z"},"Ǩ":{"ha":472,"x_min":66,"x_max":985,"o":"m 209 0 l 38 0 l 38 859 l 208 859 l 208 515 l 288 859 l 461 859 l 365 466 l 481 0 l 303 0 l 209 416 l 209 0 z m 349 904 l 150 904 l 32 1101 l 208 1101 l 250 961 l 292 1101 l 467 1101 l 349 904 z"},"Ķ":{"ha":472,"x_min":78,"x_max":985,"o":"m 209 0 l 38 0 l 38 859 l 208 859 l 208 515 l 288 859 l 461 859 l 365 466 l 481 0 l 303 0 l 209 416 l 209 0 z m 291 -314 l 188 -314 l 220 -199 l 158 -199 l 158 -53 l 340 -53 l 340 -194 l 291 -314 z"},"Ḳ":{"ha":472,"x_min":78,"x_max":985,"o":"m 209 0 l 38 0 l 38 859 l 208 859 l 208 515 l 288 859 l 461 859 l 365 466 l 481 0 l 303 0 l 209 416 l 209 0 z m 343 -204 l 168 -204 l 168 -58 l 343 -58 l 343 -204 z"},"Ƙ":{"ha":472,"x_min":78,"x_max":985,"o":"m 209 0 l 38 0 l 38 859 l 208 859 l 208 515 l 288 859 l 461 859 l 365 466 l 481 0 l 303 0 l 209 416 l 209 0 z"},"Ḵ":{"ha":472,"x_min":78,"x_max":985,"o":"m 209 0 l 38 0 l 38 859 l 208 859 l 208 515 l 288 859 l 461 859 l 365 466 l 481 0 l 303 0 l 209 416 l 209 0 z m 414 -133 l 97 -133 l 97 -58 l 414 -58 l 414 -133 z"},"Ꝁ":{"ha":479,"x_min":0,"x_max":1000,"o":"m 216 0 l 45 0 l 45 722 l 0 722 l 0 835 l 45 835 l 45 859 l 215 859 l 215 835 l 252 835 l 252 722 l 215 722 l 215 515 l 295 859 l 468 859 l 372 466 l 488 0 l 310 0 l 216 416 l 216 0 z"},"L":{"ha":397,"x_min":78,"x_max":792,"o":"m 387 0 l 38 0 l 38 859 l 210 859 l 210 146 l 387 146 l 387 0 z"},"Ǉ":{"ha":864,"x_min":78,"x_max":1712,"o":"m 387 0 l 38 0 l 38 859 l 210 859 l 210 146 l 387 146 l 387 0 z m 626 -8 l 626 -8 q 520 15 568 -8 q 444 81 472 37 q 416 190 416 125 l 416 190 l 416 405 l 586 405 l 586 200 q 595 164 586 178 q 624 150 604 150 l 624 150 q 663 198 663 150 l 663 198 l 663 859 l 836 859 l 836 215 q 809 96 836 146 q 735 19 782 46 q 626 -8 688 -8 z"},"Ĺ":{"ha":397,"x_min":16,"x_max":792,"o":"m 387 0 l 38 0 l 38 859 l 210 859 l 210 146 l 387 146 l 387 0 z m 240 931 l 8 885 l 8 994 l 240 1101 l 240 931 z"},"Ƚ":{"ha":397,"x_min":-36,"x_max":792,"o":"m 387 0 l 38 0 l 38 859 l 210 859 l 210 146 l 387 146 l 387 0 z m 305 390 l -18 390 l -18 503 l 305 503 l 305 390 z"},"Ɬ":{"ha":490,"x_min":-10,"x_max":982,"o":"m 479 0 l 131 0 l 131 354 q 34 393 73 358 q -5 485 -5 428 l -5 485 q 31 587 -5 550 q 131 627 66 623 l 131 627 l 131 860 l 303 860 l 303 466 l 371 466 l 371 354 l 303 354 l 303 146 l 479 146 l 479 0 z m 90 496 l 90 496 q 131 466 90 466 l 131 466 l 131 524 q 90 496 90 523 z"},"Ľ":{"ha":397,"x_min":78,"x_max":827,"o":"m 387 0 l 38 0 l 38 859 l 210 859 l 210 146 l 387 146 l 387 0 z m 354 599 l 251 599 l 288 714 l 251 714 l 251 859 l 404 859 l 404 718 l 354 599 z"},"Ḽ":{"ha":397,"x_min":-12,"x_max":878,"o":"m 387 0 l 38 0 l 38 859 l 210 859 l 210 146 l 387 146 l 387 0 z m 169 -250 l -6 -250 l 112 -53 l 311 -53 l 429 -250 l 253 -250 l 211 -111 l 169 -250 z"},"Ļ":{"ha":397,"x_min":78,"x_max":792,"o":"m 387 0 l 38 0 l 38 859 l 210 859 l 210 146 l 387 146 l 387 0 z m 247 -314 l 144 -314 l 176 -199 l 114 -199 l 114 -53 l 296 -53 l 296 -194 l 247 -314 z"},"Ŀ":{"ha":451,"x_min":78,"x_max":880,"o":"m 387 0 l 38 0 l 38 859 l 210 859 l 210 146 l 387 146 l 387 0 z m 430 369 l 270 369 l 270 534 l 430 534 l 430 369 z"},"Ḷ":{"ha":397,"x_min":78,"x_max":792,"o":"m 387 0 l 38 0 l 38 859 l 210 859 l 210 146 l 387 146 l 387 0 z m 299 -204 l 124 -204 l 124 -58 l 299 -58 l 299 -204 z"},"Ḹ":{"ha":397,"x_min":-73,"x_max":792,"o":"m 387 0 l 38 0 l 38 859 l 210 859 l 210 146 l 387 146 l 387 0 z m 299 -204 l 124 -204 l 124 -58 l 299 -58 l 299 -204 z m 282 917 l -36 917 l -36 992 l 282 992 l 282 917 z"},"Ⱡ":{"ha":397,"x_min":-36,"x_max":792,"o":"m 387 0 l 38 0 l 38 859 l 210 859 l 210 146 l 387 146 l 387 0 z m 305 478 l -18 478 l -18 591 l 305 591 l 305 478 z m 305 302 l -18 302 l -18 416 l 305 416 l 305 302 z"},"ǈ":{"ha":660,"x_min":78,"x_max":1282,"o":"m 387 0 l 38 0 l 38 859 l 210 859 l 210 146 l 387 146 l 387 0 z m 626 777 l 451 777 l 451 923 l 626 923 l 626 777 z m 488 -127 l 488 -127 q 414 -114 433 -127 l 414 -114 l 414 3 q 430 0 423 0 l 430 0 q 448 10 444 0 q 451 35 451 20 l 451 35 l 451 732 l 626 732 l 626 40 q 595 -83 626 -38 q 488 -127 564 -127 z"},"Ḻ":{"ha":397,"x_min":78,"x_max":792,"o":"m 387 0 l 38 0 l 38 859 l 210 859 l 210 146 l 387 146 l 387 0 z m 370 -133 l 53 -133 l 53 -58 l 370 -58 l 370 -133 z"},"Ɫ":{"ha":460,"x_min":-30,"x_max":921,"o":"m 450 0 l 101 0 l 101 859 l 273 859 l 273 146 l 450 146 l 450 0 z m 268 379 l 268 379 q 201 390 230 379 q 149 412 172 401 q 103 423 125 423 l 103 423 q 79 416 90 423 q 58 390 67 409 l 58 390 l -15 428 q 12 483 -2 458 q 49 522 26 507 q 106 537 71 537 l 106 537 q 170 527 142 537 q 220 506 198 517 q 262 496 243 496 l 262 496 q 287 504 275 496 q 308 533 298 513 l 308 533 l 389 506 q 363 444 377 474 q 326 397 349 415 q 268 379 304 379 z"},"Ł":{"ha":417,"x_min":-11,"x_max":792,"o":"m 387 0 l 38 0 l 38 351 l -5 332 l -5 489 l 38 508 l 38 859 l 210 859 l 210 583 l 311 626 l 311 469 l 210 425 l 210 146 l 387 146 l 387 0 z"},"M":{"ha":746,"x_min":78,"x_max":1450,"o":"m 193 0 l 38 0 l 38 859 l 300 859 l 372 335 l 444 859 l 708 859 l 708 0 l 551 0 l 551 619 l 452 0 l 298 0 l 193 619 l 193 0 z"},"Ḿ":{"ha":746,"x_min":78,"x_max":1450,"o":"m 193 0 l 38 0 l 38 859 l 300 859 l 372 335 l 444 859 l 708 859 l 708 0 l 551 0 l 551 619 l 452 0 l 298 0 l 193 619 l 193 0 z m 488 931 l 256 885 l 256 994 l 488 1101 l 488 931 z"},"Ṁ":{"ha":746,"x_min":78,"x_max":1450,"o":"m 193 0 l 38 0 l 38 859 l 300 859 l 372 335 l 444 859 l 708 859 l 708 0 l 551 0 l 551 619 l 452 0 l 298 0 l 193 619 l 193 0 z m 459 904 l 285 904 l 285 1050 l 459 1050 l 459 904 z"},"Ṃ":{"ha":746,"x_min":78,"x_max":1450,"o":"m 193 0 l 38 0 l 38 859 l 300 859 l 372 335 l 444 859 l 708 859 l 708 0 l 551 0 l 551 619 l 452 0 l 298 0 l 193 619 l 193 0 z m 460 -204 l 286 -204 l 286 -58 l 460 -58 l 460 -204 z"},"Ɯ":{"ha":757,"x_min":78,"x_max":1473,"o":"m 180 -8 l 180 -8 q 70 46 102 -8 q 38 200 38 99 l 38 200 l 38 859 l 207 859 l 207 197 q 249 125 207 125 l 249 125 q 283 150 272 125 q 294 209 294 175 l 294 209 l 294 859 l 462 859 l 462 197 q 472 146 462 166 q 503 127 481 127 l 503 127 q 540 154 529 127 q 551 219 551 182 l 551 219 l 551 859 l 719 859 l 719 0 l 552 0 l 552 86 q 512 15 540 39 q 425 -8 484 -8 l 425 -8 q 349 12 382 -8 q 304 66 317 32 l 304 66 q 255 10 282 28 q 180 -8 228 -8 z"},"N":{"ha":498,"x_min":78,"x_max":942,"o":"m 206 0 l 38 0 l 38 859 l 215 859 l 294 448 l 294 859 l 460 859 l 460 0 l 292 0 l 206 430 l 206 0 z"},"Ǌ":{"ha":964,"x_min":78,"x_max":1918,"o":"m 206 0 l 38 0 l 38 859 l 215 859 l 294 448 l 294 859 l 460 859 l 460 0 l 292 0 l 206 430 l 206 0 z m 727 -8 l 727 -8 q 621 15 668 -8 q 545 81 573 37 q 517 190 517 125 l 517 190 l 517 405 l 687 405 l 687 200 q 696 164 687 178 q 725 150 705 150 l 725 150 q 763 198 763 150 l 763 198 l 763 859 l 937 859 l 937 215 q 910 96 937 146 q 835 19 883 46 q 727 -8 788 -8 z"},"Ń":{"ha":498,"x_min":78,"x_max":942,"o":"m 206 0 l 38 0 l 38 859 l 215 859 l 294 448 l 294 859 l 460 859 l 460 0 l 292 0 l 206 430 l 206 0 z m 375 931 l 143 885 l 143 994 l 375 1101 l 375 931 z"},"Ň":{"ha":498,"x_min":78,"x_max":976,"o":"m 206 0 l 38 0 l 38 859 l 215 859 l 294 448 l 294 859 l 460 859 l 460 0 l 292 0 l 206 430 l 206 0 z m 359 904 l 160 904 l 42 1101 l 217 1101 l 259 961 l 301 1101 l 477 1101 l 359 904 z"},"Ṋ":{"ha":498,"x_min":58,"x_max":948,"o":"m 206 0 l 38 0 l 38 859 l 215 859 l 294 448 l 294 859 l 460 859 l 460 0 l 292 0 l 206 430 l 206 0 z m 204 -250 l 28 -250 l 146 -53 l 345 -53 l 463 -250 l 288 -250 l 246 -111 l 204 -250 z"},"Ņ":{"ha":498,"x_min":78,"x_max":942,"o":"m 206 0 l 38 0 l 38 859 l 215 859 l 294 448 l 294 859 l 460 859 l 460 0 l 292 0 l 206 430 l 206 0 z m 281 -314 l 178 -314 l 210 -199 l 148 -199 l 148 -53 l 331 -53 l 331 -194 l 281 -314 z"},"Ṅ":{"ha":498,"x_min":78,"x_max":942,"o":"m 206 0 l 38 0 l 38 859 l 215 859 l 294 448 l 294 859 l 460 859 l 460 0 l 292 0 l 206 430 l 206 0 z m 347 904 l 172 904 l 172 1050 l 347 1050 l 347 904 z"},"Ṇ":{"ha":498,"x_min":78,"x_max":942,"o":"m 206 0 l 38 0 l 38 859 l 215 859 l 294 448 l 294 859 l 460 859 l 460 0 l 292 0 l 206 430 l 206 0 z m 333 -204 l 158 -204 l 158 -58 l 333 -58 l 333 -204 z"},"Ǹ":{"ha":498,"x_min":78,"x_max":942,"o":"m 206 0 l 38 0 l 38 859 l 215 859 l 294 448 l 294 859 l 460 859 l 460 0 l 292 0 l 206 430 l 206 0 z m 375 994 l 375 885 l 143 931 l 143 1101 l 375 994 z"},"Ɲ":{"ha":498,"x_min":-52,"x_max":942,"o":"m -25 -238 l -25 -238 l -25 -91 q 38 -15 38 -91 l 38 -15 l 38 859 l 215 859 l 294 448 l 294 859 l 460 859 l 460 0 l 292 0 l 206 430 l 206 -4 q 144 -179 206 -120 q -25 -238 82 -238 z"},"ǋ":{"ha":761,"x_min":78,"x_max":1488,"o":"m 206 0 l 38 0 l 38 859 l 215 859 l 294 448 l 294 859 l 460 859 l 460 0 l 292 0 l 206 430 l 206 0 z m 727 777 l 552 777 l 552 923 l 727 923 l 727 777 z m 589 -127 l 589 -127 q 515 -114 533 -127 l 515 -114 l 515 3 q 531 0 523 0 l 531 0 q 548 10 545 0 q 552 35 552 20 l 552 35 l 552 732 l 727 732 l 727 40 q 696 -83 727 -38 q 589 -127 665 -127 z"},"Ṉ":{"ha":498,"x_min":78,"x_max":942,"o":"m 206 0 l 38 0 l 38 859 l 215 859 l 294 448 l 294 859 l 460 859 l 460 0 l 292 0 l 206 430 l 206 0 z m 404 -133 l 87 -133 l 87 -58 l 404 -58 l 404 -133 z"},"Ƞ":{"ha":498,"x_min":78,"x_max":942,"o":"m 460 -91 l 294 -91 l 294 648 q 284 698 294 680 q 253 715 275 715 l 253 715 q 213 694 222 715 q 204 633 204 673 l 204 633 l 204 0 l 38 0 l 38 859 l 203 859 l 203 769 q 244 840 214 813 q 318 867 273 867 l 318 867 q 425 823 391 867 q 460 696 460 778 l 460 696 l 460 -91 z"},"Ñ":{"ha":498,"x_min":78,"x_max":944,"o":"m 206 0 l 38 0 l 38 859 l 215 859 l 294 448 l 294 859 l 460 859 l 460 0 l 292 0 l 206 430 l 206 0 z m 340 914 l 340 914 q 274 925 304 914 q 219 947 244 936 q 175 958 195 958 l 175 958 q 151 951 162 958 q 130 925 140 943 l 130 925 l 58 963 q 84 1017 70 993 q 121 1057 99 1042 q 178 1072 144 1072 l 178 1072 q 241 1062 213 1072 q 292 1041 269 1051 q 334 1031 315 1031 l 334 1031 q 359 1039 348 1031 q 380 1067 370 1047 l 380 1067 l 461 1041 q 435 979 449 1008 q 399 932 421 950 q 340 914 376 914 z"},"O":{"ha":486,"x_min":64,"x_max":932,"o":"m 243 -8 l 243 -8 q 86 54 140 -8 q 31 234 31 117 l 31 234 l 31 643 q 85 810 31 753 q 243 867 139 867 l 243 867 q 401 810 347 867 q 455 643 455 753 l 455 643 l 455 234 q 401 54 455 117 q 243 -8 346 -8 z m 245 150 l 245 150 q 284 226 284 150 l 284 226 l 284 646 q 246 709 284 709 l 246 709 q 203 644 203 709 l 203 644 l 203 225 q 212 168 203 185 q 245 150 222 150 z"},"Œ":{"ha":649,"x_min":50,"x_max":1291,"o":"m 630 0 l 296 0 q 24 210 24 0 l 24 210 l 24 662 q 58 781 24 738 q 153 842 92 824 q 292 859 213 859 l 292 859 l 619 859 l 619 708 l 455 708 l 455 529 l 612 529 l 612 383 l 455 383 l 455 152 l 630 152 l 630 0 z m 250 152 l 250 152 l 280 152 l 280 708 l 253 708 q 209 691 225 708 q 194 642 194 673 l 194 642 l 194 234 q 208 176 194 200 q 250 152 221 152 z"},"Ȣ":{"ha":486,"x_min":64,"x_max":932,"o":"m 243 -8 l 243 -8 q 85 56 139 -8 q 31 234 31 119 l 31 234 l 31 333 q 43 418 31 382 q 75 481 54 455 l 75 481 q 34 636 34 538 l 34 636 l 34 859 l 201 859 l 201 633 q 209 570 201 592 q 243 547 217 547 l 243 547 q 277 570 270 547 q 285 633 285 592 l 285 633 l 285 859 l 452 859 l 452 636 q 411 481 452 538 l 411 481 q 444 418 432 455 q 455 333 455 382 l 455 333 l 455 234 q 401 55 455 118 q 243 -8 348 -8 z m 243 150 l 243 150 q 274 170 266 150 q 282 226 282 190 l 282 226 l 282 347 q 275 392 282 374 q 244 410 268 410 l 244 410 q 201 345 201 410 l 201 345 l 201 225 q 210 169 201 188 q 243 150 219 150 z"},"Ó":{"ha":486,"x_min":64,"x_max":932,"o":"m 243 -8 l 243 -8 q 86 54 140 -8 q 31 234 31 117 l 31 234 l 31 643 q 85 810 31 753 q 243 867 139 867 l 243 867 q 401 810 347 867 q 455 643 455 753 l 455 643 l 455 234 q 401 54 455 117 q 243 -8 346 -8 z m 245 150 l 245 150 q 284 226 284 150 l 284 226 l 284 646 q 246 709 284 709 l 246 709 q 203 644 203 709 l 203 644 l 203 225 q 212 168 203 185 q 245 150 222 150 z m 359 931 l 127 885 l 127 994 l 359 1101 l 359 931 z"},"Ŏ":{"ha":486,"x_min":64,"x_max":932,"o":"m 243 -8 l 243 -8 q 86 54 140 -8 q 31 234 31 117 l 31 234 l 31 643 q 85 810 31 753 q 243 867 139 867 l 243 867 q 401 810 347 867 q 455 643 455 753 l 455 643 l 455 234 q 401 54 455 117 q 243 -8 346 -8 z m 245 150 l 245 150 q 284 226 284 150 l 284 226 l 284 646 q 246 709 284 709 l 246 709 q 203 644 203 709 l 203 644 l 203 225 q 212 168 203 185 q 245 150 222 150 z m 245 904 l 245 904 q 107 940 160 904 q 54 1056 54 977 l 54 1056 q 55 1077 54 1066 l 55 1077 l 180 1077 q 194 1034 180 1049 q 246 1020 208 1020 l 246 1020 q 298 1034 284 1020 q 312 1077 312 1049 l 312 1077 l 437 1077 q 438 1067 438 1072 q 438 1060 438 1062 l 438 1060 q 385 941 438 978 q 245 904 333 904 z"},"Ǒ":{"ha":486,"x_min":54,"x_max":944,"o":"m 243 -8 l 243 -8 q 86 54 140 -8 q 31 234 31 117 l 31 234 l 31 643 q 85 810 31 753 q 243 867 139 867 l 243 867 q 401 810 347 867 q 455 643 455 753 l 455 643 l 455 234 q 401 54 455 117 q 243 -8 346 -8 z m 245 150 l 245 150 q 284 226 284 150 l 284 226 l 284 646 q 246 709 284 709 l 246 709 q 203 644 203 709 l 203 644 l 203 225 q 212 168 203 185 q 245 150 222 150 z m 343 904 l 144 904 l 26 1101 l 202 1101 l 244 961 l 286 1101 l 461 1101 l 343 904 z"},"Ɵ":{"ha":486,"x_min":64,"x_max":932,"o":"m 243 -8 l 243 -8 q 86 54 140 -8 q 31 234 31 117 l 31 234 l 31 643 q 85 810 31 753 q 243 867 139 867 l 243 867 q 401 810 347 867 q 455 643 455 753 l 455 643 l 455 234 q 401 54 455 117 q 243 -8 346 -8 z m 245 150 l 245 150 q 284 226 284 150 l 284 226 l 284 646 q 246 709 284 709 l 246 709 q 203 644 203 709 l 203 644 l 203 225 q 212 168 203 185 q 245 150 222 150 z m 394 375 l 72 375 l 72 489 l 394 489 l 394 375 z"},"Ô":{"ha":486,"x_min":54,"x_max":944,"o":"m 243 -8 l 243 -8 q 86 54 140 -8 q 31 234 31 117 l 31 234 l 31 643 q 85 810 31 753 q 243 867 139 867 l 243 867 q 401 810 347 867 q 455 643 455 753 l 455 643 l 455 234 q 401 54 455 117 q 243 -8 346 -8 z m 245 150 l 245 150 q 284 226 284 150 l 284 226 l 284 646 q 246 709 284 709 l 246 709 q 203 644 203 709 l 203 644 l 203 225 q 212 168 203 185 q 245 150 222 150 z m 202 904 l 26 904 l 144 1101 l 343 1101 l 461 904 l 286 904 l 244 1043 l 202 904 z"},"Ố":{"ha":486,"x_min":64,"x_max":1208,"o":"m 243 -8 l 243 -8 q 86 54 140 -8 q 31 234 31 117 l 31 234 l 31 643 q 85 810 31 753 q 243 867 139 867 l 243 867 q 401 810 347 867 q 455 643 455 753 l 455 643 l 455 234 q 401 54 455 117 q 243 -8 346 -8 z m 245 150 l 245 150 q 284 226 284 150 l 284 226 l 284 646 q 246 709 284 709 l 246 709 q 203 644 203 709 l 203 644 l 203 225 q 212 168 203 185 q 245 150 222 150 z m 498 977 l 384 977 l 440 1076 l 590 1076 l 498 977 z m 195 898 l 56 898 l 171 1022 l 315 1022 l 431 898 l 292 898 l 243 964 l 195 898 z"},"Ộ":{"ha":486,"x_min":53,"x_max":943,"o":"m 243 -8 l 243 -8 q 86 54 140 -8 q 31 234 31 117 l 31 234 l 31 643 q 85 810 31 753 q 243 867 139 867 l 243 867 q 401 810 347 867 q 455 643 455 753 l 455 643 l 455 234 q 401 54 455 117 q 243 -8 346 -8 z m 245 150 l 245 150 q 284 226 284 150 l 284 226 l 284 646 q 246 709 284 709 l 246 709 q 203 644 203 709 l 203 644 l 203 225 q 212 168 203 185 q 245 150 222 150 z m 331 -204 l 156 -204 l 156 -58 l 331 -58 l 331 -204 z m 201 909 l 26 909 l 144 1071 l 343 1071 l 460 909 l 285 909 l 243 1014 l 201 909 z"},"Ồ":{"ha":486,"x_min":64,"x_max":1087,"o":"m 243 -8 l 243 -8 q 86 54 140 -8 q 31 234 31 117 l 31 234 l 31 643 q 85 810 31 753 q 243 867 139 867 l 243 867 q 401 810 347 867 q 455 643 455 753 l 455 643 l 455 234 q 401 54 455 117 q 243 -8 346 -8 z m 245 150 l 245 150 q 284 226 284 150 l 284 226 l 284 646 q 246 709 284 709 l 246 709 q 203 644 203 709 l 203 644 l 203 225 q 212 168 203 185 q 245 150 222 150 z m 531 977 l 417 977 l 325 1076 l 475 1076 l 531 977 z m 195 898 l 56 898 l 171 1022 l 315 1022 l 431 898 l 292 898 l 243 964 l 195 898 z"},"Ổ":{"ha":486,"x_min":64,"x_max":1037,"o":"m 243 -8 l 243 -8 q 86 54 140 -8 q 31 234 31 117 l 31 234 l 31 643 q 85 810 31 753 q 243 867 139 867 l 243 867 q 401 810 347 867 q 455 643 455 753 l 455 643 l 455 234 q 401 54 455 117 q 243 -8 346 -8 z m 245 150 l 245 150 q 284 226 284 150 l 284 226 l 284 646 q 246 709 284 709 l 246 709 q 203 644 203 709 l 203 644 l 203 225 q 212 168 203 185 q 245 150 222 150 z m 424 957 l 424 957 l 392 994 q 418 1010 408 1000 q 428 1034 428 1019 l 428 1034 q 397 1063 428 1063 l 397 1063 q 370 1058 384 1063 l 370 1058 l 370 1112 q 426 1123 398 1123 l 426 1123 q 485 1104 463 1123 q 506 1050 506 1084 l 506 1050 q 483 990 506 1012 q 424 957 459 968 z m 195 898 l 56 898 l 171 1022 l 315 1022 l 431 898 l 292 898 l 243 964 l 195 898 z"},"Ỗ":{"ha":486,"x_min":64,"x_max":932,"o":"m 243 -8 l 243 -8 q 86 54 140 -8 q 31 234 31 117 l 31 234 l 31 643 q 85 810 31 753 q 243 867 139 867 l 243 867 q 401 810 347 867 q 455 643 455 753 l 455 643 l 455 234 q 401 54 455 117 q 243 -8 346 -8 z m 245 150 l 245 150 q 284 226 284 150 l 284 226 l 284 646 q 246 709 284 709 l 246 709 q 203 644 203 709 l 203 644 l 203 225 q 212 168 203 185 q 245 150 222 150 z m 302 1046 l 302 1046 q 260 1054 280 1046 q 223 1071 241 1063 q 185 1079 205 1079 l 185 1079 q 163 1074 173 1079 q 144 1054 153 1068 l 144 1054 l 90 1083 q 120 1137 103 1114 q 174 1160 138 1160 l 174 1160 q 216 1151 197 1160 q 253 1135 235 1143 q 291 1126 271 1126 l 291 1126 q 332 1154 315 1126 l 332 1154 l 393 1134 q 361 1073 379 1100 q 302 1046 343 1046 z m 195 898 l 56 898 l 171 1022 l 315 1022 l 431 898 l 292 898 l 243 964 l 195 898 z"},"Ȍ":{"ha":486,"x_min":13,"x_max":932,"o":"m 243 -8 l 243 -8 q 86 54 140 -8 q 31 234 31 117 l 31 234 l 31 643 q 85 810 31 753 q 243 867 139 867 l 243 867 q 401 810 347 867 q 455 643 455 753 l 455 643 l 455 234 q 401 54 455 117 q 243 -8 346 -8 z m 245 150 l 245 150 q 284 226 284 150 l 284 226 l 284 646 q 246 709 284 709 l 246 709 q 203 644 203 709 l 203 644 l 203 225 q 212 168 203 185 q 245 150 222 150 z m 229 930 l 147 901 l 6 1111 l 121 1164 l 229 930 z m 376 930 l 295 901 l 174 1111 l 286 1164 l 376 930 z"},"Ö":{"ha":486,"x_min":64,"x_max":932,"o":"m 243 -8 l 243 -8 q 86 54 140 -8 q 31 234 31 117 l 31 234 l 31 643 q 85 810 31 753 q 243 867 139 867 l 243 867 q 401 810 347 867 q 455 643 455 753 l 455 643 l 455 234 q 401 54 455 117 q 243 -8 346 -8 z m 245 150 l 245 150 q 284 226 284 150 l 284 226 l 284 646 q 246 709 284 709 l 246 709 q 203 644 203 709 l 203 644 l 203 225 q 212 168 203 185 q 245 150 222 150 z m 446 908 l 271 908 l 271 1053 l 446 1053 l 446 908 z m 209 908 l 35 908 l 35 1053 l 209 1053 l 209 908 z"},"Ȫ":{"ha":486,"x_min":64,"x_max":932,"o":"m 243 -8 l 243 -8 q 86 54 140 -8 q 31 234 31 117 l 31 234 l 31 643 q 85 810 31 753 q 243 867 139 867 l 243 867 q 401 810 347 867 q 455 643 455 753 l 455 643 l 455 234 q 401 54 455 117 q 243 -8 346 -8 z m 245 150 l 245 150 q 284 226 284 150 l 284 226 l 284 646 q 246 709 284 709 l 246 709 q 203 644 203 709 l 203 644 l 203 225 q 212 168 203 185 q 245 150 222 150 z m 449 908 l 274 908 l 274 1029 l 449 1029 l 449 908 z m 212 908 l 38 908 l 38 1029 l 212 1029 l 212 908 z m 402 1082 l 84 1082 l 84 1157 l 402 1157 l 402 1082 z"},"Ȯ":{"ha":486,"x_min":64,"x_max":932,"o":"m 243 -8 l 243 -8 q 86 54 140 -8 q 31 234 31 117 l 31 234 l 31 643 q 85 810 31 753 q 243 867 139 867 l 243 867 q 401 810 347 867 q 455 643 455 753 l 455 643 l 455 234 q 401 54 455 117 q 243 -8 346 -8 z m 245 150 l 245 150 q 284 226 284 150 l 284 226 l 284 646 q 246 709 284 709 l 246 709 q 203 644 203 709 l 203 644 l 203 225 q 212 168 203 185 q 245 150 222 150 z m 331 904 l 156 904 l 156 1050 l 331 1050 l 331 904 z"},"Ȱ":{"ha":486,"x_min":64,"x_max":932,"o":"m 243 -8 l 243 -8 q 86 54 140 -8 q 31 234 31 117 l 31 234 l 31 643 q 85 810 31 753 q 243 867 139 867 l 243 867 q 401 810 347 867 q 455 643 455 753 l 455 643 l 455 234 q 401 54 455 117 q 243 -8 346 -8 z m 245 150 l 245 150 q 284 226 284 150 l 284 226 l 284 646 q 246 709 284 709 l 246 709 q 203 644 203 709 l 203 644 l 203 225 q 212 168 203 185 q 245 150 222 150 z m 331 904 l 156 904 l 156 1030 l 331 1030 l 331 904 z m 402 1073 l 84 1073 l 84 1148 l 402 1148 l 402 1073 z"},"Ọ":{"ha":486,"x_min":64,"x_max":932,"o":"m 243 -8 l 243 -8 q 86 54 140 -8 q 31 234 31 117 l 31 234 l 31 643 q 85 810 31 753 q 243 867 139 867 l 243 867 q 401 810 347 867 q 455 643 455 753 l 455 643 l 455 234 q 401 54 455 117 q 243 -8 346 -8 z m 245 150 l 245 150 q 284 226 284 150 l 284 226 l 284 646 q 246 709 284 709 l 246 709 q 203 644 203 709 l 203 644 l 203 225 q 212 168 203 185 q 245 150 222 150 z m 331 -204 l 156 -204 l 156 -58 l 331 -58 l 331 -204 z"},"Ò":{"ha":486,"x_min":64,"x_max":932,"o":"m 243 -8 l 243 -8 q 86 54 140 -8 q 31 234 31 117 l 31 234 l 31 643 q 85 810 31 753 q 243 867 139 867 l 243 867 q 401 810 347 867 q 455 643 455 753 l 455 643 l 455 234 q 401 54 455 117 q 243 -8 346 -8 z m 245 150 l 245 150 q 284 226 284 150 l 284 226 l 284 646 q 246 709 284 709 l 246 709 q 203 644 203 709 l 203 644 l 203 225 q 212 168 203 185 q 245 150 222 150 z m 359 994 l 359 885 l 127 931 l 127 1101 l 359 994 z"},"Ω":{"ha":484,"x_min":47,"x_max":945,"o":"m 226 0 l 23 0 l 23 120 l 83 120 q 35 347 35 192 l 35 347 l 35 581 q 88 733 35 681 q 242 785 141 785 l 242 785 q 397 733 344 785 q 449 581 449 681 l 449 581 l 449 347 q 402 120 449 192 l 402 120 l 461 120 l 461 0 l 258 0 l 258 121 q 275 141 270 130 q 282 173 280 152 q 284 230 284 193 l 284 230 l 284 591 q 276 635 284 617 q 242 652 268 652 l 242 652 q 209 635 217 652 q 201 591 201 617 l 201 591 l 201 230 q 207 154 201 175 q 226 121 214 133 l 226 121 l 226 0 z"},"Ỏ":{"ha":486,"x_min":64,"x_max":932,"o":"m 243 -8 l 243 -8 q 86 54 140 -8 q 31 234 31 117 l 31 234 l 31 643 q 85 810 31 753 q 243 867 139 867 l 243 867 q 401 810 347 867 q 455 643 455 753 l 455 643 l 455 234 q 401 54 455 117 q 243 -8 346 -8 z m 245 150 l 245 150 q 284 226 284 150 l 284 226 l 284 646 q 246 709 284 709 l 246 709 q 203 644 203 709 l 203 644 l 203 225 q 212 168 203 185 q 245 150 222 150 z m 229 897 l 229 897 l 177 958 q 220 982 204 967 q 236 1021 236 997 l 236 1021 q 187 1067 236 1067 l 187 1067 q 143 1060 164 1067 l 143 1060 l 143 1147 q 232 1164 186 1164 l 232 1164 q 327 1133 293 1164 q 362 1047 362 1103 l 362 1047 q 324 950 362 985 q 229 897 286 915 z"},"Ơ":{"ha":488,"x_min":64,"x_max":969,"o":"m 243 -8 l 243 -8 q 84 56 138 -8 q 31 234 31 120 l 31 234 l 31 643 q 86 810 31 753 q 244 867 141 867 l 244 867 l 281 867 q 337 928 337 867 l 337 928 l 337 939 l 473 939 l 473 932 q 457 847 473 881 q 415 794 441 813 l 415 794 q 455 643 455 738 l 455 643 l 455 234 q 402 56 455 120 q 243 -8 349 -8 z m 243 150 l 243 150 q 275 173 268 150 q 282 226 282 195 l 282 226 l 282 646 q 276 689 282 668 q 244 709 270 709 l 244 709 q 210 690 219 709 q 201 644 201 671 l 201 644 l 201 225 q 209 171 201 191 q 243 150 217 150 z"},"Ớ":{"ha":488,"x_min":64,"x_max":969,"o":"m 243 -8 l 243 -8 q 84 56 138 -8 q 31 234 31 120 l 31 234 l 31 643 q 86 810 31 753 q 244 867 141 867 l 244 867 l 281 867 q 337 928 337 867 l 337 928 l 337 939 l 473 939 l 473 932 q 457 847 473 881 q 415 794 441 813 l 415 794 q 455 643 455 738 l 455 643 l 455 234 q 402 56 455 120 q 243 -8 349 -8 z m 243 150 l 243 150 q 275 173 268 150 q 282 226 282 195 l 282 226 l 282 646 q 276 689 282 668 q 244 709 270 709 l 244 709 q 210 690 219 709 q 201 644 201 671 l 201 644 l 201 225 q 209 171 201 191 q 243 150 217 150 z m 360 979 l 128 943 l 128 1038 l 360 1120 l 360 979 z"},"Ợ":{"ha":488,"x_min":64,"x_max":969,"o":"m 243 -8 l 243 -8 q 84 56 138 -8 q 31 234 31 120 l 31 234 l 31 643 q 86 810 31 753 q 244 867 141 867 l 244 867 l 281 867 q 337 928 337 867 l 337 928 l 337 939 l 473 939 l 473 932 q 457 847 473 881 q 415 794 441 813 l 415 794 q 455 643 455 738 l 455 643 l 455 234 q 402 56 455 120 q 243 -8 349 -8 z m 243 150 l 243 150 q 275 173 268 150 q 282 226 282 195 l 282 226 l 282 646 q 276 689 282 668 q 244 709 270 709 l 244 709 q 210 690 219 709 q 201 644 201 671 l 201 644 l 201 225 q 209 171 201 191 q 243 150 217 150 z m 331 -204 l 156 -204 l 156 -58 l 331 -58 l 331 -204 z"},"Ờ":{"ha":488,"x_min":64,"x_max":969,"o":"m 243 -8 l 243 -8 q 84 56 138 -8 q 31 234 31 120 l 31 234 l 31 643 q 86 810 31 753 q 244 867 141 867 l 244 867 l 281 867 q 337 928 337 867 l 337 928 l 337 939 l 473 939 l 473 932 q 457 847 473 881 q 415 794 441 813 l 415 794 q 455 643 455 738 l 455 643 l 455 234 q 402 56 455 120 q 243 -8 349 -8 z m 243 150 l 243 150 q 275 173 268 150 q 282 226 282 195 l 282 226 l 282 646 q 276 689 282 668 q 244 709 270 709 l 244 709 q 210 690 219 709 q 201 644 201 671 l 201 644 l 201 225 q 209 171 201 191 q 243 150 217 150 z m 360 1052 l 360 958 l 128 994 l 128 1134 l 360 1052 z"},"Ở":{"ha":488,"x_min":64,"x_max":969,"o":"m 243 -8 l 243 -8 q 84 56 138 -8 q 31 234 31 120 l 31 234 l 31 643 q 86 810 31 753 q 244 867 141 867 l 244 867 l 281 867 q 337 928 337 867 l 337 928 l 337 939 l 473 939 l 473 932 q 457 847 473 881 q 415 794 441 813 l 415 794 q 455 643 455 738 l 455 643 l 455 234 q 402 56 455 120 q 243 -8 349 -8 z m 243 150 l 243 150 q 275 173 268 150 q 282 226 282 195 l 282 226 l 282 646 q 276 689 282 668 q 244 709 270 709 l 244 709 q 210 690 219 709 q 201 644 201 671 l 201 644 l 201 225 q 209 171 201 191 q 243 150 217 150 z m 230 938 l 230 938 l 178 999 q 221 1023 205 1009 q 237 1063 237 1038 l 237 1063 q 188 1109 237 1109 l 188 1109 q 144 1101 165 1109 l 144 1101 l 144 1189 q 233 1205 187 1205 l 233 1205 q 328 1175 294 1205 q 363 1089 363 1144 l 363 1089 q 325 991 363 1027 q 230 938 287 956 z"},"Ỡ":{"ha":488,"x_min":64,"x_max":969,"o":"m 243 -8 l 243 -8 q 84 56 138 -8 q 31 234 31 120 l 31 234 l 31 643 q 86 810 31 753 q 244 867 141 867 l 244 867 l 281 867 q 337 928 337 867 l 337 928 l 337 939 l 473 939 l 473 932 q 457 847 473 881 q 415 794 441 813 l 415 794 q 455 643 455 738 l 455 643 l 455 234 q 402 56 455 120 q 243 -8 349 -8 z m 243 150 l 243 150 q 275 173 268 150 q 282 226 282 195 l 282 226 l 282 646 q 276 689 282 668 q 244 709 270 709 l 244 709 q 210 690 219 709 q 201 644 201 671 l 201 644 l 201 225 q 209 171 201 191 q 243 150 217 150 z m 325 979 l 325 979 q 259 991 289 979 q 204 1013 229 1002 q 160 1024 180 1024 l 160 1024 q 136 1017 147 1024 q 115 991 125 1009 l 115 991 l 42 1029 q 69 1078 55 1056 q 106 1114 83 1101 q 163 1128 128 1128 l 163 1128 q 226 1118 198 1128 q 278 1097 255 1107 q 319 1087 301 1087 l 319 1087 q 344 1095 333 1087 q 365 1124 355 1104 l 365 1124 l 446 1097 q 420 1040 434 1067 q 384 996 406 1013 q 325 979 361 979 z"},"Ő":{"ha":486,"x_min":64,"x_max":970,"o":"m 243 -8 l 243 -8 q 86 54 140 -8 q 31 234 31 117 l 31 234 l 31 643 q 85 810 31 753 q 243 867 139 867 l 243 867 q 401 810 347 867 q 455 643 455 753 l 455 643 l 455 234 q 401 54 455 117 q 243 -8 346 -8 z m 245 150 l 245 150 q 284 226 284 150 l 284 226 l 284 646 q 246 709 284 709 l 246 709 q 203 644 203 709 l 203 644 l 203 225 q 212 168 203 185 q 245 150 222 150 z m 474 1121 l 333 911 l 251 939 l 359 1173 l 474 1121 z m 306 1121 l 185 911 l 104 939 l 194 1173 l 306 1121 z"},"Ȏ":{"ha":486,"x_min":64,"x_max":932,"o":"m 243 -8 l 243 -8 q 86 54 140 -8 q 31 234 31 117 l 31 234 l 31 643 q 85 810 31 753 q 243 867 139 867 l 243 867 q 401 810 347 867 q 455 643 455 753 l 455 643 l 455 234 q 401 54 455 117 q 243 -8 346 -8 z m 245 150 l 245 150 q 284 226 284 150 l 284 226 l 284 646 q 246 709 284 709 l 246 709 q 203 644 203 709 l 203 644 l 203 225 q 212 168 203 185 q 245 150 222 150 z m 178 912 l 63 912 q 61 932 61 922 l 61 932 q 109 1048 61 1012 q 243 1084 157 1084 l 243 1084 q 378 1047 331 1084 q 426 929 426 1010 l 426 929 q 426 922 426 926 q 425 912 425 917 l 425 912 l 310 912 q 291 961 310 945 q 244 978 272 978 l 244 978 q 197 961 215 978 q 178 912 178 945 l 178 912 z"},"Ō":{"ha":486,"x_min":64,"x_max":932,"o":"m 243 -8 l 243 -8 q 86 54 140 -8 q 31 234 31 117 l 31 234 l 31 643 q 85 810 31 753 q 243 867 139 867 l 243 867 q 401 810 347 867 q 455 643 455 753 l 455 643 l 455 234 q 401 54 455 117 q 243 -8 346 -8 z m 245 150 l 245 150 q 284 226 284 150 l 284 226 l 284 646 q 246 709 284 709 l 246 709 q 203 644 203 709 l 203 644 l 203 225 q 212 168 203 185 q 245 150 222 150 z m 402 917 l 84 917 l 84 992 l 402 992 l 402 917 z"},"Ṓ":{"ha":486,"x_min":64,"x_max":932,"o":"m 243 -8 l 243 -8 q 86 54 140 -8 q 31 234 31 117 l 31 234 l 31 643 q 85 810 31 753 q 243 867 139 867 l 243 867 q 401 810 347 867 q 455 643 455 753 l 455 643 l 455 234 q 401 54 455 117 q 243 -8 346 -8 z m 245 150 l 245 150 q 284 226 284 150 l 284 226 l 284 646 q 246 709 284 709 l 246 709 q 203 644 203 709 l 203 644 l 203 225 q 212 168 203 185 q 245 150 222 150 z m 402 888 l 84 888 l 84 963 l 402 963 l 402 888 z m 359 1021 l 127 985 l 127 1079 l 359 1161 l 359 1021 z"},"Ṑ":{"ha":486,"x_min":64,"x_max":932,"o":"m 243 -8 l 243 -8 q 86 54 140 -8 q 31 234 31 117 l 31 234 l 31 643 q 85 810 31 753 q 243 867 139 867 l 243 867 q 401 810 347 867 q 455 643 455 753 l 455 643 l 455 234 q 401 54 455 117 q 243 -8 346 -8 z m 245 150 l 245 150 q 284 226 284 150 l 284 226 l 284 646 q 246 709 284 709 l 246 709 q 203 644 203 709 l 203 644 l 203 225 q 212 168 203 185 q 245 150 222 150 z m 402 888 l 84 888 l 84 963 l 402 963 l 402 888 z m 359 1079 l 359 985 l 127 1021 l 127 1161 l 359 1079 z"},"Ω":{"ha":484,"x_min":47,"x_max":945,"o":"m 226 0 l 23 0 l 23 120 l 83 120 q 35 347 35 192 l 35 347 l 35 660 q 88 812 35 760 q 242 864 141 864 l 242 864 q 397 812 344 864 q 449 660 449 760 l 449 660 l 449 347 q 402 120 449 192 l 402 120 l 461 120 l 461 0 l 258 0 l 258 121 q 279 169 274 133 q 284 259 284 205 l 284 259 l 284 671 q 276 714 284 697 q 242 731 268 731 l 242 731 q 209 714 217 731 q 201 671 201 697 l 201 671 l 201 259 q 205 169 201 205 q 226 121 210 133 l 226 121 l 226 0 z"},"Ꞷ":{"ha":741,"x_min":64,"x_max":1453,"o":"m 221 -8 l 221 -8 q 77 54 124 -8 q 31 231 31 116 l 31 231 l 31 643 q 54 759 31 708 q 125 838 78 810 q 243 867 172 867 l 243 867 l 243 719 q 212 708 222 719 q 202 673 202 698 l 202 673 l 202 226 q 211 169 202 188 q 244 150 220 150 l 244 150 q 275 170 267 150 q 284 226 284 190 l 284 226 l 284 576 l 457 576 l 457 226 q 466 169 457 188 q 498 150 474 150 l 498 150 q 530 170 521 150 q 539 226 539 190 l 539 226 l 539 673 q 529 708 539 698 q 498 719 519 719 l 498 719 l 498 867 q 616 838 569 867 q 686 759 663 810 q 709 643 709 708 l 709 643 l 709 231 q 663 53 709 114 q 521 -8 617 -8 l 521 -8 q 438 9 477 -8 q 371 71 398 26 l 371 71 q 305 9 343 26 q 221 -8 267 -8 z"},"Ǫ":{"ha":486,"x_min":64,"x_max":932,"o":"m 243 -8 l 243 -8 q 86 54 140 -8 q 31 234 31 117 l 31 234 l 31 643 q 85 810 31 753 q 243 867 139 867 l 243 867 q 401 810 347 867 q 455 643 455 753 l 455 643 l 455 234 q 401 54 455 117 q 243 -8 346 -8 z m 245 150 l 245 150 q 284 226 284 150 l 284 226 l 284 646 q 246 709 284 709 l 246 709 q 203 644 203 709 l 203 644 l 203 225 q 212 168 203 185 q 245 150 222 150 z m 323 -269 l 323 -269 q 238 -251 277 -269 q 177 -201 200 -234 q 153 -122 153 -168 l 153 -122 q 282 39 153 -33 l 282 39 l 385 39 q 333 -23 358 11 q 307 -97 307 -57 l 307 -97 q 363 -152 307 -152 l 363 -152 q 420 -141 387 -152 l 420 -141 l 420 -250 q 323 -269 374 -269 z"},"Ǭ":{"ha":486,"x_min":64,"x_max":932,"o":"m 243 -8 l 243 -8 q 86 54 140 -8 q 31 234 31 117 l 31 234 l 31 643 q 85 810 31 753 q 243 867 139 867 l 243 867 q 401 810 347 867 q 455 643 455 753 l 455 643 l 455 234 q 401 54 455 117 q 243 -8 346 -8 z m 245 150 l 245 150 q 284 226 284 150 l 284 226 l 284 646 q 246 709 284 709 l 246 709 q 203 644 203 709 l 203 644 l 203 225 q 212 168 203 185 q 245 150 222 150 z m 323 -269 l 323 -269 q 238 -251 277 -269 q 177 -201 200 -234 q 153 -122 153 -168 l 153 -122 q 282 39 153 -33 l 282 39 l 385 39 q 330 -25 352 7 q 307 -97 307 -57 l 307 -97 q 363 -152 307 -152 l 363 -152 q 420 -141 387 -152 l 420 -141 l 420 -250 q 323 -269 374 -269 z m 402 888 l 84 888 l 84 963 l 402 963 l 402 888 z"},"Ɔ":{"ha":474,"x_min":39,"x_max":907,"o":"m 236 -8 l 236 -8 q 76 43 133 -8 q 19 208 19 94 l 19 208 l 19 370 l 192 370 l 192 215 q 201 168 192 187 q 232 150 210 150 l 232 150 q 262 165 252 150 q 272 215 272 180 l 272 215 l 272 646 q 264 692 272 674 q 232 709 256 709 l 232 709 q 202 696 211 709 q 192 644 192 682 l 192 644 l 192 517 l 21 517 l 21 665 q 48 778 21 733 q 123 845 76 822 q 232 867 171 867 l 232 867 q 393 801 344 867 q 443 609 443 734 l 443 609 l 443 213 q 386 50 443 108 q 236 -8 329 -8 z"},"Ø":{"ha":486,"x_min":64,"x_max":932,"o":"m 123 -91 l 54 -91 l 90 49 q 31 234 31 112 l 31 234 l 31 643 q 86 810 31 753 q 243 867 140 867 l 243 867 q 320 857 286 867 l 320 857 l 351 977 l 419 977 l 381 828 q 455 643 455 772 l 455 643 l 455 234 q 402 56 455 120 q 243 -8 349 -8 l 243 -8 q 148 9 189 -8 l 148 9 l 123 -91 z m 245 150 l 245 150 q 276 173 269 150 q 284 226 284 195 l 284 226 l 284 646 q 277 689 284 668 q 246 709 271 709 l 246 709 q 212 690 221 709 q 203 644 203 671 l 203 644 l 203 225 q 210 171 203 191 q 245 150 218 150 z"},"Ǿ":{"ha":486,"x_min":64,"x_max":932,"o":"m 123 -91 l 54 -91 l 90 49 q 31 234 31 112 l 31 234 l 31 643 q 86 810 31 753 q 243 867 140 867 l 243 867 q 320 857 286 867 l 320 857 l 351 977 l 419 977 l 381 828 q 455 643 455 772 l 455 643 l 455 234 q 402 56 455 120 q 243 -8 349 -8 l 243 -8 q 148 9 189 -8 l 148 9 l 123 -91 z m 245 150 l 245 150 q 276 173 269 150 q 284 226 284 195 l 284 226 l 284 646 q 277 689 284 668 q 246 709 271 709 l 246 709 q 212 690 221 709 q 203 644 203 671 l 203 644 l 203 225 q 210 171 203 191 q 245 150 218 150 z m 357 998 l 125 952 l 125 1061 l 357 1167 l 357 998 z"},"Õ":{"ha":486,"x_min":64,"x_max":932,"o":"m 243 -8 l 243 -8 q 86 54 140 -8 q 31 234 31 117 l 31 234 l 31 643 q 85 810 31 753 q 243 867 139 867 l 243 867 q 401 810 347 867 q 455 643 455 753 l 455 643 l 455 234 q 401 54 455 117 q 243 -8 346 -8 z m 245 150 l 245 150 q 284 226 284 150 l 284 226 l 284 646 q 246 709 284 709 l 246 709 q 203 644 203 709 l 203 644 l 203 225 q 212 168 203 185 q 245 150 222 150 z m 324 914 l 324 914 q 258 925 288 914 q 204 947 228 936 q 159 958 179 958 l 159 958 q 135 951 146 958 q 114 925 124 943 l 114 925 l 42 963 q 69 1017 54 993 q 105 1057 83 1042 q 163 1072 128 1072 l 163 1072 q 225 1062 197 1072 q 277 1041 253 1051 q 319 1031 300 1031 l 319 1031 q 343 1039 332 1031 q 364 1067 354 1047 l 364 1067 l 445 1041 q 419 979 434 1008 q 383 932 405 950 q 324 914 361 914 z"},"Ṍ":{"ha":486,"x_min":64,"x_max":932,"o":"m 243 -8 l 243 -8 q 86 54 140 -8 q 31 234 31 117 l 31 234 l 31 643 q 85 810 31 753 q 243 867 139 867 l 243 867 q 401 810 347 867 q 455 643 455 753 l 455 643 l 455 234 q 401 54 455 117 q 243 -8 346 -8 z m 245 150 l 245 150 q 284 226 284 150 l 284 226 l 284 646 q 246 709 284 709 l 246 709 q 203 644 203 709 l 203 644 l 203 225 q 212 168 203 185 q 245 150 222 150 z m 324 899 l 324 899 q 258 910 288 899 q 203 932 228 921 q 159 943 179 943 l 159 943 q 135 936 146 943 q 114 910 124 929 l 114 910 l 42 948 q 68 998 54 975 q 105 1034 83 1020 q 162 1047 127 1047 l 162 1047 q 225 1037 197 1047 q 277 1017 254 1027 q 318 1006 300 1006 l 318 1006 q 343 1015 332 1006 q 364 1043 354 1023 l 364 1043 l 445 1017 q 419 959 433 986 q 383 916 405 932 q 324 899 360 899 z m 359 1112 l 127 1076 l 127 1170 l 359 1252 l 359 1112 z"},"Ṏ":{"ha":486,"x_min":64,"x_max":932,"o":"m 243 -8 l 243 -8 q 86 54 140 -8 q 31 234 31 117 l 31 234 l 31 643 q 85 810 31 753 q 243 867 139 867 l 243 867 q 401 810 347 867 q 455 643 455 753 l 455 643 l 455 234 q 401 54 455 117 q 243 -8 346 -8 z m 245 150 l 245 150 q 284 226 284 150 l 284 226 l 284 646 q 246 709 284 709 l 246 709 q 203 644 203 709 l 203 644 l 203 225 q 212 168 203 185 q 245 150 222 150 z m 324 899 l 324 899 q 258 910 288 899 q 203 932 228 921 q 159 943 179 943 l 159 943 q 135 936 146 943 q 114 910 124 929 l 114 910 l 42 948 q 68 998 54 975 q 105 1034 83 1020 q 162 1047 127 1047 l 162 1047 q 225 1037 197 1047 q 277 1017 254 1027 q 318 1006 300 1006 l 318 1006 q 343 1015 332 1006 q 364 1043 354 1023 l 364 1043 l 445 1017 q 419 959 433 986 q 383 916 405 932 q 324 899 360 899 z m 449 1106 l 274 1106 l 274 1228 l 449 1228 l 449 1106 z m 212 1106 l 38 1106 l 38 1228 l 212 1228 l 212 1106 z"},"Ȭ":{"ha":486,"x_min":64,"x_max":932,"o":"m 243 -8 l 243 -8 q 86 54 140 -8 q 31 234 31 117 l 31 234 l 31 643 q 85 810 31 753 q 243 867 139 867 l 243 867 q 401 810 347 867 q 455 643 455 753 l 455 643 l 455 234 q 401 54 455 117 q 243 -8 346 -8 z m 245 150 l 245 150 q 284 226 284 150 l 284 226 l 284 646 q 246 709 284 709 l 246 709 q 203 644 203 709 l 203 644 l 203 225 q 212 168 203 185 q 245 150 222 150 z m 324 899 l 324 899 q 258 910 288 899 q 203 932 228 921 q 159 943 179 943 l 159 943 q 135 936 146 943 q 114 910 124 929 l 114 910 l 42 948 q 68 998 54 975 q 105 1034 83 1020 q 162 1047 127 1047 l 162 1047 q 225 1037 197 1047 q 277 1017 254 1027 q 318 1006 300 1006 l 318 1006 q 343 1015 332 1006 q 364 1043 354 1023 l 364 1043 l 445 1017 q 419 959 433 986 q 383 916 405 932 q 324 899 360 899 z m 402 1087 l 84 1087 l 84 1162 l 402 1162 l 402 1087 z"},"P":{"ha":472,"x_min":78,"x_max":934,"o":"m 207 0 l 38 0 l 38 859 l 265 859 q 378 828 336 859 q 438 737 420 796 q 456 598 456 679 l 456 598 q 441 462 456 520 q 387 372 426 404 q 277 340 348 340 l 277 340 l 207 340 l 207 0 z m 207 703 l 207 495 l 217 495 q 275 521 265 495 q 286 601 286 548 l 286 601 q 276 676 286 649 q 226 703 265 703 l 226 703 l 207 703 z"},"Ṕ":{"ha":472,"x_min":78,"x_max":934,"o":"m 207 0 l 38 0 l 38 859 l 265 859 q 378 828 336 859 q 438 737 420 796 q 456 598 456 679 l 456 598 q 441 462 456 520 q 387 372 426 404 q 277 340 348 340 l 277 340 l 207 340 l 207 0 z m 207 703 l 207 495 l 217 495 q 275 521 265 495 q 286 601 286 548 l 286 601 q 276 676 286 649 q 226 703 265 703 l 226 703 l 207 703 z m 352 931 l 120 885 l 120 994 l 352 1101 l 352 931 z"},"Ṗ":{"ha":472,"x_min":78,"x_max":934,"o":"m 207 0 l 38 0 l 38 859 l 265 859 q 378 828 336 859 q 438 737 420 796 q 456 598 456 679 l 456 598 q 441 462 456 520 q 387 372 426 404 q 277 340 348 340 l 277 340 l 207 340 l 207 0 z m 207 703 l 207 495 l 217 495 q 275 521 265 495 q 286 601 286 548 l 286 601 q 276 676 286 649 q 226 703 265 703 l 226 703 l 207 703 z m 323 904 l 148 904 l 148 1050 l 323 1050 l 323 904 z"},"Ƥ":{"ha":643,"x_min":5,"x_max":1283,"o":"m 377 0 l 208 0 l 208 715 q 166 697 180 715 q 152 641 152 680 l 152 641 l 152 611 l 2 611 l 2 641 q 54 798 2 737 q 208 859 105 859 l 208 859 l 436 859 q 549 828 507 859 q 608 737 590 796 q 626 598 626 679 l 626 598 q 611 462 626 520 q 557 372 596 404 q 447 340 519 340 l 447 340 l 377 340 l 377 0 z m 377 703 l 377 495 l 387 495 q 446 521 435 495 q 457 601 457 548 l 457 601 q 446 676 457 649 q 396 703 436 703 l 396 703 l 377 703 z"},"Ᵽ":{"ha":472,"x_min":0,"x_max":934,"o":"m 207 0 l 38 0 l 38 544 l 0 544 l 0 658 l 38 658 l 38 859 l 265 859 q 378 828 336 859 q 438 737 420 796 q 456 598 456 679 l 456 598 q 441 462 456 520 q 387 372 426 404 q 277 340 348 340 l 277 340 l 207 340 l 207 0 z m 207 544 l 207 495 l 217 495 q 275 521 265 495 q 286 601 286 548 l 286 601 q 276 676 286 649 q 226 703 265 703 l 226 703 l 207 703 l 207 658 l 252 658 l 252 544 l 207 544 z"},"Q":{"ha":494,"x_min":54,"x_max":975,"o":"m 476 11 l 418 -91 l 281 -1 q 233 -8 258 -8 l 233 -8 q 79 52 132 -8 q 26 226 26 111 l 26 226 l 26 641 q 81 810 26 752 q 238 867 135 867 l 238 867 q 396 810 341 867 q 450 641 450 752 l 450 641 l 450 226 q 402 58 450 119 l 402 58 l 476 11 z m 238 150 l 238 150 q 265 164 257 150 q 275 198 273 178 q 277 236 277 218 l 277 236 l 277 638 q 270 687 277 666 q 237 709 262 709 l 237 709 q 204 688 212 709 q 196 639 196 667 l 196 639 l 196 233 q 198 197 196 216 q 209 164 201 177 q 238 150 218 150 z"},"Ɋ":{"ha":512,"x_min":64,"x_max":1059,"o":"m 517 59 l 517 -96 q 407 -80 455 -96 q 331 -30 358 -64 q 303 63 303 5 l 303 63 l 303 65 q 251 9 284 25 q 177 -8 218 -8 l 177 -8 q 83 22 114 -8 q 42 105 52 52 q 31 228 31 159 l 31 228 l 31 632 q 42 754 31 701 q 83 837 52 807 q 177 867 114 867 l 177 867 q 244 846 219 867 q 284 783 269 825 l 284 783 l 284 859 l 455 859 l 455 124 q 469 74 455 89 q 517 59 484 59 l 517 59 z m 244 136 l 244 136 q 275 157 267 136 q 284 210 284 179 l 284 210 l 284 649 q 275 702 284 681 q 244 724 267 724 l 244 724 q 210 704 219 724 q 202 649 202 684 l 202 649 l 202 210 q 210 156 202 176 q 244 136 219 136 z"},"R":{"ha":477,"x_min":78,"x_max":938,"o":"m 212 0 l 38 0 l 38 859 l 302 859 q 401 829 368 859 q 447 745 435 799 q 458 619 458 691 l 458 619 q 440 506 458 548 q 373 448 422 464 l 373 448 q 430 408 414 440 q 446 325 446 376 l 446 325 l 446 0 l 277 0 l 277 336 q 261 383 277 374 q 212 392 246 392 l 212 392 l 212 0 z m 213 700 l 213 541 l 254 541 q 290 619 290 541 l 290 619 q 282 685 290 669 q 253 700 274 700 l 253 700 l 213 700 z"},"Ŕ":{"ha":477,"x_min":78,"x_max":938,"o":"m 212 0 l 38 0 l 38 859 l 302 859 q 401 829 368 859 q 447 745 435 799 q 458 619 458 691 l 458 619 q 440 506 458 548 q 373 448 422 464 l 373 448 q 430 408 414 440 q 446 325 446 376 l 446 325 l 446 0 l 277 0 l 277 336 q 261 383 277 374 q 212 392 246 392 l 212 392 l 212 0 z m 213 700 l 213 541 l 254 541 q 290 619 290 541 l 290 619 q 282 685 290 669 q 253 700 274 700 l 253 700 l 213 700 z m 350 931 l 118 885 l 118 994 l 350 1101 l 350 931 z"},"Ř":{"ha":477,"x_min":34,"x_max":938,"o":"m 212 0 l 38 0 l 38 859 l 302 859 q 401 829 368 859 q 447 745 435 799 q 458 619 458 691 l 458 619 q 440 506 458 548 q 373 448 422 464 l 373 448 q 430 408 414 440 q 446 325 446 376 l 446 325 l 446 0 l 277 0 l 277 336 q 261 383 277 374 q 212 392 246 392 l 212 392 l 212 0 z m 213 700 l 213 541 l 254 541 q 290 619 290 541 l 290 619 q 282 685 290 669 q 253 700 274 700 l 253 700 l 213 700 z m 333 904 l 134 904 l 17 1101 l 192 1101 l 234 961 l 276 1101 l 451 1101 l 333 904 z"},"Ŗ":{"ha":477,"x_min":78,"x_max":938,"o":"m 212 0 l 38 0 l 38 859 l 302 859 q 401 829 368 859 q 447 745 435 799 q 458 619 458 691 l 458 619 q 440 506 458 548 q 373 448 422 464 l 373 448 q 430 408 414 440 q 446 325 446 376 l 446 325 l 446 0 l 277 0 l 277 336 q 261 383 277 374 q 212 392 246 392 l 212 392 l 212 0 z m 213 700 l 213 541 l 254 541 q 290 619 290 541 l 290 619 q 282 685 290 669 q 253 700 274 700 l 253 700 l 213 700 z m 287 -314 l 184 -314 l 216 -199 l 154 -199 l 154 -53 l 336 -53 l 336 -194 l 287 -314 z"},"Ȑ":{"ha":477,"x_min":-7,"x_max":938,"o":"m 212 0 l 38 0 l 38 859 l 302 859 q 401 829 368 859 q 447 745 435 799 q 458 619 458 691 l 458 619 q 440 506 458 548 q 373 448 422 464 l 373 448 q 430 408 414 440 q 446 325 446 376 l 446 325 l 446 0 l 277 0 l 277 336 q 261 383 277 374 q 212 392 246 392 l 212 392 l 212 0 z m 213 700 l 213 541 l 254 541 q 290 619 290 541 l 290 619 q 282 685 290 669 q 253 700 274 700 l 253 700 l 213 700 z m 219 930 l 138 901 l -3 1111 l 111 1164 l 219 930 z m 366 930 l 285 901 l 164 1111 l 276 1164 l 366 930 z"},"Ṙ":{"ha":477,"x_min":78,"x_max":938,"o":"m 212 0 l 38 0 l 38 859 l 302 859 q 401 829 368 859 q 447 745 435 799 q 458 619 458 691 l 458 619 q 440 506 458 548 q 373 448 422 464 l 373 448 q 430 408 414 440 q 446 325 446 376 l 446 325 l 446 0 l 277 0 l 277 336 q 261 383 277 374 q 212 392 246 392 l 212 392 l 212 0 z m 213 700 l 213 541 l 254 541 q 290 619 290 541 l 290 619 q 282 685 290 669 q 253 700 274 700 l 253 700 l 213 700 z m 321 904 l 146 904 l 146 1050 l 321 1050 l 321 904 z"},"Ṛ":{"ha":477,"x_min":78,"x_max":938,"o":"m 212 0 l 38 0 l 38 859 l 302 859 q 401 829 368 859 q 447 745 435 799 q 458 619 458 691 l 458 619 q 440 506 458 548 q 373 448 422 464 l 373 448 q 430 408 414 440 q 446 325 446 376 l 446 325 l 446 0 l 277 0 l 277 336 q 261 383 277 374 q 212 392 246 392 l 212 392 l 212 0 z m 213 700 l 213 541 l 254 541 q 290 619 290 541 l 290 619 q 282 685 290 669 q 253 700 274 700 l 253 700 l 213 700 z m 339 -204 l 164 -204 l 164 -58 l 339 -58 l 339 -204 z"},"Ṝ":{"ha":477,"x_min":78,"x_max":938,"o":"m 212 0 l 38 0 l 38 859 l 302 859 q 401 829 368 859 q 447 745 435 799 q 458 619 458 691 l 458 619 q 440 506 458 548 q 373 448 422 464 l 373 448 q 430 408 414 440 q 446 325 446 376 l 446 325 l 446 0 l 277 0 l 277 336 q 261 383 277 374 q 212 392 246 392 l 212 392 l 212 0 z m 213 700 l 213 541 l 254 541 q 290 619 290 541 l 290 619 q 282 685 290 669 q 253 700 274 700 l 253 700 l 213 700 z m 339 -204 l 164 -204 l 164 -58 l 339 -58 l 339 -204 z m 393 917 l 75 917 l 75 992 l 393 992 l 393 917 z"},"Ȓ":{"ha":477,"x_min":78,"x_max":938,"o":"m 212 0 l 38 0 l 38 859 l 302 859 q 401 829 368 859 q 447 745 435 799 q 458 619 458 691 l 458 619 q 440 506 458 548 q 373 448 422 464 l 373 448 q 430 408 414 440 q 446 325 446 376 l 446 325 l 446 0 l 277 0 l 277 336 q 261 383 277 374 q 212 392 246 392 l 212 392 l 212 0 z m 213 700 l 213 541 l 254 541 q 290 619 290 541 l 290 619 q 282 685 290 669 q 253 700 274 700 l 253 700 l 213 700 z m 168 912 l 53 912 q 51 932 51 922 l 51 932 q 99 1048 51 1012 q 233 1084 147 1084 l 233 1084 q 368 1047 321 1084 q 416 929 416 1010 l 416 929 q 416 922 416 926 q 415 912 416 917 l 415 912 l 300 912 q 281 961 300 945 q 234 978 263 978 l 234 978 q 187 961 206 978 q 168 912 168 945 l 168 912 z"},"Ṟ":{"ha":477,"x_min":78,"x_max":938,"o":"m 212 0 l 38 0 l 38 859 l 302 859 q 401 829 368 859 q 447 745 435 799 q 458 619 458 691 l 458 619 q 440 506 458 548 q 373 448 422 464 l 373 448 q 430 408 414 440 q 446 325 446 376 l 446 325 l 446 0 l 277 0 l 277 336 q 261 383 277 374 q 212 392 246 392 l 212 392 l 212 0 z m 213 700 l 213 541 l 254 541 q 290 619 290 541 l 290 619 q 282 685 290 669 q 253 700 274 700 l 253 700 l 213 700 z m 410 -133 l 93 -133 l 93 -58 l 410 -58 l 410 -133 z"},"Ɍ":{"ha":477,"x_min":0,"x_max":938,"o":"m 212 0 l 38 0 l 38 412 l 0 412 l 0 525 l 38 525 l 38 859 l 302 859 q 401 829 368 859 q 447 745 435 799 q 458 619 458 691 l 458 619 q 440 506 458 548 q 373 448 422 464 l 373 448 q 430 408 414 440 q 446 325 446 376 l 446 325 l 446 0 l 277 0 l 277 336 q 261 383 277 374 q 212 392 246 392 l 212 392 l 212 0 z m 213 700 l 213 541 l 254 541 q 290 619 290 541 l 290 619 q 282 685 290 669 q 253 700 274 700 l 253 700 l 213 700 z"},"Ɽ":{"ha":477,"x_min":78,"x_max":938,"o":"m 246 59 l 246 -96 q 139 -72 187 -96 q 65 -2 92 -48 q 38 113 38 44 l 38 113 l 38 859 l 302 859 q 401 829 368 859 q 447 745 435 799 q 458 619 458 691 l 458 619 q 440 506 458 548 q 373 448 422 464 l 373 448 q 430 408 414 440 q 446 325 446 376 l 446 325 l 446 0 l 277 0 l 277 336 q 261 383 277 374 q 212 392 246 392 l 212 392 l 212 123 q 222 70 212 82 q 246 59 231 59 l 246 59 z m 213 700 l 213 541 l 254 541 q 290 619 290 541 l 290 619 q 282 685 290 669 q 253 700 274 700 l 253 700 l 213 700 z"},"S":{"ha":461,"x_min":42,"x_max":906,"o":"m 242 -8 l 242 -8 q 73 51 125 -8 q 21 237 21 109 l 21 237 l 21 321 l 190 321 l 190 214 q 199 167 190 184 q 231 150 208 150 l 231 150 q 263 164 254 150 q 272 209 272 178 l 272 209 q 265 275 272 249 q 238 326 257 302 q 184 382 218 350 l 184 382 l 107 456 q 21 642 21 537 l 21 642 q 72 810 21 752 q 219 867 123 867 l 219 867 q 387 804 337 867 q 437 613 437 741 l 437 613 l 262 613 l 262 672 q 252 699 262 689 q 225 709 242 709 l 225 709 q 195 698 204 709 q 185 668 185 686 l 185 668 q 195 629 185 650 q 233 581 205 608 l 233 581 l 333 485 q 387 426 362 457 q 427 352 412 394 q 442 250 442 311 l 442 250 q 398 61 442 129 q 242 -8 353 -8 z"},"Ś":{"ha":461,"x_min":42,"x_max":906,"o":"m 242 -8 l 242 -8 q 73 51 125 -8 q 21 237 21 109 l 21 237 l 21 321 l 190 321 l 190 214 q 199 167 190 184 q 231 150 208 150 l 231 150 q 263 164 254 150 q 272 209 272 178 l 272 209 q 265 275 272 249 q 238 326 257 302 q 184 382 218 350 l 184 382 l 107 456 q 21 642 21 537 l 21 642 q 72 810 21 752 q 219 867 123 867 l 219 867 q 387 804 337 867 q 437 613 437 741 l 437 613 l 262 613 l 262 672 q 252 699 262 689 q 225 709 242 709 l 225 709 q 195 698 204 709 q 185 668 185 686 l 185 668 q 195 629 185 650 q 233 581 205 608 l 233 581 l 333 485 q 387 426 362 457 q 427 352 412 394 q 442 250 442 311 l 442 250 q 398 61 442 129 q 242 -8 353 -8 z m 344 931 l 112 885 l 112 994 l 344 1101 l 344 931 z"},"Ṥ":{"ha":461,"x_min":42,"x_max":906,"o":"m 242 -8 l 242 -8 q 73 51 125 -8 q 21 237 21 109 l 21 237 l 21 321 l 190 321 l 190 214 q 199 167 190 184 q 231 150 208 150 l 231 150 q 263 164 254 150 q 272 209 272 178 l 272 209 q 265 275 272 249 q 238 326 257 302 q 184 382 218 350 l 184 382 l 107 456 q 21 642 21 537 l 21 642 q 72 810 21 752 q 219 867 123 867 l 219 867 q 387 804 337 867 q 437 613 437 741 l 437 613 l 262 613 l 262 672 q 252 699 262 689 q 225 709 242 709 l 225 709 q 195 698 204 709 q 185 668 185 686 l 185 668 q 195 629 185 650 q 233 581 205 608 l 233 581 l 333 485 q 387 426 362 457 q 427 352 412 394 q 442 250 442 311 l 442 250 q 398 61 442 129 q 242 -8 353 -8 z m 346 911 l 114 875 l 114 969 l 346 1051 l 346 911 z m 317 1060 l 142 1060 l 142 1186 l 317 1186 l 317 1060 z"},"Ꞌ":{"ha":229,"x_min":55,"x_max":413,"o":"m 167 234 l 61 234 l 27 859 l 202 859 l 167 234 z"},"Š":{"ha":461,"x_min":23,"x_max":913,"o":"m 242 -8 l 242 -8 q 73 51 125 -8 q 21 237 21 109 l 21 237 l 21 321 l 190 321 l 190 214 q 199 167 190 184 q 231 150 208 150 l 231 150 q 263 164 254 150 q 272 209 272 178 l 272 209 q 265 275 272 249 q 238 326 257 302 q 184 382 218 350 l 184 382 l 107 456 q 21 642 21 537 l 21 642 q 72 810 21 752 q 219 867 123 867 l 219 867 q 387 804 337 867 q 437 613 437 741 l 437 613 l 262 613 l 262 672 q 252 699 262 689 q 225 709 242 709 l 225 709 q 195 698 204 709 q 185 668 185 686 l 185 668 q 195 629 185 650 q 233 581 205 608 l 233 581 l 333 485 q 387 426 362 457 q 427 352 412 394 q 442 250 442 311 l 442 250 q 398 61 442 129 q 242 -8 353 -8 z m 328 904 l 129 904 l 11 1101 l 187 1101 l 229 961 l 271 1101 l 446 1101 l 328 904 z"},"Ṧ":{"ha":461,"x_min":42,"x_max":906,"o":"m 317 1038 l 142 1038 l 142 1164 l 317 1164 l 317 1038 z m 302 897 l 158 897 l 42 1021 l 182 1021 l 230 955 l 278 1021 l 417 1021 l 302 897 z m 242 -8 l 242 -8 q 73 51 125 -8 q 21 237 21 109 l 21 237 l 21 321 l 190 321 l 190 214 q 199 167 190 184 q 231 150 208 150 l 231 150 q 263 164 254 150 q 272 209 272 178 l 272 209 q 265 275 272 249 q 238 326 257 302 q 184 382 218 350 l 184 382 l 107 456 q 21 642 21 537 l 21 642 q 72 810 21 752 q 219 867 123 867 l 219 867 q 387 804 337 867 q 437 613 437 741 l 437 613 l 262 613 l 262 672 q 252 699 262 689 q 225 709 242 709 l 225 709 q 195 698 204 709 q 185 668 185 686 l 185 668 q 195 629 185 650 q 233 581 205 608 l 233 581 l 333 485 q 387 426 362 457 q 427 352 412 394 q 442 250 442 311 l 442 250 q 398 61 442 129 q 242 -8 353 -8 z"},"Ş":{"ha":461,"x_min":42,"x_max":906,"o":"m 242 -8 l 242 -8 q 73 51 125 -8 q 21 237 21 109 l 21 237 l 21 321 l 190 321 l 190 214 q 199 167 190 184 q 231 150 208 150 l 231 150 q 263 164 254 150 q 272 209 272 178 l 272 209 q 265 275 272 249 q 238 326 257 302 q 184 382 218 350 l 184 382 l 107 456 q 21 642 21 537 l 21 642 q 72 810 21 752 q 219 867 123 867 l 219 867 q 387 804 337 867 q 437 613 437 741 l 437 613 l 262 613 l 262 672 q 252 699 262 689 q 225 709 242 709 l 225 709 q 195 698 204 709 q 185 668 185 686 l 185 668 q 195 629 185 650 q 233 581 205 608 l 233 581 l 333 485 q 387 426 362 457 q 427 352 412 394 q 442 250 442 311 l 442 250 q 398 61 442 129 q 242 -8 353 -8 z m 220 -308 l 220 -308 q 123 -289 169 -308 l 123 -289 l 123 -180 q 153 -188 138 -185 q 181 -191 167 -191 l 181 -191 q 221 -178 205 -191 q 238 -133 238 -165 l 238 -133 q 224 -71 238 -106 q 187 0 211 -36 l 187 0 l 266 0 q 339 -93 313 -42 q 365 -189 365 -144 l 365 -189 q 331 -274 365 -239 q 220 -308 296 -308 z"},"Ə":{"ha":488,"x_min":64,"x_max":932,"o":"m 244 -8 l 244 -8 q 135 15 183 -8 q 61 82 88 37 q 33 194 33 127 l 33 194 l 33 435 l 285 435 l 285 644 q 274 694 285 680 q 244 709 264 709 l 244 709 q 213 691 222 709 q 204 644 204 673 l 204 644 l 204 531 l 31 531 l 31 652 q 88 816 31 765 q 248 867 146 867 l 248 867 q 398 809 341 867 q 455 646 455 751 l 455 646 l 455 250 q 406 59 455 125 q 244 -8 356 -8 z m 244 150 l 244 150 q 276 168 268 150 q 285 214 285 186 l 285 214 l 285 303 l 204 303 l 204 216 q 214 164 204 177 q 244 150 224 150 z"},"Ŝ":{"ha":461,"x_min":23,"x_max":913,"o":"m 242 -8 l 242 -8 q 73 51 125 -8 q 21 237 21 109 l 21 237 l 21 321 l 190 321 l 190 214 q 199 167 190 184 q 231 150 208 150 l 231 150 q 263 164 254 150 q 272 209 272 178 l 272 209 q 265 275 272 249 q 238 326 257 302 q 184 382 218 350 l 184 382 l 107 456 q 21 642 21 537 l 21 642 q 72 810 21 752 q 219 867 123 867 l 219 867 q 387 804 337 867 q 437 613 437 741 l 437 613 l 262 613 l 262 672 q 252 699 262 689 q 225 709 242 709 l 225 709 q 195 698 204 709 q 185 668 185 686 l 185 668 q 195 629 185 650 q 233 581 205 608 l 233 581 l 333 485 q 387 426 362 457 q 427 352 412 394 q 442 250 442 311 l 442 250 q 398 61 442 129 q 242 -8 353 -8 z m 187 904 l 11 904 l 129 1101 l 328 1101 l 446 904 l 271 904 l 229 1043 l 187 904 z"},"Ș":{"ha":461,"x_min":42,"x_max":906,"o":"m 242 -8 l 242 -8 q 73 51 125 -8 q 21 237 21 109 l 21 237 l 21 321 l 190 321 l 190 214 q 199 167 190 184 q 231 150 208 150 l 231 150 q 263 164 254 150 q 272 209 272 178 l 272 209 q 265 275 272 249 q 238 326 257 302 q 184 382 218 350 l 184 382 l 107 456 q 21 642 21 537 l 21 642 q 72 810 21 752 q 219 867 123 867 l 219 867 q 387 804 337 867 q 437 613 437 741 l 437 613 l 262 613 l 262 672 q 252 699 262 689 q 225 709 242 709 l 225 709 q 195 698 204 709 q 185 668 185 686 l 185 668 q 195 629 185 650 q 233 581 205 608 l 233 581 l 333 485 q 387 426 362 457 q 427 352 412 394 q 442 250 442 311 l 442 250 q 398 61 442 129 q 242 -8 353 -8 z m 268 -314 l 165 -314 l 197 -199 l 135 -199 l 135 -53 l 317 -53 l 317 -194 l 268 -314 z"},"Ṡ":{"ha":461,"x_min":42,"x_max":906,"o":"m 242 -8 l 242 -8 q 73 51 125 -8 q 21 237 21 109 l 21 237 l 21 321 l 190 321 l 190 214 q 199 167 190 184 q 231 150 208 150 l 231 150 q 263 164 254 150 q 272 209 272 178 l 272 209 q 265 275 272 249 q 238 326 257 302 q 184 382 218 350 l 184 382 l 107 456 q 21 642 21 537 l 21 642 q 72 810 21 752 q 219 867 123 867 l 219 867 q 387 804 337 867 q 437 613 437 741 l 437 613 l 262 613 l 262 672 q 252 699 262 689 q 225 709 242 709 l 225 709 q 195 698 204 709 q 185 668 185 686 l 185 668 q 195 629 185 650 q 233 581 205 608 l 233 581 l 333 485 q 387 426 362 457 q 427 352 412 394 q 442 250 442 311 l 442 250 q 398 61 442 129 q 242 -8 353 -8 z m 316 904 l 141 904 l 141 1050 l 316 1050 l 316 904 z"},"Ṣ":{"ha":461,"x_min":42,"x_max":906,"o":"m 242 -8 l 242 -8 q 73 51 125 -8 q 21 237 21 109 l 21 237 l 21 321 l 190 321 l 190 214 q 199 167 190 184 q 231 150 208 150 l 231 150 q 263 164 254 150 q 272 209 272 178 l 272 209 q 265 275 272 249 q 238 326 257 302 q 184 382 218 350 l 184 382 l 107 456 q 21 642 21 537 l 21 642 q 72 810 21 752 q 219 867 123 867 l 219 867 q 387 804 337 867 q 437 613 437 741 l 437 613 l 262 613 l 262 672 q 252 699 262 689 q 225 709 242 709 l 225 709 q 195 698 204 709 q 185 668 185 686 l 185 668 q 195 629 185 650 q 233 581 205 608 l 233 581 l 333 485 q 387 426 362 457 q 427 352 412 394 q 442 250 442 311 l 442 250 q 398 61 442 129 q 242 -8 353 -8 z m 320 -204 l 145 -204 l 145 -58 l 320 -58 l 320 -204 z"},"Ṩ":{"ha":461,"x_min":42,"x_max":906,"o":"m 242 -8 l 242 -8 q 73 51 125 -8 q 21 237 21 109 l 21 237 l 21 321 l 190 321 l 190 214 q 199 167 190 184 q 231 150 208 150 l 231 150 q 263 164 254 150 q 272 209 272 178 l 272 209 q 265 275 272 249 q 238 326 257 302 q 184 382 218 350 l 184 382 l 107 456 q 21 642 21 537 l 21 642 q 72 810 21 752 q 219 867 123 867 l 219 867 q 387 804 337 867 q 437 613 437 741 l 437 613 l 262 613 l 262 672 q 252 699 262 689 q 225 709 242 709 l 225 709 q 195 698 204 709 q 185 668 185 686 l 185 668 q 195 629 185 650 q 233 581 205 608 l 233 581 l 333 485 q 387 426 362 457 q 427 352 412 394 q 442 250 442 311 l 442 250 q 398 61 442 129 q 242 -8 353 -8 z m 320 -204 l 145 -204 l 145 -58 l 320 -58 l 320 -204 z m 316 904 l 141 904 l 141 1050 l 316 1050 l 316 904 z"},"Σ":{"ha":408,"x_min":62,"x_max":795,"o":"m 388 -58 l 30 -58 l 30 73 l 195 401 l 30 710 l 30 859 l 380 859 l 380 705 l 189 705 l 338 423 l 338 386 l 189 86 l 388 86 l 388 -58 z"},"Ꞩ":{"ha":461,"x_min":42,"x_max":906,"o":"m 242 -8 l 242 -8 q 73 51 125 -8 q 21 237 21 109 l 21 237 l 21 321 l 190 321 l 190 214 q 199 167 190 184 q 231 150 208 150 l 231 150 q 263 164 254 150 q 272 209 272 178 l 272 209 q 265 275 272 249 q 238 326 257 302 q 184 382 218 350 l 184 382 l 172 393 l 31 359 l 31 479 l 75 490 q 21 642 21 558 l 21 642 q 72 810 21 752 q 219 867 123 867 l 219 867 q 387 804 337 867 q 437 613 437 741 l 437 613 l 262 613 l 262 672 q 252 699 262 689 q 225 709 242 709 l 225 709 q 195 698 204 709 q 185 668 185 686 l 185 668 q 195 629 185 650 q 233 581 205 608 l 233 581 l 277 539 l 427 574 l 427 454 l 375 441 q 423 362 404 407 q 442 250 442 318 l 442 250 q 398 61 442 129 q 242 -8 353 -8 z"},"T":{"ha":396,"x_min":20,"x_max":790,"o":"m 284 0 l 112 0 l 112 694 l 10 694 l 10 859 l 386 859 l 386 694 l 284 694 l 284 0 z"},"Ŧ":{"ha":396,"x_min":20,"x_max":790,"o":"m 10 859 l 386 859 l 386 694 l 284 694 l 284 481 l 355 481 l 355 367 l 284 367 l 284 0 l 112 0 l 112 367 l 38 367 l 38 481 l 112 481 l 112 694 l 10 694 l 10 859 z"},"Ť":{"ha":396,"x_min":-40,"x_max":850,"o":"m 284 0 l 112 0 l 112 694 l 10 694 l 10 859 l 386 859 l 386 694 l 284 694 l 284 0 z m 297 904 l 98 904 l -20 1101 l 156 1101 l 198 961 l 240 1101 l 415 1101 l 297 904 z"},"Ţ":{"ha":396,"x_min":20,"x_max":790,"o":"m 284 0 l 112 0 l 112 694 l 10 694 l 10 859 l 386 859 l 386 694 l 284 694 l 284 0 z m 184 -308 l 184 -308 q 87 -289 133 -308 l 87 -289 l 87 -180 q 117 -188 102 -185 q 145 -191 131 -191 l 145 -191 q 185 -178 169 -191 q 202 -133 202 -165 l 202 -133 q 188 -71 202 -106 q 151 0 175 -36 l 151 0 l 229 0 q 303 -93 277 -42 q 329 -189 329 -144 l 329 -189 q 294 -274 329 -239 q 184 -308 260 -308 z"},"Ṱ":{"ha":396,"x_min":-40,"x_max":850,"o":"m 284 0 l 112 0 l 112 694 l 10 694 l 10 859 l 386 859 l 386 694 l 284 694 l 284 0 z m 156 -250 l -20 -250 l 98 -53 l 297 -53 l 415 -250 l 240 -250 l 198 -111 l 156 -250 z"},"Ț":{"ha":396,"x_min":20,"x_max":790,"o":"m 284 0 l 112 0 l 112 694 l 10 694 l 10 859 l 386 859 l 386 694 l 284 694 l 284 0 z m 243 -314 l 140 -314 l 172 -199 l 110 -199 l 110 -53 l 292 -53 l 292 -194 l 243 -314 z"},"Ⱦ":{"ha":396,"x_min":6,"x_max":790,"o":"m 71 -91 l 3 -91 l 110 325 l 112 325 l 112 694 l 10 694 l 10 859 l 272 859 l 302 977 l 371 977 l 340 859 l 386 859 l 386 694 l 284 694 l 284 0 l 112 0 l 112 66 l 71 -91 z"},"Ṫ":{"ha":396,"x_min":20,"x_max":790,"o":"m 284 0 l 112 0 l 112 694 l 10 694 l 10 859 l 386 859 l 386 694 l 284 694 l 284 0 z m 285 904 l 110 904 l 110 1050 l 285 1050 l 285 904 z"},"Ṭ":{"ha":396,"x_min":20,"x_max":790,"o":"m 284 0 l 112 0 l 112 694 l 10 694 l 10 859 l 386 859 l 386 694 l 284 694 l 284 0 z m 285 -204 l 110 -204 l 110 -58 l 285 -58 l 285 -204 z"},"Ƭ":{"ha":488,"x_min":-5,"x_max":980,"o":"m 376 0 l 205 0 l 205 694 l 204 694 q 161 677 175 694 q 147 620 147 659 l 147 620 l 147 611 l -2 611 l -2 641 q 20 754 -2 705 q 89 831 43 803 q 203 859 134 859 l 203 859 l 479 859 l 479 694 l 376 694 l 376 0 z"},"Þ":{"ha":462,"x_min":62,"x_max":918,"o":"m 199 0 l 30 0 l 30 859 l 199 859 l 199 740 l 257 740 q 374 706 333 740 q 432 613 416 672 q 448 475 448 553 l 448 475 q 435 341 448 400 q 382 247 421 281 q 269 212 344 212 l 269 212 l 199 212 l 199 0 z m 199 599 l 199 352 l 209 352 q 264 376 249 352 q 278 472 278 400 l 278 472 q 275 538 278 510 q 259 583 271 567 q 218 599 247 599 l 218 599 l 199 599 z"},"Ṯ":{"ha":396,"x_min":20,"x_max":790,"o":"m 284 0 l 112 0 l 112 694 l 10 694 l 10 859 l 386 859 l 386 694 l 284 694 l 284 0 z m 356 -133 l 39 -133 l 39 -58 l 356 -58 l 356 -133 z"},"Ʈ":{"ha":396,"x_min":20,"x_max":790,"o":"m 318 59 l 318 -96 q 170 -43 228 -96 q 112 113 112 10 l 112 113 l 112 694 l 10 694 l 10 859 l 386 859 l 386 694 l 284 694 l 284 123 q 293 70 284 82 q 318 59 303 59 l 318 59 z"},"U":{"ha":474,"x_min":57,"x_max":913,"o":"m 237 -8 l 237 -8 q 79 52 129 -8 q 28 230 28 113 l 28 230 l 28 859 l 195 859 l 195 237 q 197 196 195 215 q 208 163 200 176 q 237 150 217 150 l 237 150 q 266 163 257 150 q 277 195 274 175 q 279 237 279 215 l 279 237 l 279 859 l 446 859 l 446 230 q 395 52 446 113 q 237 -8 344 -8 z"},"Ú":{"ha":474,"x_min":57,"x_max":913,"o":"m 237 -8 l 237 -8 q 79 52 129 -8 q 28 230 28 113 l 28 230 l 28 859 l 195 859 l 195 237 q 197 196 195 215 q 208 163 200 176 q 237 150 217 150 l 237 150 q 266 163 257 150 q 277 195 274 175 q 279 237 279 215 l 279 237 l 279 859 l 446 859 l 446 230 q 395 52 446 113 q 237 -8 344 -8 z m 353 931 l 121 885 l 121 994 l 353 1101 l 353 931 z"},"Ʉ":{"ha":508,"x_min":-10,"x_max":1050,"o":"m 254 -8 l 254 -8 q 96 52 146 -8 q 45 230 45 113 l 45 230 l 45 445 l -5 445 l -5 553 l 45 553 l 45 859 l 212 859 l 212 553 l 296 553 l 296 859 l 463 859 l 463 553 l 513 553 l 513 445 l 463 445 l 463 230 q 412 52 463 113 q 254 -8 361 -8 z m 212 445 l 212 237 q 214 196 212 215 q 226 163 217 176 q 254 150 234 150 l 254 150 q 283 163 274 150 q 294 195 292 175 q 296 237 296 215 l 296 237 l 296 445 l 212 445 z"},"Ŭ":{"ha":474,"x_min":57,"x_max":913,"o":"m 237 -8 l 237 -8 q 79 52 129 -8 q 28 230 28 113 l 28 230 l 28 859 l 195 859 l 195 237 q 197 196 195 215 q 208 163 200 176 q 237 150 217 150 l 237 150 q 266 163 257 150 q 277 195 274 175 q 279 237 279 215 l 279 237 l 279 859 l 446 859 l 446 230 q 395 52 446 113 q 237 -8 344 -8 z m 238 904 l 238 904 q 100 940 153 904 q 47 1056 47 977 l 47 1056 q 48 1077 47 1066 l 48 1077 l 173 1077 q 188 1034 173 1049 q 239 1020 202 1020 l 239 1020 q 291 1034 277 1020 q 305 1077 305 1049 l 305 1077 l 430 1077 q 431 1067 431 1072 q 431 1060 431 1062 l 431 1060 q 379 941 431 978 q 238 904 326 904 z"},"Ǔ":{"ha":474,"x_min":40,"x_max":930,"o":"m 237 -8 l 237 -8 q 79 52 129 -8 q 28 230 28 113 l 28 230 l 28 859 l 195 859 l 195 237 q 197 196 195 215 q 208 163 200 176 q 237 150 217 150 l 237 150 q 266 163 257 150 q 277 195 274 175 q 279 237 279 215 l 279 237 l 279 859 l 446 859 l 446 230 q 395 52 446 113 q 237 -8 344 -8 z m 336 904 l 137 904 l 20 1101 l 195 1101 l 237 961 l 279 1101 l 454 1101 l 336 904 z"},"Û":{"ha":474,"x_min":40,"x_max":930,"o":"m 237 -8 l 237 -8 q 79 52 129 -8 q 28 230 28 113 l 28 230 l 28 859 l 195 859 l 195 237 q 197 196 195 215 q 208 163 200 176 q 237 150 217 150 l 237 150 q 266 163 257 150 q 277 195 274 175 q 279 237 279 215 l 279 237 l 279 859 l 446 859 l 446 230 q 395 52 446 113 q 237 -8 344 -8 z m 195 904 l 20 904 l 137 1101 l 336 1101 l 454 904 l 279 904 l 237 1043 l 195 904 z"},"Ṷ":{"ha":474,"x_min":40,"x_max":930,"o":"m 237 -8 l 237 -8 q 79 52 129 -8 q 28 230 28 113 l 28 230 l 28 859 l 195 859 l 195 237 q 197 196 195 215 q 208 163 200 176 q 237 150 217 150 l 237 150 q 266 163 257 150 q 277 195 274 175 q 279 237 279 215 l 279 237 l 279 859 l 446 859 l 446 230 q 395 52 446 113 q 237 -8 344 -8 z m 195 -250 l 20 -250 l 137 -53 l 336 -53 l 454 -250 l 279 -250 l 237 -111 l 195 -250 z"},"Ȕ":{"ha":474,"x_min":-1,"x_max":913,"o":"m 237 -8 l 237 -8 q 79 52 129 -8 q 28 230 28 113 l 28 230 l 28 859 l 195 859 l 195 237 q 197 196 195 215 q 208 163 200 176 q 237 150 217 150 l 237 150 q 266 163 257 150 q 277 195 274 175 q 279 237 279 215 l 279 237 l 279 859 l 446 859 l 446 230 q 395 52 446 113 q 237 -8 344 -8 z m 222 930 l 141 901 l 0 1111 l 114 1164 l 222 930 z m 369 930 l 288 901 l 167 1111 l 279 1164 l 369 930 z"},"Ü":{"ha":474,"x_min":57,"x_max":913,"o":"m 237 -8 l 237 -8 q 79 52 129 -8 q 28 230 28 113 l 28 230 l 28 859 l 195 859 l 195 237 q 197 196 195 215 q 208 163 200 176 q 237 150 217 150 l 237 150 q 266 163 257 150 q 277 195 274 175 q 279 237 279 215 l 279 237 l 279 859 l 446 859 l 446 230 q 395 52 446 113 q 237 -8 344 -8 z m 439 908 l 264 908 l 264 1053 l 439 1053 l 439 908 z m 203 908 l 28 908 l 28 1053 l 203 1053 l 203 908 z"},"Ǘ":{"ha":474,"x_min":57,"x_max":913,"o":"m 237 -8 l 237 -8 q 79 52 129 -8 q 28 230 28 113 l 28 230 l 28 859 l 195 859 l 195 237 q 197 196 195 215 q 208 163 200 176 q 237 150 217 150 l 237 150 q 266 163 257 150 q 277 195 274 175 q 279 237 279 215 l 279 237 l 279 859 l 446 859 l 446 230 q 395 52 446 113 q 237 -8 344 -8 z m 442 908 l 268 908 l 268 1029 l 442 1029 l 442 908 z m 206 908 l 31 908 l 31 1029 l 206 1029 l 206 908 z m 353 1107 l 121 1071 l 121 1166 l 353 1248 l 353 1107 z"},"Ṳ":{"ha":474,"x_min":57,"x_max":913,"o":"m 237 -8 l 237 -8 q 79 52 129 -8 q 28 230 28 113 l 28 230 l 28 859 l 195 859 l 195 237 q 197 196 195 215 q 208 163 200 176 q 237 150 217 150 l 237 150 q 266 163 257 150 q 277 195 274 175 q 279 237 279 215 l 279 237 l 279 859 l 446 859 l 446 230 q 395 52 446 113 q 237 -8 344 -8 z m 442 -204 l 268 -204 l 268 -58 l 442 -58 l 442 -204 z m 206 -204 l 31 -204 l 31 -58 l 206 -58 l 206 -204 z"},"Ǚ":{"ha":474,"x_min":57,"x_max":913,"o":"m 309 1076 l 165 1076 l 49 1201 l 188 1201 l 237 1134 l 285 1201 l 424 1201 l 309 1076 z m 442 907 l 268 907 l 268 1028 l 442 1028 l 442 907 z m 206 907 l 31 907 l 31 1028 l 206 1028 l 206 907 z m 237 -8 l 237 -8 q 79 52 129 -8 q 28 230 28 113 l 28 230 l 28 859 l 195 859 l 195 237 q 197 196 195 215 q 208 163 200 176 q 237 150 217 150 l 237 150 q 266 163 257 150 q 277 195 274 175 q 279 237 279 215 l 279 237 l 279 859 l 446 859 l 446 230 q 395 52 446 113 q 237 -8 344 -8 z"},"Ǜ":{"ha":474,"x_min":57,"x_max":913,"o":"m 237 -8 l 237 -8 q 79 52 129 -8 q 28 230 28 113 l 28 230 l 28 859 l 195 859 l 195 237 q 197 196 195 215 q 208 163 200 176 q 237 150 217 150 l 237 150 q 266 163 257 150 q 277 195 274 175 q 279 237 279 215 l 279 237 l 279 859 l 446 859 l 446 230 q 395 52 446 113 q 237 -8 344 -8 z m 442 908 l 268 908 l 268 1029 l 442 1029 l 442 908 z m 206 908 l 31 908 l 31 1029 l 206 1029 l 206 908 z m 353 1166 l 353 1071 l 121 1107 l 121 1248 l 353 1166 z"},"Ǖ":{"ha":474,"x_min":57,"x_max":913,"o":"m 237 -8 l 237 -8 q 79 52 129 -8 q 28 230 28 113 l 28 230 l 28 859 l 195 859 l 195 237 q 197 196 195 215 q 208 163 200 176 q 237 150 217 150 l 237 150 q 266 163 257 150 q 277 195 274 175 q 279 237 279 215 l 279 237 l 279 859 l 446 859 l 446 230 q 395 52 446 113 q 237 -8 344 -8 z m 442 908 l 268 908 l 268 1029 l 442 1029 l 442 908 z m 206 908 l 31 908 l 31 1029 l 206 1029 l 206 908 z m 396 1082 l 78 1082 l 78 1157 l 396 1157 l 396 1082 z"},"Ụ":{"ha":474,"x_min":57,"x_max":913,"o":"m 237 -8 l 237 -8 q 79 52 129 -8 q 28 230 28 113 l 28 230 l 28 859 l 195 859 l 195 237 q 197 196 195 215 q 208 163 200 176 q 237 150 217 150 l 237 150 q 266 163 257 150 q 277 195 274 175 q 279 237 279 215 l 279 237 l 279 859 l 446 859 l 446 230 q 395 52 446 113 q 237 -8 344 -8 z m 324 -204 l 149 -204 l 149 -58 l 324 -58 l 324 -204 z"},"Ù":{"ha":474,"x_min":57,"x_max":913,"o":"m 237 -8 l 237 -8 q 79 52 129 -8 q 28 230 28 113 l 28 230 l 28 859 l 195 859 l 195 237 q 197 196 195 215 q 208 163 200 176 q 237 150 217 150 l 237 150 q 266 163 257 150 q 277 195 274 175 q 279 237 279 215 l 279 237 l 279 859 l 446 859 l 446 230 q 395 52 446 113 q 237 -8 344 -8 z m 353 994 l 353 885 l 121 931 l 121 1101 l 353 994 z"},"Ủ":{"ha":474,"x_min":57,"x_max":913,"o":"m 237 -8 l 237 -8 q 79 52 129 -8 q 28 230 28 113 l 28 230 l 28 859 l 195 859 l 195 237 q 197 196 195 215 q 208 163 200 176 q 237 150 217 150 l 237 150 q 266 163 257 150 q 277 195 274 175 q 279 237 279 215 l 279 237 l 279 859 l 446 859 l 446 230 q 395 52 446 113 q 237 -8 344 -8 z m 223 897 l 223 897 l 171 958 q 213 982 197 967 q 229 1021 229 997 l 229 1021 q 180 1067 229 1067 l 180 1067 q 136 1060 157 1067 l 136 1060 l 136 1147 q 226 1164 179 1164 l 226 1164 q 321 1133 287 1164 q 355 1047 355 1103 l 355 1047 q 317 950 355 985 q 223 897 279 915 z"},"Ư":{"ha":529,"x_min":57,"x_max":1093,"o":"m 237 -8 l 237 -8 q 79 52 129 -8 q 28 230 28 113 l 28 230 l 28 859 l 195 859 l 195 237 q 197 196 195 215 q 208 163 200 176 q 237 150 217 150 l 237 150 q 266 163 257 150 q 277 195 274 175 q 279 237 279 215 l 279 237 l 279 859 l 342 859 q 398 920 398 859 l 398 920 l 398 932 l 534 932 l 534 924 q 509 823 534 860 q 446 770 485 786 l 446 770 l 446 230 q 395 52 446 113 q 237 -8 344 -8 z"},"Ứ":{"ha":529,"x_min":57,"x_max":1093,"o":"m 237 -8 l 237 -8 q 79 52 129 -8 q 28 230 28 113 l 28 230 l 28 859 l 195 859 l 195 237 q 197 196 195 215 q 208 163 200 176 q 237 150 217 150 l 237 150 q 266 163 257 150 q 277 195 274 175 q 279 237 279 215 l 279 237 l 279 859 l 342 859 q 398 920 398 859 l 398 920 l 398 932 l 534 932 l 534 924 q 509 823 534 860 q 446 770 485 786 l 446 770 l 446 230 q 395 52 446 113 q 237 -8 344 -8 z m 353 914 l 121 877 l 121 972 l 353 1054 l 353 914 z"},"Ự":{"ha":529,"x_min":57,"x_max":1093,"o":"m 237 -8 l 237 -8 q 79 52 129 -8 q 28 230 28 113 l 28 230 l 28 859 l 195 859 l 195 237 q 197 196 195 215 q 208 163 200 176 q 237 150 217 150 l 237 150 q 266 163 257 150 q 277 195 274 175 q 279 237 279 215 l 279 237 l 279 859 l 342 859 q 398 920 398 859 l 398 920 l 398 932 l 534 932 l 534 924 q 509 823 534 860 q 446 770 485 786 l 446 770 l 446 230 q 395 52 446 113 q 237 -8 344 -8 z m 324 -204 l 149 -204 l 149 -58 l 324 -58 l 324 -204 z"},"Ừ":{"ha":529,"x_min":57,"x_max":1093,"o":"m 237 -8 l 237 -8 q 79 52 129 -8 q 28 230 28 113 l 28 230 l 28 859 l 195 859 l 195 237 q 197 196 195 215 q 208 163 200 176 q 237 150 217 150 l 237 150 q 266 163 257 150 q 277 195 274 175 q 279 237 279 215 l 279 237 l 279 859 l 342 859 q 398 920 398 859 l 398 920 l 398 932 l 534 932 l 534 924 q 509 823 534 860 q 446 770 485 786 l 446 770 l 446 230 q 395 52 446 113 q 237 -8 344 -8 z m 353 972 l 353 877 l 121 914 l 121 1054 l 353 972 z"},"Ử":{"ha":529,"x_min":57,"x_max":1093,"o":"m 237 -8 l 237 -8 q 79 52 129 -8 q 28 230 28 113 l 28 230 l 28 859 l 195 859 l 195 237 q 197 196 195 215 q 208 163 200 176 q 237 150 217 150 l 237 150 q 266 163 257 150 q 277 195 274 175 q 279 237 279 215 l 279 237 l 279 859 l 342 859 q 398 920 398 859 l 398 920 l 398 932 l 534 932 l 534 924 q 509 823 534 860 q 446 770 485 786 l 446 770 l 446 230 q 395 52 446 113 q 237 -8 344 -8 z m 223 897 l 223 897 l 171 958 q 213 982 197 967 q 229 1021 229 997 l 229 1021 q 180 1067 229 1067 l 180 1067 q 136 1060 157 1067 l 136 1060 l 136 1147 q 226 1164 179 1164 l 226 1164 q 321 1133 287 1164 q 355 1047 355 1103 l 355 1047 q 317 950 355 985 q 223 897 279 915 z"},"Ữ":{"ha":529,"x_min":57,"x_max":1093,"o":"m 293 899 l 293 899 q 233 910 257 899 q 191 932 209 921 q 152 943 172 943 l 152 943 q 128 936 140 943 q 107 910 117 929 l 107 910 l 35 948 q 62 998 47 975 q 98 1034 76 1020 q 156 1047 121 1047 l 156 1047 q 213 1037 190 1047 q 252 1017 235 1027 q 288 1006 269 1006 l 288 1006 q 312 1015 301 1006 q 333 1043 323 1023 l 333 1043 l 414 1017 q 388 959 402 986 q 352 916 374 932 q 293 899 330 899 z m 237 -8 l 237 -8 q 79 52 129 -8 q 28 230 28 113 l 28 230 l 28 859 l 195 859 l 195 237 q 197 196 195 215 q 208 163 200 176 q 237 150 217 150 l 237 150 q 266 163 257 150 q 277 195 274 175 q 279 237 279 215 l 279 237 l 279 859 l 342 859 q 398 920 398 859 l 398 920 l 398 932 l 534 932 l 534 924 q 509 823 534 860 q 446 770 485 786 l 446 770 l 446 230 q 395 52 446 113 q 237 -8 344 -8 z"},"Ű":{"ha":474,"x_min":57,"x_max":1003,"o":"m 237 -8 l 237 -8 q 79 52 129 -8 q 28 230 28 113 l 28 230 l 28 859 l 195 859 l 195 237 q 197 196 195 215 q 208 163 200 176 q 237 150 217 150 l 237 150 q 266 163 257 150 q 277 195 274 175 q 279 237 279 215 l 279 237 l 279 859 l 446 859 l 446 230 q 395 52 446 113 q 237 -8 344 -8 z m 490 1121 l 349 911 l 268 939 l 375 1173 l 490 1121 z m 322 1121 l 201 911 l 120 939 l 210 1173 l 322 1121 z"},"Ȗ":{"ha":474,"x_min":57,"x_max":913,"o":"m 237 -8 l 237 -8 q 79 52 129 -8 q 28 230 28 113 l 28 230 l 28 859 l 195 859 l 195 237 q 197 196 195 215 q 208 163 200 176 q 237 150 217 150 l 237 150 q 266 163 257 150 q 277 195 274 175 q 279 237 279 215 l 279 237 l 279 859 l 446 859 l 446 230 q 395 52 446 113 q 237 -8 344 -8 z m 171 912 l 56 912 q 54 932 54 922 l 54 932 q 102 1048 54 1012 q 236 1084 150 1084 l 236 1084 q 371 1047 324 1084 q 419 929 419 1010 l 419 929 q 419 922 419 926 q 418 912 418 917 l 418 912 l 303 912 q 284 961 303 945 q 237 978 266 978 l 237 978 q 190 961 208 978 q 171 912 171 945 l 171 912 z"},"Ū":{"ha":474,"x_min":57,"x_max":913,"o":"m 237 -8 l 237 -8 q 79 52 129 -8 q 28 230 28 113 l 28 230 l 28 859 l 195 859 l 195 237 q 197 196 195 215 q 208 163 200 176 q 237 150 217 150 l 237 150 q 266 163 257 150 q 277 195 274 175 q 279 237 279 215 l 279 237 l 279 859 l 446 859 l 446 230 q 395 52 446 113 q 237 -8 344 -8 z m 394 917 l 76 917 l 76 992 l 394 992 l 394 917 z"},"Ṻ":{"ha":474,"x_min":57,"x_max":913,"o":"m 237 -8 l 237 -8 q 79 52 129 -8 q 28 230 28 113 l 28 230 l 28 859 l 195 859 l 195 237 q 197 196 195 215 q 208 163 200 176 q 237 150 217 150 l 237 150 q 266 163 257 150 q 277 195 274 175 q 279 237 279 215 l 279 237 l 279 859 l 446 859 l 446 230 q 395 52 446 113 q 237 -8 344 -8 z m 396 917 l 78 917 l 78 992 l 396 992 l 396 917 z m 442 1040 l 268 1040 l 268 1161 l 442 1161 l 442 1040 z m 206 1040 l 31 1040 l 31 1161 l 206 1161 l 206 1040 z"},"Ų":{"ha":474,"x_min":57,"x_max":913,"o":"m 237 -8 l 237 -8 q 79 52 129 -8 q 28 230 28 113 l 28 230 l 28 859 l 195 859 l 195 237 q 197 196 195 215 q 208 163 200 176 q 237 150 217 150 l 237 150 q 266 163 257 150 q 277 195 274 175 q 279 237 279 215 l 279 237 l 279 859 l 446 859 l 446 230 q 395 52 446 113 q 237 -8 344 -8 z m 240 -308 l 240 -308 q 155 -291 194 -308 q 94 -240 117 -273 q 70 -161 70 -207 l 70 -161 q 199 0 70 -72 l 199 0 l 302 0 q 250 -62 275 -28 q 224 -136 224 -96 l 224 -136 q 280 -191 224 -191 l 280 -191 q 337 -180 304 -191 l 337 -180 l 337 -289 q 240 -308 291 -308 z"},"Ʊ":{"ha":484,"x_min":47,"x_max":945,"o":"m 242 -8 l 242 -8 q 88 44 141 -8 q 35 196 35 96 l 35 196 l 35 468 q 83 694 35 622 l 83 694 l 23 694 l 23 859 l 226 859 l 226 694 q 210 672 215 686 q 203 626 205 658 q 201 531 201 594 l 201 531 l 201 186 q 209 143 201 160 q 242 125 217 125 l 242 125 q 276 143 268 125 q 284 186 284 160 l 284 186 l 284 531 q 282 626 284 594 q 274 672 280 658 q 258 694 269 686 l 258 694 l 258 859 l 461 859 l 461 694 l 402 694 q 449 468 449 622 l 449 468 l 449 196 q 397 44 449 96 q 242 -8 344 -8 z"},"Ů":{"ha":474,"x_min":57,"x_max":913,"o":"m 237 -8 l 237 -8 q 79 52 129 -8 q 28 230 28 113 l 28 230 l 28 859 l 195 859 l 195 237 q 197 196 195 215 q 208 163 200 176 q 237 150 217 150 l 237 150 q 266 163 257 150 q 277 195 274 175 q 279 237 279 215 l 279 237 l 279 859 l 446 859 l 446 230 q 395 52 446 113 q 237 -8 344 -8 z m 236 898 l 236 898 q 111 942 158 898 q 64 1063 64 986 l 64 1063 q 111 1185 64 1141 q 236 1229 158 1229 l 236 1229 q 362 1185 315 1229 q 409 1063 409 1141 l 409 1063 q 362 942 409 986 q 236 898 315 898 z m 237 987 l 237 987 q 288 1009 270 987 q 306 1063 306 1032 l 306 1063 q 288 1118 306 1095 q 237 1140 270 1140 l 237 1140 q 186 1118 204 1140 q 167 1063 167 1095 l 167 1063 q 186 1009 167 1032 q 237 987 204 987 z"},"Ũ":{"ha":474,"x_min":57,"x_max":913,"o":"m 237 -8 l 237 -8 q 79 52 129 -8 q 28 230 28 113 l 28 230 l 28 859 l 195 859 l 195 237 q 197 196 195 215 q 208 163 200 176 q 237 150 217 150 l 237 150 q 266 163 257 150 q 277 195 274 175 q 279 237 279 215 l 279 237 l 279 859 l 446 859 l 446 230 q 395 52 446 113 q 237 -8 344 -8 z m 317 914 l 317 914 q 251 925 281 914 q 197 947 221 936 q 152 958 172 958 l 152 958 q 128 951 140 958 q 107 925 117 943 l 107 925 l 35 963 q 62 1017 47 993 q 99 1057 76 1042 q 156 1072 121 1072 l 156 1072 q 219 1062 190 1072 q 270 1041 247 1051 q 312 1031 293 1031 l 312 1031 q 336 1039 325 1031 q 357 1067 348 1047 l 357 1067 l 438 1041 q 413 979 427 1008 q 376 932 398 950 q 317 914 354 914 z"},"Ṹ":{"ha":474,"x_min":57,"x_max":913,"o":"m 237 -8 l 237 -8 q 79 52 129 -8 q 28 230 28 113 l 28 230 l 28 859 l 195 859 l 195 237 q 197 196 195 215 q 208 163 200 176 q 237 150 217 150 l 237 150 q 266 163 257 150 q 277 195 274 175 q 279 237 279 215 l 279 237 l 279 859 l 446 859 l 446 230 q 395 52 446 113 q 237 -8 344 -8 z m 317 899 l 317 899 q 251 910 281 899 q 197 932 221 921 q 152 943 172 943 l 152 943 q 128 936 140 943 q 107 910 117 929 l 107 910 l 35 948 q 62 998 47 975 q 99 1034 76 1020 q 156 1047 121 1047 l 156 1047 q 219 1037 190 1047 q 271 1017 248 1027 q 312 1006 293 1006 l 312 1006 q 336 1015 325 1006 q 357 1043 348 1023 l 357 1043 l 438 1017 q 413 959 427 986 q 376 916 398 932 q 317 899 354 899 z m 353 1112 l 121 1076 l 121 1170 l 353 1252 l 353 1112 z"},"Ṵ":{"ha":474,"x_min":57,"x_max":913,"o":"m 237 -8 l 237 -8 q 79 52 129 -8 q 28 230 28 113 l 28 230 l 28 859 l 195 859 l 195 237 q 197 196 195 215 q 208 163 200 176 q 237 150 217 150 l 237 150 q 266 163 257 150 q 277 195 274 175 q 279 237 279 215 l 279 237 l 279 859 l 446 859 l 446 230 q 395 52 446 113 q 237 -8 344 -8 z m 317 -212 l 317 -212 q 251 -201 281 -212 q 197 -179 221 -190 q 152 -168 172 -168 l 152 -168 q 128 -175 140 -168 q 107 -201 117 -183 l 107 -201 l 35 -163 q 62 -109 47 -133 q 99 -69 76 -84 q 156 -54 121 -54 l 156 -54 q 219 -64 190 -54 q 270 -85 247 -75 q 312 -95 293 -95 l 312 -95 q 336 -87 325 -95 q 357 -59 348 -79 l 357 -59 l 438 -85 q 413 -147 427 -118 q 376 -194 398 -176 q 317 -212 354 -212 z"},"V":{"ha":469,"x_min":23,"x_max":937,"o":"m 352 0 l 117 0 l 11 860 l 175 860 l 238 275 l 294 860 l 458 860 l 352 0 z"},"Ṿ":{"ha":469,"x_min":23,"x_max":937,"o":"m 352 0 l 117 0 l 11 860 l 175 860 l 238 275 l 294 860 l 458 860 l 352 0 z m 322 -204 l 147 -204 l 147 -58 l 322 -58 l 322 -204 z"},"Ʋ":{"ha":445,"x_min":23,"x_max":887,"o":"m 350 0 l 117 0 l 11 854 l 174 854 l 237 273 l 275 667 q 276 673 276 670 q 276 679 276 676 l 276 679 q 245 713 276 713 l 245 713 l 245 860 q 387 822 340 860 q 433 694 433 783 l 433 694 q 429 638 433 670 l 429 638 l 350 0 z"},"Ṽ":{"ha":469,"x_min":23,"x_max":937,"o":"m 352 0 l 117 0 l 11 860 l 175 860 l 238 275 l 294 860 l 458 860 l 352 0 z m 315 914 l 315 914 q 249 925 278 914 q 197 947 220 936 q 150 958 173 958 l 150 958 q 126 951 138 958 q 105 925 115 943 l 105 925 l 33 963 q 60 1017 45 993 q 97 1057 74 1042 q 154 1072 119 1072 l 154 1072 q 218 1062 190 1072 q 268 1041 246 1051 q 310 1031 291 1031 l 310 1031 q 334 1039 323 1031 q 355 1067 346 1047 l 355 1067 l 437 1041 q 411 979 425 1008 q 374 932 396 950 q 315 914 352 914 z"},"Ʌ":{"ha":469,"x_min":24,"x_max":938,"o":"m 118 859 l 352 859 l 458 0 l 294 0 l 231 584 l 175 0 l 12 0 l 118 859 z"},"W":{"ha":712,"x_min":27,"x_max":1431,"o":"m 315 0 l 105 0 l 13 859 l 181 859 l 229 317 l 277 859 l 437 859 l 483 317 l 529 859 l 699 859 l 605 0 l 399 0 l 356 414 l 315 0 z"},"Ẃ":{"ha":712,"x_min":27,"x_max":1431,"o":"m 315 0 l 105 0 l 13 859 l 181 859 l 229 317 l 277 859 l 437 859 l 483 317 l 529 859 l 699 859 l 605 0 l 399 0 l 356 414 l 315 0 z m 479 931 l 247 885 l 247 994 l 479 1101 l 479 931 z"},"Ŵ":{"ha":712,"x_min":27,"x_max":1431,"o":"m 315 0 l 105 0 l 13 859 l 181 859 l 229 317 l 277 859 l 437 859 l 483 317 l 529 859 l 699 859 l 605 0 l 399 0 l 356 414 l 315 0 z m 321 904 l 146 904 l 263 1101 l 462 1101 l 580 904 l 405 904 l 363 1043 l 321 904 z"},"Ẅ":{"ha":712,"x_min":27,"x_max":1431,"o":"m 315 0 l 105 0 l 13 859 l 181 859 l 229 317 l 277 859 l 437 859 l 483 317 l 529 859 l 699 859 l 605 0 l 399 0 l 356 414 l 315 0 z m 565 908 l 390 908 l 390 1053 l 565 1053 l 565 908 z m 329 908 l 154 908 l 154 1053 l 329 1053 l 329 908 z"},"Ẇ":{"ha":712,"x_min":27,"x_max":1431,"o":"m 315 0 l 105 0 l 13 859 l 181 859 l 229 317 l 277 859 l 437 859 l 483 317 l 529 859 l 699 859 l 605 0 l 399 0 l 356 414 l 315 0 z m 450 904 l 275 904 l 275 1050 l 450 1050 l 450 904 z"},"Ẉ":{"ha":712,"x_min":27,"x_max":1431,"o":"m 315 0 l 105 0 l 13 859 l 181 859 l 229 317 l 277 859 l 437 859 l 483 317 l 529 859 l 699 859 l 605 0 l 399 0 l 356 414 l 315 0 z m 443 -204 l 269 -204 l 269 -58 l 443 -58 l 443 -204 z"},"Ẁ":{"ha":712,"x_min":27,"x_max":1431,"o":"m 315 0 l 105 0 l 13 859 l 181 859 l 229 317 l 277 859 l 437 859 l 483 317 l 529 859 l 699 859 l 605 0 l 399 0 l 356 414 l 315 0 z m 479 994 l 479 885 l 247 931 l 247 1101 l 479 994 z"},"Ⱳ":{"ha":730,"x_min":26,"x_max":1505,"o":"m 315 0 l 105 0 l 13 859 l 181 859 l 229 316 l 277 859 l 438 859 l 484 316 l 516 692 q 574 825 523 783 q 735 867 625 867 l 735 867 l 735 718 q 691 700 701 718 q 676 642 681 682 l 676 642 l 606 0 l 400 0 l 356 413 l 315 0 z"},"X":{"ha":484,"x_min":27,"x_max":965,"o":"m 188 0 l 13 0 l 105 456 l 32 860 l 200 860 l 245 564 l 284 860 l 453 860 l 379 456 l 471 0 l 297 0 l 243 336 l 188 0 z"},"Ẍ":{"ha":484,"x_min":27,"x_max":965,"o":"m 188 0 l 13 0 l 105 456 l 32 860 l 200 860 l 245 564 l 284 860 l 453 860 l 379 456 l 471 0 l 297 0 l 243 336 l 188 0 z m 444 908 l 270 908 l 270 1053 l 444 1053 l 444 908 z m 208 908 l 33 908 l 33 1053 l 208 1053 l 208 908 z"},"Ẋ":{"ha":484,"x_min":27,"x_max":965,"o":"m 188 0 l 13 0 l 105 456 l 32 860 l 200 860 l 245 564 l 284 860 l 453 860 l 379 456 l 471 0 l 297 0 l 243 336 l 188 0 z m 330 904 l 155 904 l 155 1050 l 330 1050 l 330 904 z"},"Y":{"ha":446,"x_min":10,"x_max":903,"o":"m 304 0 l 142 0 l 142 283 l 5 859 l 175 859 l 223 568 l 271 859 l 441 859 l 304 283 l 304 0 z"},"Ý":{"ha":446,"x_min":10,"x_max":903,"o":"m 304 0 l 142 0 l 142 283 l 5 859 l 175 859 l 223 568 l 271 859 l 441 859 l 304 283 l 304 0 z m 338 931 l 106 885 l 106 994 l 338 1101 l 338 931 z"},"Ŷ":{"ha":446,"x_min":10,"x_max":903,"o":"m 304 0 l 142 0 l 142 283 l 5 859 l 175 859 l 223 568 l 271 859 l 441 859 l 304 283 l 304 0 z m 181 904 l 5 904 l 123 1101 l 322 1101 l 440 904 l 265 904 l 223 1043 l 181 904 z"},"Ÿ":{"ha":446,"x_min":10,"x_max":903,"o":"m 304 0 l 142 0 l 142 283 l 5 859 l 175 859 l 223 568 l 271 859 l 441 859 l 304 283 l 304 0 z m 425 908 l 250 908 l 250 1053 l 425 1053 l 425 908 z m 188 908 l 14 908 l 14 1053 l 188 1053 l 188 908 z"},"Ẏ":{"ha":446,"x_min":10,"x_max":903,"o":"m 304 0 l 142 0 l 142 283 l 5 859 l 175 859 l 223 568 l 271 859 l 441 859 l 304 283 l 304 0 z m 310 904 l 135 904 l 135 1030 l 310 1030 l 310 904 z"},"Ỵ":{"ha":446,"x_min":10,"x_max":903,"o":"m 304 0 l 142 0 l 142 283 l 5 859 l 175 859 l 223 568 l 271 859 l 441 859 l 304 283 l 304 0 z m 311 -204 l 136 -204 l 136 -58 l 311 -58 l 311 -204 z"},"Ỳ":{"ha":446,"x_min":10,"x_max":903,"o":"m 304 0 l 142 0 l 142 283 l 5 859 l 175 859 l 223 568 l 271 859 l 441 859 l 304 283 l 304 0 z m 338 994 l 338 885 l 106 931 l 106 1101 l 338 994 z"},"Ƴ":{"ha":456,"x_min":10,"x_max":944,"o":"m 304 0 l 141 0 l 141 288 l 5 859 l 175 859 l 223 569 l 244 693 q 277 792 254 753 q 344 848 300 830 q 461 866 388 866 l 461 866 l 461 719 q 413 701 427 719 q 390 644 399 683 l 390 644 l 304 288 l 304 0 z"},"Ỷ":{"ha":446,"x_min":10,"x_max":903,"o":"m 304 0 l 142 0 l 142 283 l 5 859 l 175 859 l 223 568 l 271 859 l 441 859 l 304 283 l 304 0 z m 208 897 l 208 897 l 157 958 q 199 982 183 967 q 215 1021 215 997 l 215 1021 q 166 1067 215 1067 l 166 1067 q 122 1060 143 1067 l 122 1060 l 122 1147 q 211 1164 165 1164 l 211 1164 q 307 1133 272 1164 q 341 1047 341 1103 l 341 1047 q 303 950 341 985 q 208 897 265 915 z"},"Ȳ":{"ha":446,"x_min":10,"x_max":903,"o":"m 304 0 l 142 0 l 142 283 l 5 859 l 175 859 l 223 568 l 271 859 l 441 859 l 304 283 l 304 0 z m 382 917 l 64 917 l 64 992 l 382 992 l 382 917 z"},"Ɏ":{"ha":446,"x_min":10,"x_max":903,"o":"m 304 0 l 142 0 l 142 283 l 83 530 l 8 530 l 8 638 l 58 638 l 5 859 l 175 859 l 223 568 l 271 859 l 441 859 l 388 638 l 438 638 l 438 530 l 363 530 l 304 283 l 304 0 z"},"Ỹ":{"ha":446,"x_min":10,"x_max":903,"o":"m 304 0 l 142 0 l 142 283 l 5 859 l 175 859 l 223 568 l 271 859 l 441 859 l 304 283 l 304 0 z m 303 914 l 303 914 q 237 925 267 914 q 183 947 207 936 q 138 958 158 958 l 138 958 q 114 951 125 958 q 93 925 103 943 l 93 925 l 21 963 q 48 1017 33 993 q 84 1057 62 1042 q 142 1072 107 1072 l 142 1072 q 204 1062 176 1072 q 256 1041 232 1051 q 298 1031 279 1031 l 298 1031 q 322 1039 311 1031 q 343 1067 333 1047 l 343 1067 l 424 1041 q 398 979 413 1008 q 362 932 384 950 q 303 914 340 914 z"},"Z":{"ha":410,"x_min":32,"x_max":806,"o":"m 385 0 l 16 0 l 16 156 l 212 701 l 35 701 l 35 859 l 394 859 l 394 709 l 193 158 l 385 158 l 385 0 z"},"Ź":{"ha":410,"x_min":32,"x_max":806,"o":"m 385 0 l 16 0 l 16 156 l 212 701 l 35 701 l 35 859 l 394 859 l 394 709 l 193 158 l 385 158 l 385 0 z m 330 931 l 98 885 l 98 994 l 330 1101 l 330 931 z"},"Ž":{"ha":410,"x_min":-6,"x_max":884,"o":"m 385 0 l 16 0 l 16 156 l 212 701 l 35 701 l 35 859 l 394 859 l 394 709 l 193 158 l 385 158 l 385 0 z m 314 904 l 115 904 l -3 1101 l 172 1101 l 214 961 l 256 1101 l 432 1101 l 314 904 z"},"Ẑ":{"ha":410,"x_min":-6,"x_max":884,"o":"m 385 0 l 16 0 l 16 156 l 212 701 l 35 701 l 35 859 l 394 859 l 394 709 l 193 158 l 385 158 l 385 0 z m 172 904 l -3 904 l 115 1101 l 314 1101 l 432 904 l 256 904 l 214 1043 l 172 904 z"},"Ż":{"ha":410,"x_min":32,"x_max":806,"o":"m 385 0 l 16 0 l 16 156 l 212 701 l 35 701 l 35 859 l 394 859 l 394 709 l 193 158 l 385 158 l 385 0 z m 302 904 l 127 904 l 127 1050 l 302 1050 l 302 904 z"},"Ẓ":{"ha":410,"x_min":32,"x_max":806,"o":"m 385 0 l 16 0 l 16 156 l 212 701 l 35 701 l 35 859 l 394 859 l 394 709 l 193 158 l 385 158 l 385 0 z m 292 -204 l 118 -204 l 118 -58 l 292 -58 l 292 -204 z"},"Ẕ":{"ha":410,"x_min":32,"x_max":806,"o":"m 385 0 l 16 0 l 16 156 l 212 701 l 35 701 l 35 859 l 394 859 l 394 709 l 193 158 l 385 158 l 385 0 z m 364 -133 l 46 -133 l 46 -58 l 364 -58 l 364 -133 z"},"Ƶ":{"ha":410,"x_min":32,"x_max":806,"o":"m 385 0 l 16 0 l 16 156 l 97 382 l 46 382 l 46 495 l 138 495 l 212 701 l 35 701 l 35 859 l 394 859 l 394 709 l 316 495 l 369 495 l 369 382 l 274 382 l 193 158 l 385 158 l 385 0 z"},"a":{"ha":483,"x_min":41,"x_max":924,"o":"m 168 -8 l 168 -8 q 75 21 107 -8 q 32 98 43 49 q 20 210 20 147 l 20 210 q 33 320 20 277 q 78 390 46 362 q 167 436 110 417 l 167 436 l 275 473 l 275 548 q 236 607 275 607 l 236 607 q 201 560 201 607 l 201 560 l 201 516 l 31 516 q 31 526 31 520 q 31 540 31 532 l 31 540 q 82 695 31 649 q 246 740 134 740 l 246 740 q 351 719 304 740 q 424 658 397 699 q 451 558 451 618 l 451 558 l 451 0 l 277 0 l 277 87 q 235 17 265 41 q 168 -8 206 -8 z m 237 128 l 237 128 q 267 146 259 128 q 274 185 274 164 l 274 185 l 274 389 q 218 352 238 375 q 198 287 198 330 l 198 287 l 198 193 q 237 128 198 128 z"},"á":{"ha":483,"x_min":41,"x_max":924,"o":"m 168 -8 l 168 -8 q 75 21 107 -8 q 32 98 43 49 q 20 210 20 147 l 20 210 q 33 320 20 277 q 78 390 46 362 q 167 436 110 417 l 167 436 l 275 473 l 275 548 q 236 607 275 607 l 236 607 q 201 560 201 607 l 201 560 l 201 516 l 31 516 q 31 526 31 520 q 31 540 31 532 l 31 540 q 82 695 31 649 q 246 740 134 740 l 246 740 q 351 719 304 740 q 424 658 397 699 q 451 558 451 618 l 451 558 l 451 0 l 277 0 l 277 87 q 235 17 265 41 q 168 -8 206 -8 z m 237 128 l 237 128 q 267 146 259 128 q 274 185 274 164 l 274 185 l 274 389 q 218 352 238 375 q 198 287 198 330 l 198 287 l 198 193 q 237 128 198 128 z m 361 812 l 129 766 l 129 875 l 361 981 l 361 812 z"},"ă":{"ha":483,"x_min":41,"x_max":924,"o":"m 168 -8 l 168 -8 q 75 21 107 -8 q 32 98 43 49 q 20 210 20 147 l 20 210 q 33 320 20 277 q 78 390 46 362 q 167 436 110 417 l 167 436 l 275 473 l 275 548 q 236 607 275 607 l 236 607 q 201 560 201 607 l 201 560 l 201 516 l 31 516 q 31 526 31 520 q 31 540 31 532 l 31 540 q 82 695 31 649 q 246 740 134 740 l 246 740 q 351 719 304 740 q 424 658 397 699 q 451 558 451 618 l 451 558 l 451 0 l 277 0 l 277 87 q 235 17 265 41 q 168 -8 206 -8 z m 237 128 l 237 128 q 267 146 259 128 q 274 185 274 164 l 274 185 l 274 389 q 218 352 238 375 q 198 287 198 330 l 198 287 l 198 193 q 237 128 198 128 z m 247 785 l 247 785 q 109 821 162 785 q 56 937 56 857 l 56 937 q 57 958 56 947 l 57 958 l 182 958 q 196 915 182 930 q 248 901 210 901 l 248 901 q 300 915 286 901 q 314 958 314 930 l 314 958 l 439 958 q 440 948 439 953 q 440 940 440 943 l 440 940 q 387 822 440 859 q 247 785 335 785 z"},"ắ":{"ha":483,"x_min":41,"x_max":924,"o":"m 168 -8 l 168 -8 q 75 21 107 -8 q 32 98 43 49 q 20 210 20 147 l 20 210 q 33 320 20 277 q 78 390 46 362 q 167 436 110 417 l 167 436 l 275 473 l 275 548 q 236 607 275 607 l 236 607 q 201 560 201 607 l 201 560 l 201 516 l 31 516 q 31 526 31 520 q 31 540 31 532 l 31 540 q 82 695 31 649 q 246 740 134 740 l 246 740 q 351 719 304 740 q 424 658 397 699 q 451 558 451 618 l 451 558 l 451 0 l 277 0 l 277 87 q 235 17 265 41 q 168 -8 206 -8 z m 237 128 l 237 128 q 267 146 259 128 q 274 185 274 164 l 274 185 l 274 389 q 218 352 238 375 q 198 287 198 330 l 198 287 l 198 193 q 237 128 198 128 z m 245 777 l 245 777 q 107 810 160 777 q 54 915 54 843 l 54 915 q 55 935 54 925 l 55 935 l 180 935 q 194 889 180 905 q 246 874 208 874 l 246 874 q 298 889 284 874 q 312 935 312 905 l 312 935 l 437 935 q 438 918 438 923 l 438 918 q 385 811 438 844 q 245 777 333 777 z m 362 989 l 130 953 l 130 1047 l 362 1129 l 362 989 z"},"ặ":{"ha":483,"x_min":41,"x_max":924,"o":"m 168 -8 l 168 -8 q 75 21 107 -8 q 32 98 43 49 q 20 210 20 147 l 20 210 q 33 320 20 277 q 78 390 46 362 q 167 436 110 417 l 167 436 l 275 473 l 275 548 q 236 607 275 607 l 236 607 q 201 560 201 607 l 201 560 l 201 516 l 31 516 q 31 526 31 520 q 31 540 31 532 l 31 540 q 82 695 31 649 q 246 740 134 740 l 246 740 q 351 719 304 740 q 424 658 397 699 q 451 558 451 618 l 451 558 l 451 0 l 277 0 l 277 87 q 235 17 265 41 q 168 -8 206 -8 z m 237 128 l 237 128 q 267 146 259 128 q 274 185 274 164 l 274 185 l 274 389 q 218 352 238 375 q 198 287 198 330 l 198 287 l 198 193 q 237 128 198 128 z m 329 -204 l 154 -204 l 154 -58 l 329 -58 l 329 -204 z m 247 785 l 247 785 q 109 821 162 785 q 56 937 56 857 l 56 937 q 57 958 56 947 l 57 958 l 182 958 q 196 915 182 930 q 248 901 210 901 l 248 901 q 300 915 286 901 q 314 958 314 930 l 314 958 l 439 958 q 440 948 439 953 q 440 940 440 943 l 440 940 q 387 822 440 859 q 247 785 335 785 z"},"ằ":{"ha":483,"x_min":41,"x_max":924,"o":"m 168 -8 l 168 -8 q 75 21 107 -8 q 32 98 43 49 q 20 210 20 147 l 20 210 q 33 320 20 277 q 78 390 46 362 q 167 436 110 417 l 167 436 l 275 473 l 275 548 q 236 607 275 607 l 236 607 q 201 560 201 607 l 201 560 l 201 516 l 31 516 q 31 526 31 520 q 31 540 31 532 l 31 540 q 82 695 31 649 q 246 740 134 740 l 246 740 q 351 719 304 740 q 424 658 397 699 q 451 558 451 618 l 451 558 l 451 0 l 277 0 l 277 87 q 235 17 265 41 q 168 -8 206 -8 z m 237 128 l 237 128 q 267 146 259 128 q 274 185 274 164 l 274 185 l 274 389 q 218 352 238 375 q 198 287 198 330 l 198 287 l 198 193 q 237 128 198 128 z m 361 1038 l 361 958 l 129 990 l 129 1130 l 361 1038 z m 246 772 l 246 772 q 107 805 160 772 q 54 910 54 838 l 54 910 q 55 930 54 920 l 55 930 l 180 930 q 194 884 180 900 q 246 869 208 869 l 246 869 q 297 884 283 869 q 311 930 311 900 l 311 930 l 436 930 q 437 920 437 925 q 437 913 437 916 l 437 913 q 385 806 437 839 q 246 772 333 772 z"},"ẳ":{"ha":483,"x_min":41,"x_max":924,"o":"m 168 -8 l 168 -8 q 75 21 107 -8 q 32 98 43 49 q 20 210 20 147 l 20 210 q 33 320 20 277 q 78 390 46 362 q 167 436 110 417 l 167 436 l 275 473 l 275 548 q 236 607 275 607 l 236 607 q 201 560 201 607 l 201 560 l 201 516 l 31 516 q 31 526 31 520 q 31 540 31 532 l 31 540 q 82 695 31 649 q 246 740 134 740 l 246 740 q 351 719 304 740 q 424 658 397 699 q 451 558 451 618 l 451 558 l 451 0 l 277 0 l 277 87 q 235 17 265 41 q 168 -8 206 -8 z m 237 128 l 237 128 q 267 146 259 128 q 274 185 274 164 l 274 185 l 274 389 q 218 352 238 375 q 198 287 198 330 l 198 287 l 198 193 q 237 128 198 128 z m 230 934 l 230 934 l 179 995 q 221 1019 205 1004 q 237 1058 237 1034 l 237 1058 q 188 1104 237 1104 l 188 1104 q 144 1097 165 1104 l 144 1097 l 144 1185 q 233 1201 187 1201 l 233 1201 q 329 1170 294 1201 q 363 1084 363 1140 l 363 1084 q 325 987 363 1022 q 230 934 287 952 z m 246 772 l 246 772 q 107 805 160 772 q 54 910 54 838 l 54 910 q 55 930 54 920 l 55 930 l 180 930 q 194 884 180 900 q 246 869 208 869 l 246 869 q 297 884 283 869 q 311 930 311 900 l 311 930 l 436 930 q 437 920 437 925 q 437 913 437 916 l 437 913 q 385 806 437 839 q 246 772 333 772 z"},"ẵ":{"ha":483,"x_min":41,"x_max":924,"o":"m 168 -8 l 168 -8 q 75 21 107 -8 q 32 98 43 49 q 20 210 20 147 l 20 210 q 33 320 20 277 q 78 390 46 362 q 167 436 110 417 l 167 436 l 275 473 l 275 548 q 236 607 275 607 l 236 607 q 201 560 201 607 l 201 560 l 201 516 l 31 516 q 31 526 31 520 q 31 540 31 532 l 31 540 q 82 695 31 649 q 246 740 134 740 l 246 740 q 351 719 304 740 q 424 658 397 699 q 451 558 451 618 l 451 558 l 451 0 l 277 0 l 277 87 q 235 17 265 41 q 168 -8 206 -8 z m 237 128 l 237 128 q 267 146 259 128 q 274 185 274 164 l 274 185 l 274 389 q 218 352 238 375 q 198 287 198 330 l 198 287 l 198 193 q 237 128 198 128 z m 326 961 l 326 961 q 271 973 297 961 q 221 995 246 984 q 171 1006 197 1006 l 171 1006 q 142 999 155 1006 q 116 973 128 991 l 116 973 l 44 1011 q 84 1083 61 1053 q 156 1113 107 1113 l 156 1113 q 212 1102 187 1113 q 262 1080 238 1091 q 312 1069 286 1069 l 312 1069 q 342 1077 330 1069 q 366 1105 354 1085 l 366 1105 l 447 1079 q 421 1022 436 1049 q 385 978 407 995 q 326 961 363 961 z m 246 772 l 246 772 q 107 805 160 772 q 54 910 54 838 l 54 910 q 55 930 54 920 l 55 930 l 180 930 q 194 884 180 900 q 246 869 208 869 l 246 869 q 297 884 283 869 q 311 930 311 900 l 311 930 l 436 930 q 437 920 437 925 q 437 913 437 916 l 437 913 q 385 806 437 839 q 246 772 333 772 z"},"ǎ":{"ha":483,"x_min":41,"x_max":948,"o":"m 168 -8 l 168 -8 q 75 21 107 -8 q 32 98 43 49 q 20 210 20 147 l 20 210 q 33 320 20 277 q 78 390 46 362 q 167 436 110 417 l 167 436 l 275 473 l 275 548 q 236 607 275 607 l 236 607 q 201 560 201 607 l 201 560 l 201 516 l 31 516 q 31 526 31 520 q 31 540 31 532 l 31 540 q 82 695 31 649 q 246 740 134 740 l 246 740 q 351 719 304 740 q 424 658 397 699 q 451 558 451 618 l 451 558 l 451 0 l 277 0 l 277 87 q 235 17 265 41 q 168 -8 206 -8 z m 237 128 l 237 128 q 267 146 259 128 q 274 185 274 164 l 274 185 l 274 389 q 218 352 238 375 q 198 287 198 330 l 198 287 l 198 193 q 237 128 198 128 z m 345 785 l 146 785 l 28 981 l 204 981 l 246 842 l 288 981 l 463 981 l 345 785 z"},"â":{"ha":483,"x_min":41,"x_max":948,"o":"m 168 -8 l 168 -8 q 75 21 107 -8 q 32 98 43 49 q 20 210 20 147 l 20 210 q 33 320 20 277 q 78 390 46 362 q 167 436 110 417 l 167 436 l 275 473 l 275 548 q 236 607 275 607 l 236 607 q 201 560 201 607 l 201 560 l 201 516 l 31 516 q 31 526 31 520 q 31 540 31 532 l 31 540 q 82 695 31 649 q 246 740 134 740 l 246 740 q 351 719 304 740 q 424 658 397 699 q 451 558 451 618 l 451 558 l 451 0 l 277 0 l 277 87 q 235 17 265 41 q 168 -8 206 -8 z m 237 128 l 237 128 q 267 146 259 128 q 274 185 274 164 l 274 185 l 274 389 q 218 352 238 375 q 198 287 198 330 l 198 287 l 198 193 q 237 128 198 128 z m 204 785 l 28 785 l 146 981 l 345 981 l 463 785 l 288 785 l 246 924 l 204 785 z"},"ấ":{"ha":483,"x_min":41,"x_max":1288,"o":"m 168 -8 l 168 -8 q 75 21 107 -8 q 32 98 43 49 q 20 210 20 147 l 20 210 q 33 320 20 277 q 78 390 46 362 q 167 436 110 417 l 167 436 l 275 473 l 275 548 q 236 607 275 607 l 236 607 q 201 560 201 607 l 201 560 l 201 516 l 31 516 q 31 526 31 520 q 31 540 31 532 l 31 540 q 82 695 31 649 q 246 740 134 740 l 246 740 q 351 719 304 740 q 424 658 397 699 q 451 558 451 618 l 451 558 l 451 0 l 277 0 l 277 87 q 235 17 265 41 q 168 -8 206 -8 z m 237 128 l 237 128 q 267 146 259 128 q 274 185 274 164 l 274 185 l 274 389 q 218 352 238 375 q 198 287 198 330 l 198 287 l 198 193 q 237 128 198 128 z m 513 895 l 399 895 l 479 1039 l 629 1039 l 513 895 z m 202 777 l 28 777 l 146 925 l 345 925 l 463 777 l 290 777 l 246 872 l 202 777 z"},"ậ":{"ha":483,"x_min":41,"x_max":948,"o":"m 168 -8 l 168 -8 q 75 21 107 -8 q 32 98 43 49 q 20 210 20 147 l 20 210 q 33 320 20 277 q 78 390 46 362 q 167 436 110 417 l 167 436 l 275 473 l 275 548 q 236 607 275 607 l 236 607 q 201 560 201 607 l 201 560 l 201 516 l 31 516 q 31 526 31 520 q 31 540 31 532 l 31 540 q 82 695 31 649 q 246 740 134 740 l 246 740 q 351 719 304 740 q 424 658 397 699 q 451 558 451 618 l 451 558 l 451 0 l 277 0 l 277 87 q 235 17 265 41 q 168 -8 206 -8 z m 237 128 l 237 128 q 267 146 259 128 q 274 185 274 164 l 274 185 l 274 389 q 218 352 238 375 q 198 287 198 330 l 198 287 l 198 193 q 237 128 198 128 z m 204 785 l 28 785 l 146 981 l 345 981 l 463 785 l 288 785 l 246 924 l 204 785 z m 329 -204 l 154 -204 l 154 -58 l 329 -58 l 329 -204 z"},"ầ":{"ha":483,"x_min":41,"x_max":1108,"o":"m 168 -8 l 168 -8 q 75 21 107 -8 q 32 98 43 49 q 20 210 20 147 l 20 210 q 33 320 20 277 q 78 390 46 362 q 167 436 110 417 l 167 436 l 275 473 l 275 548 q 236 607 275 607 l 236 607 q 201 560 201 607 l 201 560 l 201 516 l 31 516 q 31 526 31 520 q 31 540 31 532 l 31 540 q 82 695 31 649 q 246 740 134 740 l 246 740 q 351 719 304 740 q 424 658 397 699 q 451 558 451 618 l 451 558 l 451 0 l 277 0 l 277 87 q 235 17 265 41 q 168 -8 206 -8 z m 237 128 l 237 128 q 267 146 259 128 q 274 185 274 164 l 274 185 l 274 389 q 218 352 238 375 q 198 287 198 330 l 198 287 l 198 193 q 237 128 198 128 z m 541 895 l 427 895 l 311 1039 l 461 1039 l 541 895 z m 202 777 l 28 777 l 146 925 l 345 925 l 463 777 l 290 777 l 246 872 l 202 777 z"},"ẩ":{"ha":483,"x_min":41,"x_max":1136,"o":"m 168 -8 l 168 -8 q 75 21 107 -8 q 32 98 43 49 q 20 210 20 147 l 20 210 q 33 320 20 277 q 78 390 46 362 q 167 436 110 417 l 167 436 l 275 473 l 275 548 q 236 607 275 607 l 236 607 q 201 560 201 607 l 201 560 l 201 516 l 31 516 q 31 526 31 520 q 31 540 31 532 l 31 540 q 82 695 31 649 q 246 740 134 740 l 246 740 q 351 719 304 740 q 424 658 397 699 q 451 558 451 618 l 451 558 l 451 0 l 277 0 l 277 87 q 235 17 265 41 q 168 -8 206 -8 z m 237 128 l 237 128 q 267 146 259 128 q 274 185 274 164 l 274 185 l 274 389 q 218 352 238 375 q 198 287 198 330 l 198 287 l 198 193 q 237 128 198 128 z m 422 877 l 422 877 l 370 938 q 413 962 396 948 q 429 1001 429 977 l 429 1001 q 379 1048 429 1048 l 379 1048 q 335 1040 356 1048 l 335 1040 l 335 1128 q 425 1144 378 1144 l 425 1144 q 520 1114 486 1144 q 555 1028 555 1083 l 555 1028 q 517 930 555 966 q 422 877 479 895 z m 202 777 l 53 777 l 161 930 l 331 930 l 438 777 l 290 777 l 246 872 l 202 777 z"},"ẫ":{"ha":483,"x_min":41,"x_max":948,"o":"m 168 -8 l 168 -8 q 75 21 107 -8 q 32 98 43 49 q 20 210 20 147 l 20 210 q 33 320 20 277 q 78 390 46 362 q 167 436 110 417 l 167 436 l 275 473 l 275 548 q 236 607 275 607 l 236 607 q 201 560 201 607 l 201 560 l 201 516 l 31 516 q 31 526 31 520 q 31 540 31 532 l 31 540 q 82 695 31 649 q 246 740 134 740 l 246 740 q 351 719 304 740 q 424 658 397 699 q 451 558 451 618 l 451 558 l 451 0 l 277 0 l 277 87 q 235 17 265 41 q 168 -8 206 -8 z m 237 128 l 237 128 q 267 146 259 128 q 274 185 274 164 l 274 185 l 274 389 q 218 352 238 375 q 198 287 198 330 l 198 287 l 198 193 q 237 128 198 128 z m 326 961 l 326 961 q 271 973 297 961 q 221 995 246 984 q 171 1006 197 1006 l 171 1006 q 142 999 155 1006 q 116 973 128 991 l 116 973 l 44 1011 q 84 1083 61 1053 q 156 1113 107 1113 l 156 1113 q 212 1102 187 1113 q 262 1080 238 1091 q 312 1069 286 1069 l 312 1069 q 342 1077 330 1069 q 366 1105 354 1085 l 366 1105 l 447 1079 q 421 1022 436 1049 q 385 978 407 995 q 326 961 363 961 z m 202 777 l 28 777 l 146 925 l 345 925 l 463 777 l 290 777 l 246 872 l 202 777 z"},"´":{"ha":317,"x_min":91,"x_max":566,"o":"m 276 804 l 44 758 l 44 867 l 276 974 l 276 804 z"},"́":{"ha":0,"x_min":-238,"x_max":237,"o":"m 116 804 l -116 758 l -116 867 l 116 974 l 116 804 z"},"᷇":{"ha":0,"x_min":-326,"x_max":324,"o":"m 158 987 l -159 987 l -159 1062 l 158 1062 l 158 987 z m 116 804 l -116 758 l -116 867 l 116 974 l 116 804 z"},"ȁ":{"ha":483,"x_min":17,"x_max":924,"o":"m 168 -8 l 168 -8 q 75 21 107 -8 q 32 98 43 49 q 20 210 20 147 l 20 210 q 33 320 20 277 q 78 390 46 362 q 167 436 110 417 l 167 436 l 275 473 l 275 548 q 236 607 275 607 l 236 607 q 201 560 201 607 l 201 560 l 201 516 l 31 516 q 31 526 31 520 q 31 540 31 532 l 31 540 q 82 695 31 649 q 246 740 134 740 l 246 740 q 351 719 304 740 q 424 658 397 699 q 451 558 451 618 l 451 558 l 451 0 l 277 0 l 277 87 q 235 17 265 41 q 168 -8 206 -8 z m 237 128 l 237 128 q 267 146 259 128 q 274 185 274 164 l 274 185 l 274 389 q 218 352 238 375 q 198 287 198 330 l 198 287 l 198 193 q 237 128 198 128 z m 230 811 l 149 782 l 8 992 l 123 1044 l 230 811 z m 378 811 l 297 782 l 176 992 l 288 1044 l 378 811 z"},"ä":{"ha":483,"x_min":41,"x_max":924,"o":"m 168 -8 l 168 -8 q 75 21 107 -8 q 32 98 43 49 q 20 210 20 147 l 20 210 q 33 320 20 277 q 78 390 46 362 q 167 436 110 417 l 167 436 l 275 473 l 275 548 q 236 607 275 607 l 236 607 q 201 560 201 607 l 201 560 l 201 516 l 31 516 q 31 526 31 520 q 31 540 31 532 l 31 540 q 82 695 31 649 q 246 740 134 740 l 246 740 q 351 719 304 740 q 424 658 397 699 q 451 558 451 618 l 451 558 l 451 0 l 277 0 l 277 87 q 235 17 265 41 q 168 -8 206 -8 z m 237 128 l 237 128 q 267 146 259 128 q 274 185 274 164 l 274 185 l 274 389 q 218 352 238 375 q 198 287 198 330 l 198 287 l 198 193 q 237 128 198 128 z m 448 789 l 273 789 l 273 934 l 448 934 l 448 789 z m 211 789 l 37 789 l 37 934 l 211 934 l 211 789 z"},"ǟ":{"ha":483,"x_min":41,"x_max":924,"o":"m 168 -8 l 168 -8 q 75 21 107 -8 q 32 98 43 49 q 20 210 20 147 l 20 210 q 33 320 20 277 q 78 390 46 362 q 167 436 110 417 l 167 436 l 275 473 l 275 548 q 236 607 275 607 l 236 607 q 201 560 201 607 l 201 560 l 201 516 l 31 516 q 31 526 31 520 q 31 540 31 532 l 31 540 q 82 695 31 649 q 246 740 134 740 l 246 740 q 351 719 304 740 q 424 658 397 699 q 451 558 451 618 l 451 558 l 451 0 l 277 0 l 277 87 q 235 17 265 41 q 168 -8 206 -8 z m 237 128 l 237 128 q 267 146 259 128 q 274 185 274 164 l 274 185 l 274 389 q 218 352 238 375 q 198 287 198 330 l 198 287 l 198 193 q 237 128 198 128 z m 451 781 l 276 781 l 276 902 l 451 902 l 451 781 z m 215 781 l 40 781 l 40 902 l 215 902 l 215 781 z m 404 955 l 87 955 l 87 1030 l 404 1030 l 404 955 z"},"ȧ":{"ha":483,"x_min":41,"x_max":924,"o":"m 168 -8 l 168 -8 q 75 21 107 -8 q 32 98 43 49 q 20 210 20 147 l 20 210 q 33 320 20 277 q 78 390 46 362 q 167 436 110 417 l 167 436 l 275 473 l 275 548 q 236 607 275 607 l 236 607 q 201 560 201 607 l 201 560 l 201 516 l 31 516 q 31 526 31 520 q 31 540 31 532 l 31 540 q 82 695 31 649 q 246 740 134 740 l 246 740 q 351 719 304 740 q 424 658 397 699 q 451 558 451 618 l 451 558 l 451 0 l 277 0 l 277 87 q 235 17 265 41 q 168 -8 206 -8 z m 237 128 l 237 128 q 267 146 259 128 q 274 185 274 164 l 274 185 l 274 389 q 218 352 238 375 q 198 287 198 330 l 198 287 l 198 193 q 237 128 198 128 z m 333 785 l 158 785 l 158 931 l 333 931 l 333 785 z"},"ạ":{"ha":483,"x_min":41,"x_max":924,"o":"m 168 -8 l 168 -8 q 75 21 107 -8 q 32 98 43 49 q 20 210 20 147 l 20 210 q 33 320 20 277 q 78 390 46 362 q 167 436 110 417 l 167 436 l 275 473 l 275 548 q 236 607 275 607 l 236 607 q 201 560 201 607 l 201 560 l 201 516 l 31 516 q 31 526 31 520 q 31 540 31 532 l 31 540 q 82 695 31 649 q 246 740 134 740 l 246 740 q 351 719 304 740 q 424 658 397 699 q 451 558 451 618 l 451 558 l 451 0 l 277 0 l 277 87 q 235 17 265 41 q 168 -8 206 -8 z m 237 128 l 237 128 q 267 146 259 128 q 274 185 274 164 l 274 185 l 274 389 q 218 352 238 375 q 198 287 198 330 l 198 287 l 198 193 q 237 128 198 128 z m 329 -204 l 154 -204 l 154 -58 l 329 -58 l 329 -204 z"},"ǡ":{"ha":483,"x_min":41,"x_max":924,"o":"m 168 -8 l 168 -8 q 75 21 107 -8 q 32 98 43 49 q 20 210 20 147 l 20 210 q 33 320 20 277 q 78 390 46 362 q 167 436 110 417 l 167 436 l 275 473 l 275 548 q 236 607 275 607 l 236 607 q 201 560 201 607 l 201 560 l 201 516 l 31 516 q 31 526 31 520 q 31 540 31 532 l 31 540 q 82 695 31 649 q 246 740 134 740 l 246 740 q 351 719 304 740 q 424 658 397 699 q 451 558 451 618 l 451 558 l 451 0 l 277 0 l 277 87 q 235 17 265 41 q 168 -8 206 -8 z m 237 128 l 237 128 q 267 146 259 128 q 274 185 274 164 l 274 185 l 274 389 q 218 352 238 375 q 198 287 198 330 l 198 287 l 198 193 q 237 128 198 128 z m 333 777 l 158 777 l 158 903 l 333 903 l 333 777 z m 404 946 l 87 946 l 87 1021 l 404 1021 l 404 946 z"},"æ":{"ha":731,"x_min":38,"x_max":1446,"o":"m 219 -9 l 219 -9 q 70 50 122 -9 q 19 210 19 109 l 19 210 q 38 336 19 291 q 94 406 57 381 q 186 449 131 430 l 186 449 l 273 479 l 273 529 q 265 587 273 569 q 236 605 256 605 l 236 605 q 200 565 200 605 l 200 565 l 200 516 l 30 516 q 29 526 29 520 q 29 540 29 532 l 29 540 q 77 695 29 649 q 215 741 125 741 l 215 741 q 311 726 277 741 q 365 682 345 711 l 365 682 q 419 726 384 711 q 510 741 453 741 l 510 741 q 655 689 604 741 q 706 533 706 637 l 706 533 l 706 480 q 706 396 706 431 q 704 344 705 362 l 704 344 l 450 344 l 450 241 q 460 154 450 181 q 494 127 470 127 l 494 127 q 524 147 516 127 q 532 221 532 167 l 532 221 l 532 283 l 706 283 l 706 241 q 689 107 706 163 q 628 21 671 51 q 506 -9 584 -9 l 506 -9 q 417 14 455 -9 q 365 72 380 38 l 365 72 q 311 14 349 37 q 219 -9 274 -9 z m 450 514 l 450 455 l 532 455 l 532 531 q 493 610 532 610 l 493 610 q 455 583 460 610 q 450 514 450 556 l 450 514 z m 236 128 l 236 128 q 265 146 257 128 q 273 185 273 164 l 273 185 l 273 378 q 217 342 237 363 q 197 278 197 321 l 197 278 l 197 193 q 236 128 197 128 z"},"ǽ":{"ha":731,"x_min":38,"x_max":1446,"o":"m 219 -9 l 219 -9 q 70 50 122 -9 q 19 210 19 109 l 19 210 q 38 336 19 291 q 94 406 57 381 q 186 449 131 430 l 186 449 l 273 479 l 273 529 q 265 587 273 569 q 236 605 256 605 l 236 605 q 200 565 200 605 l 200 565 l 200 516 l 30 516 q 29 526 29 520 q 29 540 29 532 l 29 540 q 77 695 29 649 q 215 741 125 741 l 215 741 q 311 726 277 741 q 365 682 345 711 l 365 682 q 419 726 384 711 q 510 741 453 741 l 510 741 q 655 689 604 741 q 706 533 706 637 l 706 533 l 706 480 q 706 396 706 431 q 704 344 705 362 l 704 344 l 450 344 l 450 241 q 460 154 450 181 q 494 127 470 127 l 494 127 q 524 147 516 127 q 532 221 532 167 l 532 221 l 532 283 l 706 283 l 706 241 q 689 107 706 163 q 628 21 671 51 q 506 -9 584 -9 l 506 -9 q 417 14 455 -9 q 365 72 380 38 l 365 72 q 311 14 349 37 q 219 -9 274 -9 z m 450 514 l 450 455 l 532 455 l 532 531 q 493 610 532 610 l 493 610 q 455 583 460 610 q 450 514 450 556 l 450 514 z m 236 128 l 236 128 q 265 146 257 128 q 273 185 273 164 l 273 185 l 273 378 q 217 342 237 363 q 197 278 197 321 l 197 278 l 197 193 q 236 128 197 128 z m 481 804 l 250 758 l 250 867 l 481 974 l 481 804 z"},"ǣ":{"ha":731,"x_min":38,"x_max":1446,"o":"m 219 -9 l 219 -9 q 70 50 122 -9 q 19 210 19 109 l 19 210 q 38 336 19 291 q 94 406 57 381 q 186 449 131 430 l 186 449 l 273 479 l 273 529 q 265 587 273 569 q 236 605 256 605 l 236 605 q 200 565 200 605 l 200 565 l 200 516 l 30 516 q 29 526 29 520 q 29 540 29 532 l 29 540 q 77 695 29 649 q 215 741 125 741 l 215 741 q 311 726 277 741 q 365 682 345 711 l 365 682 q 419 726 384 711 q 510 741 453 741 l 510 741 q 655 689 604 741 q 706 533 706 637 l 706 533 l 706 480 q 706 396 706 431 q 704 344 705 362 l 704 344 l 450 344 l 450 241 q 460 154 450 181 q 494 127 470 127 l 494 127 q 524 147 516 127 q 532 221 532 167 l 532 221 l 532 283 l 706 283 l 706 241 q 689 107 706 163 q 628 21 671 51 q 506 -9 584 -9 l 506 -9 q 417 14 455 -9 q 365 72 380 38 l 365 72 q 311 14 349 37 q 219 -9 274 -9 z m 450 514 l 450 455 l 532 455 l 532 531 q 493 610 532 610 l 493 610 q 455 583 460 610 q 450 514 450 556 l 450 514 z m 236 128 l 236 128 q 265 146 257 128 q 273 185 273 164 l 273 185 l 273 378 q 217 342 237 363 q 197 278 197 321 l 197 278 l 197 193 q 236 128 197 128 z m 524 791 l 207 791 l 207 865 l 524 865 l 524 791 z"},"à":{"ha":483,"x_min":41,"x_max":924,"o":"m 168 -8 l 168 -8 q 75 21 107 -8 q 32 98 43 49 q 20 210 20 147 l 20 210 q 33 320 20 277 q 78 390 46 362 q 167 436 110 417 l 167 436 l 275 473 l 275 548 q 236 607 275 607 l 236 607 q 201 560 201 607 l 201 560 l 201 516 l 31 516 q 31 526 31 520 q 31 540 31 532 l 31 540 q 82 695 31 649 q 246 740 134 740 l 246 740 q 351 719 304 740 q 424 658 397 699 q 451 558 451 618 l 451 558 l 451 0 l 277 0 l 277 87 q 235 17 265 41 q 168 -8 206 -8 z m 237 128 l 237 128 q 267 146 259 128 q 274 185 274 164 l 274 185 l 274 389 q 218 352 238 375 q 198 287 198 330 l 198 287 l 198 193 q 237 128 198 128 z m 361 875 l 361 766 l 129 812 l 129 981 l 361 875 z"},"ả":{"ha":483,"x_min":41,"x_max":924,"o":"m 168 -8 l 168 -8 q 75 21 107 -8 q 32 98 43 49 q 20 210 20 147 l 20 210 q 33 320 20 277 q 78 390 46 362 q 167 436 110 417 l 167 436 l 275 473 l 275 548 q 236 607 275 607 l 236 607 q 201 560 201 607 l 201 560 l 201 516 l 31 516 q 31 526 31 520 q 31 540 31 532 l 31 540 q 82 695 31 649 q 246 740 134 740 l 246 740 q 351 719 304 740 q 424 658 397 699 q 451 558 451 618 l 451 558 l 451 0 l 277 0 l 277 87 q 235 17 265 41 q 168 -8 206 -8 z m 237 128 l 237 128 q 267 146 259 128 q 274 185 274 164 l 274 185 l 274 389 q 218 352 238 375 q 198 287 198 330 l 198 287 l 198 193 q 237 128 198 128 z m 231 770 l 231 770 l 180 831 q 222 855 206 840 q 238 894 238 870 l 238 894 q 189 940 238 940 l 189 940 q 145 933 166 940 l 145 933 l 145 1021 q 234 1037 188 1037 l 234 1037 q 330 1006 295 1037 q 364 920 364 976 l 364 920 q 326 823 364 858 q 231 770 288 788 z"},"ȃ":{"ha":483,"x_min":41,"x_max":924,"o":"m 168 -8 l 168 -8 q 75 21 107 -8 q 32 98 43 49 q 20 210 20 147 l 20 210 q 33 320 20 277 q 78 390 46 362 q 167 436 110 417 l 167 436 l 275 473 l 275 548 q 236 607 275 607 l 236 607 q 201 560 201 607 l 201 560 l 201 516 l 31 516 q 31 526 31 520 q 31 540 31 532 l 31 540 q 82 695 31 649 q 246 740 134 740 l 246 740 q 351 719 304 740 q 424 658 397 699 q 451 558 451 618 l 451 558 l 451 0 l 277 0 l 277 87 q 235 17 265 41 q 168 -8 206 -8 z m 237 128 l 237 128 q 267 146 259 128 q 274 185 274 164 l 274 185 l 274 389 q 218 352 238 375 q 198 287 198 330 l 198 287 l 198 193 q 237 128 198 128 z m 180 793 l 64 793 q 63 813 63 803 l 63 813 q 111 929 63 893 q 245 965 159 965 l 245 965 q 380 928 333 965 q 428 810 428 891 l 428 810 q 427 802 428 807 q 427 793 427 798 l 427 793 l 312 793 q 293 842 312 826 q 246 858 274 858 l 246 858 q 198 842 217 858 q 180 793 180 826 l 180 793 z"},"ɑ":{"ha":502,"x_min":60,"x_max":1028,"o":"m 179 -8 l 179 -8 q 98 11 128 -8 q 53 62 68 29 q 34 139 39 95 q 29 233 29 183 l 29 233 l 29 500 q 34 594 29 550 q 53 670 39 638 q 98 722 68 703 q 179 740 128 740 l 179 740 q 249 717 225 740 q 288 655 273 694 l 288 655 l 288 732 l 463 732 l 463 211 q 473 158 463 169 q 502 146 484 146 l 502 146 l 502 -8 q 302 70 360 -8 l 302 70 q 258 15 286 39 q 179 -8 230 -8 z m 246 129 l 246 129 q 279 152 269 129 q 288 221 288 175 l 288 221 l 288 518 q 278 583 288 563 q 246 604 268 604 l 246 604 q 215 583 225 604 q 204 517 204 563 l 204 517 l 204 221 q 246 129 204 129 z"},"ā":{"ha":483,"x_min":41,"x_max":924,"o":"m 168 -8 l 168 -8 q 75 21 107 -8 q 32 98 43 49 q 20 210 20 147 l 20 210 q 33 320 20 277 q 78 390 46 362 q 167 436 110 417 l 167 436 l 275 473 l 275 548 q 236 607 275 607 l 236 607 q 201 560 201 607 l 201 560 l 201 516 l 31 516 q 31 526 31 520 q 31 540 31 532 l 31 540 q 82 695 31 649 q 246 740 134 740 l 246 740 q 351 719 304 740 q 424 658 397 699 q 451 558 451 618 l 451 558 l 451 0 l 277 0 l 277 87 q 235 17 265 41 q 168 -8 206 -8 z m 237 128 l 237 128 q 267 146 259 128 q 274 185 274 164 l 274 185 l 274 389 q 218 352 238 375 q 198 287 198 330 l 198 287 l 198 193 q 237 128 198 128 z m 402 798 l 85 798 l 85 873 l 402 873 l 402 798 z"},"&":{"ha":520,"x_min":35,"x_max":1035,"o":"m 188 -10 l 188 -10 q 63 52 108 -10 q 17 223 17 114 l 17 223 q 31 352 17 300 q 70 437 45 403 q 127 497 95 471 l 127 497 l 123 506 q 87 603 103 557 q 72 698 72 649 l 72 698 q 93 786 72 748 q 151 845 114 824 q 237 867 188 867 l 237 867 q 324 846 285 867 q 387 784 363 826 q 410 679 410 743 l 410 679 q 385 564 410 610 q 308 475 359 518 l 308 475 l 354 356 q 438 469 383 429 l 438 469 l 505 363 q 411 215 449 318 l 411 215 l 497 0 l 331 0 l 312 46 q 260 6 292 23 q 188 -10 229 -10 z m 225 713 l 225 713 q 231 676 225 701 q 261 591 238 651 l 261 591 q 278 622 271 601 q 285 679 285 643 l 285 679 q 276 732 285 717 q 252 747 267 747 l 252 747 q 232 737 238 747 q 225 713 225 726 z m 167 241 l 167 202 q 216 115 167 115 l 216 115 q 248 130 236 115 q 265 161 260 145 l 265 161 l 183 360 q 167 241 167 326 l 167 241 z"},"ą":{"ha":483,"x_min":41,"x_max":938,"o":"m 168 -8 l 168 -8 q 75 21 107 -8 q 32 98 43 49 q 20 210 20 147 l 20 210 q 33 320 20 277 q 78 390 46 362 q 167 436 110 417 l 167 436 l 275 473 l 275 548 q 236 607 275 607 l 236 607 q 201 560 201 607 l 201 560 l 201 516 l 31 516 q 31 526 31 520 q 31 540 31 532 l 31 540 q 82 695 31 649 q 246 740 134 740 l 246 740 q 351 719 304 740 q 424 658 397 699 q 451 558 451 618 l 451 558 l 451 0 l 277 0 l 277 87 q 235 17 265 41 q 168 -8 206 -8 z m 237 128 l 237 128 q 267 146 259 128 q 274 185 274 164 l 274 185 l 274 389 q 218 352 238 375 q 198 287 198 330 l 198 287 l 198 193 q 237 128 198 128 z m 361 -308 l 361 -308 q 276 -291 315 -308 q 215 -240 238 -273 q 191 -161 191 -207 l 191 -161 q 320 0 191 -72 l 320 0 l 423 0 q 368 -64 390 -32 q 345 -136 345 -96 l 345 -136 q 401 -191 345 -191 l 401 -191 q 458 -180 425 -191 l 458 -180 l 458 -289 q 361 -308 412 -308 z"},"ʼ":{"ha":293,"x_min":122,"x_max":496,"o":"m 192 472 l 89 472 l 122 587 l 60 587 l 60 732 l 242 732 l 242 591 l 192 472 z"},"≈":{"ha":493,"x_min":50,"x_max":1004,"o":"m 357 396 l 357 396 q 295 402 323 396 q 236 421 266 409 l 236 421 q 186 438 206 433 q 153 444 167 444 l 153 444 q 126 436 139 444 q 104 408 114 428 l 104 408 l 24 450 q 54 509 38 482 q 94 552 70 536 q 156 568 118 568 l 156 568 q 221 562 195 568 q 280 543 248 556 l 280 543 q 324 528 309 533 q 352 524 340 524 l 352 524 q 378 533 366 524 q 401 564 391 542 l 401 564 l 490 535 q 462 467 477 499 q 422 415 446 435 q 357 396 398 396 z m 357 166 l 357 166 q 295 173 323 166 q 236 191 266 180 l 236 191 q 186 209 206 203 q 153 215 167 215 l 153 215 q 126 207 139 215 q 104 178 114 199 l 104 178 l 24 220 q 54 280 38 252 q 94 323 70 307 q 156 339 118 339 l 156 339 q 221 333 195 339 q 280 314 248 327 l 280 314 q 324 299 309 303 q 352 294 340 294 l 352 294 q 378 303 366 294 q 401 334 391 312 l 401 334 l 490 305 q 462 238 477 270 q 422 186 446 206 q 357 166 398 166 z"},"å":{"ha":483,"x_min":41,"x_max":924,"o":"m 168 -8 l 168 -8 q 75 21 107 -8 q 32 98 43 49 q 20 210 20 147 l 20 210 q 33 320 20 277 q 78 390 46 362 q 167 436 110 417 l 167 436 l 275 473 l 275 548 q 236 607 275 607 l 236 607 q 201 560 201 607 l 201 560 l 201 516 l 31 516 q 31 526 31 520 q 31 540 31 532 l 31 540 q 82 695 31 649 q 246 740 134 740 l 246 740 q 351 719 304 740 q 424 658 397 699 q 451 558 451 618 l 451 558 l 451 0 l 277 0 l 277 87 q 235 17 265 41 q 168 -8 206 -8 z m 237 128 l 237 128 q 267 146 259 128 q 274 185 274 164 l 274 185 l 274 389 q 218 352 238 375 q 198 287 198 330 l 198 287 l 198 193 q 237 128 198 128 z m 245 779 l 245 779 q 120 823 167 779 q 73 944 73 867 l 73 944 q 120 1065 73 1021 q 245 1109 167 1109 l 245 1109 q 371 1065 324 1109 q 418 944 418 1021 l 418 944 q 371 823 418 867 q 245 779 324 779 z m 246 868 l 246 868 q 297 890 278 868 q 315 944 315 913 l 315 944 q 297 999 315 976 q 246 1021 278 1021 l 246 1021 q 195 999 213 1021 q 176 944 176 976 l 176 944 q 195 890 176 913 q 246 868 213 868 z"},"ǻ":{"ha":483,"x_min":41,"x_max":924,"o":"m 168 -8 l 168 -8 q 75 21 107 -8 q 32 98 43 49 q 20 210 20 147 l 20 210 q 33 320 20 277 q 78 390 46 362 q 167 436 110 417 l 167 436 l 275 473 l 275 548 q 236 607 275 607 l 236 607 q 201 560 201 607 l 201 560 l 201 516 l 31 516 q 31 526 31 520 q 31 540 31 532 l 31 540 q 82 695 31 649 q 246 740 134 740 l 246 740 q 351 719 304 740 q 424 658 397 699 q 451 558 451 618 l 451 558 l 451 0 l 277 0 l 277 87 q 235 17 265 41 q 168 -8 206 -8 z m 237 128 l 237 128 q 267 146 259 128 q 274 185 274 164 l 274 185 l 274 389 q 218 352 238 375 q 198 287 198 330 l 198 287 l 198 193 q 237 128 198 128 z m 246 771 l 246 771 q 120 813 167 771 q 73 927 73 854 l 73 927 q 120 1041 73 1000 q 246 1082 167 1082 l 246 1082 q 371 1041 324 1082 q 418 927 418 1000 l 418 927 q 371 813 418 854 q 246 771 324 771 z m 246 860 l 246 860 q 297 879 279 860 q 315 927 315 899 l 315 927 q 297 974 315 955 q 246 994 279 994 l 246 994 q 195 974 213 994 q 177 927 177 955 l 177 927 q 195 879 177 899 q 246 860 213 860 z m 362 1136 l 130 1100 l 130 1194 l 362 1276 l 362 1136 z"},"ḁ":{"ha":483,"x_min":41,"x_max":924,"o":"m 168 -8 l 168 -8 q 75 21 107 -8 q 32 98 43 49 q 20 210 20 147 l 20 210 q 33 320 20 277 q 78 390 46 362 q 167 436 110 417 l 167 436 l 275 473 l 275 548 q 236 607 275 607 l 236 607 q 201 560 201 607 l 201 560 l 201 516 l 31 516 q 31 526 31 520 q 31 540 31 532 l 31 540 q 82 695 31 649 q 246 740 134 740 l 246 740 q 351 719 304 740 q 424 658 397 699 q 451 558 451 618 l 451 558 l 451 0 l 277 0 l 277 87 q 235 17 265 41 q 168 -8 206 -8 z m 237 128 l 237 128 q 267 146 259 128 q 274 185 274 164 l 274 185 l 274 389 q 218 352 238 375 q 198 287 198 330 l 198 287 l 198 193 q 237 128 198 128 z m 241 -309 l 241 -309 q 115 -268 163 -309 q 68 -154 68 -227 l 68 -154 q 115 -40 68 -81 q 241 1 163 1 l 241 1 q 366 -40 319 1 q 414 -154 414 -81 l 414 -154 q 366 -268 414 -226 q 241 -309 319 -309 z m 241 -221 l 241 -221 q 292 -201 274 -221 q 311 -154 311 -182 l 311 -154 q 292 -106 311 -126 q 241 -87 274 -87 l 241 -87 q 190 -106 208 -87 q 172 -154 172 -126 l 172 -154 q 190 -201 172 -182 q 241 -221 208 -221 z"},"^":{"ha":474,"x_min":40,"x_max":930,"o":"m 195 211 l 20 211 l 137 662 l 336 662 l 454 211 l 279 211 l 237 501 l 195 211 z"},"~":{"ha":493,"x_min":50,"x_max":1004,"o":"m 357 396 l 357 396 q 295 402 323 396 q 236 421 266 409 l 236 421 q 186 438 206 433 q 153 444 167 444 l 153 444 q 126 436 139 444 q 104 408 114 428 l 104 408 l 24 450 q 54 509 38 482 q 94 552 70 536 q 156 568 118 568 l 156 568 q 221 562 195 568 q 280 543 248 556 l 280 543 q 324 528 309 533 q 352 524 340 524 l 352 524 q 378 533 366 524 q 401 564 391 542 l 401 564 l 490 535 q 462 467 477 499 q 422 415 446 435 q 357 396 398 396 z"},"*":{"ha":452,"x_min":36,"x_max":890,"o":"m 283 362 l 169 362 l 191 509 l 74 417 l 18 515 l 151 572 l 18 625 l 74 723 l 190 635 l 169 778 l 283 778 l 266 638 l 378 723 l 435 625 l 300 572 l 435 515 l 378 417 l 265 506 l 283 362 z"},"ⱥ":{"ha":483,"x_min":41,"x_max":924,"o":"m 118 -91 l 49 -91 l 78 19 q 32 96 43 46 q 20 210 20 146 l 20 210 q 33 320 20 277 q 78 390 46 362 q 167 436 110 417 l 167 436 l 275 473 l 275 548 q 236 607 275 607 l 236 607 q 201 560 201 607 l 201 560 l 201 516 l 31 516 q 31 526 31 520 q 31 540 31 532 l 31 540 q 82 695 31 649 q 246 740 134 740 l 246 740 q 266 740 256 740 l 266 740 l 296 859 l 364 859 l 331 728 q 418 667 385 709 q 451 558 451 624 l 451 558 l 451 0 l 277 0 l 277 87 q 235 17 265 41 q 168 -8 206 -8 l 168 -8 q 140 -6 153 -8 l 140 -6 l 118 -91 z m 237 128 l 237 128 q 267 146 259 128 q 274 185 274 164 l 274 185 l 274 389 q 218 352 238 375 q 198 287 198 330 l 198 287 l 198 193 q 237 128 198 128 z"},"@":{"ha":864,"x_min":64,"x_max":1712,"o":"m 449 -77 l 449 -77 q 287 -52 362 -77 q 154 28 211 -27 q 64 169 96 82 q 31 379 31 256 l 31 379 q 82 642 31 533 q 226 809 132 751 q 453 867 321 867 l 453 867 q 664 815 579 867 q 793 665 750 763 q 836 431 836 567 l 836 431 q 792 212 836 288 q 649 135 749 135 l 649 135 q 543 165 577 135 q 492 240 509 194 l 492 240 q 459 167 483 195 q 396 139 436 139 l 396 139 q 314 173 347 139 q 265 260 282 206 q 249 378 249 315 l 249 378 q 262 507 249 448 q 306 600 275 565 q 390 634 336 634 l 390 634 q 448 615 425 634 q 489 566 471 597 l 489 566 l 508 630 l 619 630 l 619 317 q 630 263 619 279 q 662 247 642 247 l 662 247 q 705 293 694 247 q 716 428 716 339 l 716 428 q 692 600 716 528 q 613 711 668 672 q 464 750 558 750 l 464 750 q 245 654 320 750 q 171 378 171 558 l 171 378 q 249 123 171 208 q 456 38 327 38 l 456 38 q 586 48 508 38 l 586 48 l 601 -62 q 449 -77 515 -77 z m 441 260 l 441 260 q 471 283 463 260 q 479 333 479 306 l 479 333 l 479 524 q 432 512 449 524 q 407 469 415 500 q 400 382 400 438 l 400 382 q 404 325 400 354 q 416 278 407 297 q 441 260 425 260 z"},"ã":{"ha":483,"x_min":41,"x_max":924,"o":"m 168 -8 l 168 -8 q 75 21 107 -8 q 32 98 43 49 q 20 210 20 147 l 20 210 q 33 320 20 277 q 78 390 46 362 q 167 436 110 417 l 167 436 l 275 473 l 275 548 q 236 607 275 607 l 236 607 q 201 560 201 607 l 201 560 l 201 516 l 31 516 q 31 526 31 520 q 31 540 31 532 l 31 540 q 82 695 31 649 q 246 740 134 740 l 246 740 q 351 719 304 740 q 424 658 397 699 q 451 558 451 618 l 451 558 l 451 0 l 277 0 l 277 87 q 235 17 265 41 q 168 -8 206 -8 z m 237 128 l 237 128 q 267 146 259 128 q 274 185 274 164 l 274 185 l 274 389 q 218 352 238 375 q 198 287 198 330 l 198 287 l 198 193 q 237 128 198 128 z m 326 794 l 326 794 q 260 806 289 794 q 207 828 231 817 q 161 839 184 839 l 161 839 q 137 832 148 839 q 116 806 126 824 l 116 806 l 44 844 q 71 898 56 874 q 107 938 85 923 q 165 953 130 953 l 165 953 q 229 942 201 953 q 279 922 256 932 q 321 912 302 912 l 321 912 q 345 920 334 912 q 366 948 356 928 l 366 948 l 447 922 q 421 860 436 889 q 385 813 407 831 q 326 794 363 794 z"},"b":{"ha":501,"x_min":76,"x_max":967,"o":"m 328 -8 l 328 -8 q 258 13 285 -8 q 215 78 231 35 l 215 78 l 215 0 l 37 0 l 37 859 l 215 859 l 215 654 q 260 718 231 695 q 341 740 288 740 l 341 740 q 443 688 413 740 q 472 551 472 636 l 472 551 l 472 191 q 457 90 472 135 q 409 18 441 44 q 328 -8 377 -8 z m 255 128 l 255 128 q 289 156 283 128 q 295 223 295 183 l 295 223 l 295 509 q 289 577 295 550 q 256 604 283 604 l 256 604 q 221 576 228 604 q 215 509 215 549 l 215 509 l 215 223 q 221 156 215 184 q 255 128 228 128 z"},"\\":{"ha":405,"x_min":27,"x_max":801,"o":"m 391 0 l 214 0 l 13 863 l 191 863 l 391 0 z"},"|":{"ha":216,"x_min":62,"x_max":381,"o":"m 186 -41 l 30 -41 l 30 954 l 186 954 l 186 -41 z"},"ḃ":{"ha":501,"x_min":76,"x_max":967,"o":"m 328 -8 l 328 -8 q 258 13 285 -8 q 215 78 231 35 l 215 78 l 215 0 l 37 0 l 37 859 l 215 859 l 215 654 q 260 718 231 695 q 341 740 288 740 l 341 740 q 443 688 413 740 q 472 551 472 636 l 472 551 l 472 191 q 457 90 472 135 q 409 18 441 44 q 328 -8 377 -8 z m 255 128 l 255 128 q 289 156 283 128 q 295 223 295 183 l 295 223 l 295 509 q 289 577 295 550 q 256 604 283 604 l 256 604 q 221 576 228 604 q 215 509 215 549 l 215 509 l 215 223 q 221 156 215 184 q 255 128 228 128 z m 441 791 l 267 791 l 267 936 l 441 936 l 441 791 z"},"ḅ":{"ha":501,"x_min":76,"x_max":967,"o":"m 328 -8 l 328 -8 q 258 13 285 -8 q 215 78 231 35 l 215 78 l 215 0 l 37 0 l 37 859 l 215 859 l 215 654 q 260 718 231 695 q 341 740 288 740 l 341 740 q 443 688 413 740 q 472 551 472 636 l 472 551 l 472 191 q 457 90 472 135 q 409 18 441 44 q 328 -8 377 -8 z m 255 128 l 255 128 q 289 156 283 128 q 295 223 295 183 l 295 223 l 295 509 q 289 577 295 550 q 256 604 283 604 l 256 604 q 221 576 228 604 q 215 509 215 549 l 215 509 l 215 223 q 221 156 215 184 q 255 128 228 128 z m 338 -204 l 164 -204 l 164 -58 l 338 -58 l 338 -204 z"},"ꞵ":{"ha":492,"x_min":58,"x_max":969,"o":"m 199 -122 l 28 -122 l 28 689 q 236 867 28 867 l 236 867 q 387 826 331 867 q 444 689 444 785 l 444 689 l 444 632 q 427 546 444 581 q 371 498 410 511 l 371 498 q 453 426 433 483 q 473 273 473 368 l 473 273 q 421 60 473 125 q 275 -5 369 -5 l 275 -5 q 199 7 229 -5 l 199 7 l 199 -122 z m 199 709 l 199 153 q 213 125 199 135 q 250 116 228 116 l 250 116 q 288 128 273 116 q 303 164 303 140 l 303 164 l 303 357 q 287 413 303 396 q 231 429 271 429 l 231 429 l 231 550 q 265 566 257 550 q 272 608 272 583 l 272 608 l 272 709 q 236 747 272 747 l 236 747 q 199 709 199 747 l 199 709 z"},"ɓ":{"ha":501,"x_min":72,"x_max":967,"o":"m 328 -8 l 328 -8 q 258 13 285 -8 q 215 78 231 35 l 215 78 l 215 0 l 35 0 l 35 648 q 59 762 35 712 q 133 839 83 811 q 266 867 184 867 l 266 867 l 266 732 q 227 716 238 732 q 215 668 215 700 l 215 668 l 215 606 q 260 670 231 647 q 341 692 288 692 l 341 692 q 443 640 413 692 q 472 503 472 588 l 472 503 l 472 191 q 457 90 472 135 q 409 18 441 44 q 328 -8 377 -8 z m 255 128 l 255 128 q 289 156 283 128 q 295 223 295 183 l 295 223 l 295 461 q 289 529 295 502 q 256 556 283 556 l 256 556 q 221 529 228 556 q 215 461 215 501 l 215 461 l 215 223 q 221 156 215 184 q 255 128 228 128 z"},"ʘ":{"ha":497,"x_min":60,"x_max":957,"o":"m 248 -8 l 248 -8 q 29 219 29 -8 l 29 219 l 29 513 q 87 678 29 617 q 248 740 146 740 l 248 740 q 409 678 351 740 q 467 513 467 617 l 467 513 l 467 219 q 248 -8 467 -8 z m 248 127 l 248 127 q 280 143 270 127 q 289 183 289 159 l 289 183 l 289 541 q 248 605 289 605 l 248 605 q 207 541 207 605 l 207 541 l 207 183 q 217 143 207 159 q 248 127 226 127 z m 275 308 l 221 308 l 221 437 l 275 437 l 275 308 z"},"◆":{"ha":725,"x_min":40,"x_max":1444,"o":"m 705 369 l 362 25 l 20 369 l 362 713 l 705 369 z"},"■":{"ha":807,"x_min":78,"x_max":1574,"o":"m 769 0 l 38 0 l 38 732 l 769 732 l 769 0 z"},"ḇ":{"ha":501,"x_min":76,"x_max":967,"o":"m 328 -8 l 328 -8 q 258 13 285 -8 q 215 78 231 35 l 215 78 l 215 0 l 37 0 l 37 859 l 215 859 l 215 654 q 260 718 231 695 q 341 740 288 740 l 341 740 q 443 688 413 740 q 472 551 472 636 l 472 551 l 472 191 q 457 90 472 135 q 409 18 441 44 q 328 -8 377 -8 z m 255 128 l 255 128 q 289 156 283 128 q 295 223 295 183 l 295 223 l 295 509 q 289 577 295 550 q 256 604 283 604 l 256 604 q 221 576 228 604 q 215 509 215 549 l 215 509 l 215 223 q 221 156 215 184 q 255 128 228 128 z m 410 -133 l 92 -133 l 92 -58 l 410 -58 l 410 -133 z"},"{":{"ha":340,"x_min":31,"x_max":661,"o":"m 323 39 l 323 -92 q 178 -73 230 -90 q 104 -19 125 -57 q 83 88 83 20 l 83 88 l 83 251 q 72 323 83 300 q 15 351 60 346 l 15 351 l 15 447 q 72 475 60 453 q 83 547 83 498 l 83 547 l 83 710 q 104 817 83 779 q 178 872 125 855 q 323 890 230 888 l 323 890 l 323 760 q 276 751 296 758 q 255 719 255 745 l 255 719 l 255 536 q 240 461 255 489 q 201 420 225 434 q 148 399 176 406 l 148 399 q 201 379 176 393 q 240 338 225 365 q 255 263 255 310 l 255 263 l 255 80 q 276 47 255 54 q 323 39 296 41 l 323 39 z"},"}":{"ha":340,"x_min":40,"x_max":670,"o":"m 20 -92 l 20 -92 l 20 39 q 67 47 46 41 q 87 80 87 54 l 87 80 l 87 263 q 102 338 87 310 q 142 379 117 365 q 194 399 166 393 l 194 399 q 142 420 166 406 q 102 461 117 434 q 87 536 87 488 l 87 536 l 87 719 q 67 751 87 745 q 20 760 46 758 l 20 760 l 20 890 q 165 872 112 888 q 238 817 217 855 q 259 710 259 779 l 259 710 l 259 547 q 271 475 259 498 q 327 447 283 453 l 327 447 l 327 351 q 271 323 283 346 q 259 251 259 300 l 259 251 l 259 88 q 238 -19 259 20 q 165 -73 217 -57 q 20 -92 112 -90 z"},"[":{"ha":318,"x_min":62,"x_max":616,"o":"m 301 -92 l 30 -92 l 30 890 l 301 890 l 301 753 l 202 753 l 202 45 l 301 45 l 301 -92 z"},"]":{"ha":318,"x_min":35,"x_max":589,"o":"m 288 -92 l 17 -92 l 17 45 l 116 45 l 116 753 l 17 753 l 17 890 l 288 890 l 288 -92 z"},"˘":{"ha":496,"x_min":109,"x_max":896,"o":"m 245 777 l 245 777 q 106 813 159 777 q 53 929 53 850 l 53 929 q 55 950 53 939 l 55 950 l 180 950 q 194 907 180 922 q 246 893 208 893 l 246 893 q 297 907 283 893 q 312 950 312 922 l 312 950 l 437 950 q 437 940 437 945 q 438 933 438 935 l 438 933 q 385 814 438 851 q 245 777 333 777 z"},"̮":{"ha":0,"x_min":-393,"x_max":394,"o":"m 0 -203 l 0 -203 q -139 -167 -86 -203 q -192 -51 -192 -131 l -192 -51 q -190 -31 -192 -41 l -190 -31 l -65 -31 q -51 -73 -65 -59 q 0 -87 -37 -87 l 0 -87 q 52 -73 38 -87 q 66 -31 66 -59 l 66 -31 l 191 -31 q 192 -48 192 -43 l 192 -48 q 140 -166 192 -129 q 0 -203 87 -203 z"},"̆":{"ha":0,"x_min":-393,"x_max":394,"o":"m 0 777 l 0 777 q -139 813 -86 777 q -192 929 -192 850 l -192 929 q -190 950 -192 939 l -190 950 l -65 950 q -51 907 -65 922 q 0 893 -37 893 l 0 893 q 52 907 38 893 q 66 950 66 922 l 66 950 l 191 950 q 192 940 192 945 q 192 933 192 935 l 192 933 q 140 814 192 851 q 0 777 87 777 z"},"̯":{"ha":0,"x_min":-374,"x_max":373,"o":"m -66 -250 l -181 -250 q -183 -230 -183 -240 l -183 -230 q -135 -114 -183 -150 q -1 -78 -86 -78 l -1 -78 q 135 -115 87 -78 q 182 -233 182 -152 l 182 -233 q 182 -240 182 -236 q 181 -250 182 -245 l 181 -250 l 66 -250 q 47 -201 66 -217 q 0 -185 29 -185 l 0 -185 q -47 -201 -28 -185 q -66 -250 -66 -217 l -66 -250 z"},"̑":{"ha":0,"x_min":-374,"x_max":373,"o":"m -66 785 l -181 785 q -183 805 -183 795 l -183 805 q -135 921 -183 885 q -1 957 -86 957 l -1 957 q 135 920 87 957 q 182 802 182 883 l 182 802 q 182 795 182 799 q 181 785 182 790 l 181 785 l 66 785 q 47 834 66 818 q 0 851 29 851 l 0 851 q -47 834 -28 851 q -66 785 -66 818 l -66 785 z"},"¦":{"ha":222,"x_min":68,"x_max":387,"o":"m 189 509 l 33 509 l 33 954 l 189 954 l 189 509 z m 189 -41 l 33 -41 l 33 389 l 189 389 l 189 -41 z"},"ƀ":{"ha":501,"x_min":-78,"x_max":967,"o":"m 328 -8 l 328 -8 q 258 13 285 -8 q 215 78 231 35 l 215 78 l 215 0 l 37 0 l 37 738 l -38 738 l -38 813 l 37 813 l 37 859 l 215 859 l 215 813 l 279 813 l 279 738 l 215 738 l 215 654 q 260 718 231 695 q 341 740 288 740 l 341 740 q 443 688 413 740 q 472 551 472 636 l 472 551 l 472 191 q 457 90 472 135 q 409 18 441 44 q 328 -8 377 -8 z m 255 128 l 255 128 q 289 156 283 128 q 295 223 295 183 l 295 223 l 295 509 q 289 577 295 550 q 256 604 283 604 l 256 604 q 221 576 228 604 q 215 509 215 549 l 215 509 l 215 223 q 221 156 215 184 q 255 128 228 128 z"},"•":{"ha":352,"x_min":47,"x_max":674,"o":"m 176 197 l 176 197 q 63 242 103 197 q 23 362 23 288 l 23 362 q 63 481 23 436 q 176 527 103 527 l 176 527 q 289 481 249 527 q 329 362 329 436 l 329 362 q 289 242 329 288 q 176 197 249 197 z"},"∙":{"ha":293,"x_min":151,"x_max":469,"o":"m 229 353 l 74 353 l 74 499 l 229 499 l 229 353 z"},"c":{"ha":491,"x_min":60,"x_max":953,"o":"m 255 -8 l 255 -8 q 81 55 132 -8 q 29 240 29 118 l 29 240 l 29 466 q 49 619 29 558 q 117 710 68 680 q 253 740 166 740 l 253 740 q 362 719 313 740 q 438 656 410 697 q 465 554 465 614 l 465 554 l 465 442 l 287 442 l 287 545 q 280 588 287 570 q 248 605 272 605 l 248 605 q 205 544 205 605 l 205 544 l 205 189 q 215 148 205 167 q 247 129 225 129 l 247 129 q 279 147 270 129 q 288 190 288 166 l 288 190 l 288 313 l 465 313 l 465 185 q 438 81 465 125 q 364 15 411 38 q 255 -8 316 -8 z"},"ć":{"ha":491,"x_min":60,"x_max":953,"o":"m 255 -8 l 255 -8 q 81 55 132 -8 q 29 240 29 118 l 29 240 l 29 466 q 49 619 29 558 q 117 710 68 680 q 253 740 166 740 l 253 740 q 362 719 313 740 q 438 656 410 697 q 465 554 465 614 l 465 554 l 465 442 l 287 442 l 287 545 q 280 588 287 570 q 248 605 272 605 l 248 605 q 205 544 205 605 l 205 544 l 205 189 q 215 148 205 167 q 247 129 225 129 l 247 129 q 279 147 270 129 q 288 190 288 166 l 288 190 l 288 313 l 465 313 l 465 185 q 438 81 465 125 q 364 15 411 38 q 255 -8 316 -8 z m 367 804 l 135 758 l 135 867 l 367 974 l 367 804 z"},"̐":{"ha":0,"x_min":-393,"x_max":394,"o":"m 88 979 l -87 979 l -87 1105 l 88 1105 l 88 979 z m 0 777 l 0 777 q -139 810 -86 777 q -192 915 -192 843 l -192 915 q -190 935 -192 925 l -190 935 l -65 935 q -51 889 -65 905 q 0 874 -37 874 l 0 874 q 52 889 38 874 q 66 935 66 905 l 66 935 l 191 935 q 192 925 192 930 q 192 918 192 920 l 192 918 q 140 811 192 844 q 0 777 87 777 z"},"ˇ":{"ha":474,"x_min":40,"x_max":930,"o":"m 336 777 l 137 777 l 20 974 l 195 974 l 237 834 l 279 974 l 454 974 l 336 777 z"},"̌":{"ha":0,"x_min":-445,"x_max":445,"o":"m 100 777 l -100 777 l -217 974 l -42 974 l 0 834 l 42 974 l 217 974 l 100 777 z"},"č":{"ha":491,"x_min":60,"x_max":960,"o":"m 255 -8 l 255 -8 q 81 55 132 -8 q 29 240 29 118 l 29 240 l 29 466 q 49 619 29 558 q 117 710 68 680 q 253 740 166 740 l 253 740 q 362 719 313 740 q 438 656 410 697 q 465 554 465 614 l 465 554 l 465 442 l 287 442 l 287 545 q 280 588 287 570 q 248 605 272 605 l 248 605 q 205 544 205 605 l 205 544 l 205 189 q 215 148 205 167 q 247 129 225 129 l 247 129 q 279 147 270 129 q 288 190 288 166 l 288 190 l 288 313 l 465 313 l 465 185 q 438 81 465 125 q 364 15 411 38 q 255 -8 316 -8 z m 351 777 l 152 777 l 34 974 l 209 974 l 251 834 l 293 974 l 469 974 l 351 777 z"},"ç":{"ha":491,"x_min":60,"x_max":953,"o":"m 255 -8 l 255 -8 q 81 55 132 -8 q 29 240 29 118 l 29 240 l 29 466 q 49 619 29 558 q 117 710 68 680 q 253 740 166 740 l 253 740 q 362 719 313 740 q 438 656 410 697 q 465 554 465 614 l 465 554 l 465 442 l 287 442 l 287 545 q 280 588 287 570 q 248 605 272 605 l 248 605 q 205 544 205 605 l 205 544 l 205 189 q 215 148 205 167 q 247 129 225 129 l 247 129 q 279 147 270 129 q 288 190 288 166 l 288 190 l 288 313 l 465 313 l 465 185 q 438 81 465 125 q 364 15 411 38 q 255 -8 316 -8 z m 238 -308 l 238 -308 q 142 -289 188 -308 l 142 -289 l 142 -180 q 171 -188 157 -185 q 199 -191 186 -191 l 199 -191 q 240 -178 224 -191 q 256 -133 256 -165 l 256 -133 q 243 -71 256 -106 q 206 0 229 -36 l 206 0 l 284 0 q 358 -93 332 -42 q 384 -189 384 -144 l 384 -189 q 349 -274 384 -239 q 238 -308 314 -308 z"},"ḉ":{"ha":491,"x_min":60,"x_max":953,"o":"m 255 -8 l 255 -8 q 81 55 132 -8 q 29 240 29 118 l 29 240 l 29 466 q 49 619 29 558 q 117 710 68 680 q 253 740 166 740 l 253 740 q 362 719 313 740 q 438 656 410 697 q 465 554 465 614 l 465 554 l 465 442 l 287 442 l 287 545 q 280 588 287 570 q 248 605 272 605 l 248 605 q 205 544 205 605 l 205 544 l 205 189 q 215 148 205 167 q 247 129 225 129 l 247 129 q 279 147 270 129 q 288 190 288 166 l 288 190 l 288 313 l 465 313 l 465 185 q 438 81 465 125 q 364 15 411 38 q 255 -8 316 -8 z m 238 -308 l 238 -308 q 142 -289 188 -308 l 142 -289 l 142 -180 q 171 -188 157 -185 q 199 -191 186 -191 l 199 -191 q 240 -178 224 -191 q 256 -133 256 -165 l 256 -133 q 243 -71 256 -106 q 206 0 229 -36 l 206 0 l 284 0 q 358 -93 332 -42 q 384 -189 384 -144 l 384 -189 q 349 -274 384 -239 q 238 -308 314 -308 z m 368 804 l 136 758 l 136 867 l 368 974 l 368 804 z"},"ĉ":{"ha":491,"x_min":60,"x_max":960,"o":"m 255 -8 l 255 -8 q 81 55 132 -8 q 29 240 29 118 l 29 240 l 29 466 q 49 619 29 558 q 117 710 68 680 q 253 740 166 740 l 253 740 q 362 719 313 740 q 438 656 410 697 q 465 554 465 614 l 465 554 l 465 442 l 287 442 l 287 545 q 280 588 287 570 q 248 605 272 605 l 248 605 q 205 544 205 605 l 205 544 l 205 189 q 215 148 205 167 q 247 129 225 129 l 247 129 q 279 147 270 129 q 288 190 288 166 l 288 190 l 288 313 l 465 313 l 465 185 q 438 81 465 125 q 364 15 411 38 q 255 -8 316 -8 z m 209 777 l 34 777 l 152 974 l 351 974 l 469 777 l 293 777 l 251 916 l 209 777 z"},"ċ":{"ha":491,"x_min":60,"x_max":953,"o":"m 255 -8 l 255 -8 q 81 55 132 -8 q 29 240 29 118 l 29 240 l 29 466 q 49 619 29 558 q 117 710 68 680 q 253 740 166 740 l 253 740 q 362 719 313 740 q 438 656 410 697 q 465 554 465 614 l 465 554 l 465 442 l 287 442 l 287 545 q 280 588 287 570 q 248 605 272 605 l 248 605 q 205 544 205 605 l 205 544 l 205 189 q 215 148 205 167 q 247 129 225 129 l 247 129 q 279 147 270 129 q 288 190 288 166 l 288 190 l 288 313 l 465 313 l 465 185 q 438 81 465 125 q 364 15 411 38 q 255 -8 316 -8 z m 339 777 l 164 777 l 164 923 l 339 923 l 339 777 z"},"₵":{"ha":481,"x_min":48,"x_max":941,"o":"m 291 -80 l 206 -80 l 206 -6 q 65 67 106 5 q 23 240 23 130 l 23 240 l 23 466 q 39 607 23 549 q 95 699 55 666 q 206 739 135 732 l 206 739 l 206 819 l 291 819 l 291 738 q 411 681 363 728 q 459 554 459 634 l 459 554 l 459 429 l 281 429 l 281 545 q 274 588 281 570 q 242 605 267 605 l 242 605 q 199 544 199 605 l 199 544 l 199 189 q 209 148 199 167 q 241 129 219 129 l 241 129 q 273 147 264 129 q 282 190 282 166 l 282 190 l 282 300 l 459 300 l 459 185 q 412 54 459 103 q 291 -6 364 4 l 291 -6 l 291 -80 z"}}}
